<svg width="416" height="416" viewBox="0 0 416 416" fill="none" xmlns="http://www.w3.org/2000/svg">
<g clip-path="url(#clip0)">
<path d="M107.12 245.44C92.7607 245.44 81.1201 227.281 81.1201 204.88C81.1201 182.479 92.7607 164.32 107.12 164.32C121.48 164.32 133.12 182.479 133.12 204.88C133.12 227.281 121.48 245.44 107.12 245.44Z" fill="#E65EEA"/>
<path d="M104.395 181.854C111.467 194.709 126.693 200.179 140.4 195.062C144.165 193.669 145.787 199.68 142.064 201.074C125.84 207.106 107.349 200.117 99.0287 184.995C97.0735 181.501 102.461 178.339 104.395 181.854Z" fill="#E65EEA"/>
<path d="M102.939 224.765C108.971 220.584 115.398 216.986 122.138 214.094C125.507 212.659 128.918 211.349 132.413 210.226C135.97 209.082 139.381 208.208 142.917 209.851C144.435 210.558 144.83 212.763 144.04 214.115C143.125 215.675 141.315 215.946 139.776 215.238C138.653 214.718 137.051 215.342 135.949 215.675C134.472 216.112 133.016 216.59 131.581 217.09C128.627 218.109 125.715 219.274 122.886 220.563C117 223.246 111.405 226.47 106.101 230.173C102.773 232.461 99.6528 227.053 102.939 224.765Z" fill="#E65EEA"/>
<path d="M113.693 212.098C113.672 212.202 113.672 212.306 113.693 212.41C113.651 212.139 113.61 211.848 113.589 211.578C113.61 211.682 113.63 211.765 113.651 211.869C113.547 211.619 113.443 211.37 113.339 211.12C113.402 211.245 113.464 211.349 113.526 211.453C113.36 211.245 113.194 211.037 113.048 210.829C113.131 210.933 113.235 211.016 113.339 211.099C113.131 210.933 112.923 210.766 112.715 210.621C112.861 210.725 113.006 210.808 113.173 210.87C112.923 210.766 112.674 210.662 112.424 210.558C112.59 210.621 112.757 210.662 112.944 210.704C112.674 210.662 112.382 210.621 112.112 210.6C112.299 210.621 112.466 210.621 112.653 210.6C112.382 210.642 112.091 210.683 111.821 210.704C112.008 210.683 112.174 210.642 112.341 210.558C112.091 210.662 111.842 210.766 111.592 210.87C111.738 210.787 111.883 210.704 112.008 210.6C111.8 210.766 111.592 210.933 111.384 211.078C111.592 210.912 111.758 210.725 111.925 210.517C111.758 210.725 111.592 210.933 111.446 211.141C111.654 210.85 111.821 210.538 111.966 210.226C111.862 210.475 111.758 210.725 111.654 210.974C112.008 210.122 112.154 209.227 112.382 208.354C112.736 207.002 113.318 205.795 114.234 204.755C115.045 203.819 116.563 203.653 117.645 204.11C118.685 204.547 119.683 205.754 119.558 206.96C119.454 208.062 119.475 209.144 119.6 210.246C119.558 209.976 119.517 209.685 119.496 209.414C119.621 210.267 119.808 211.12 120.078 211.952C118.04 212.222 116.002 212.514 113.942 212.784C113.922 211.286 113.901 209.81 113.901 208.312C113.88 206.752 115.107 205.442 116.605 205.254C117.27 205.171 118.019 205.254 118.602 205.629C119.226 206.045 119.933 206.71 120.037 207.501C120.266 209.061 120.474 210.621 120.702 212.181C118.664 212.451 116.626 212.742 114.566 213.013C114.566 210.454 114.546 207.875 114.546 205.317C116.626 205.317 118.706 205.317 120.786 205.317C120.744 206.731 120.806 208.146 120.994 209.539C120.952 209.269 120.91 208.978 120.89 208.707C121.014 209.518 121.16 210.33 121.347 211.141C119.309 211.411 117.27 211.702 115.211 211.973C115.419 209.851 115.648 207.75 115.856 205.629C117.894 205.899 119.933 206.19 121.992 206.461C121.992 206.523 121.971 206.586 121.971 206.627C122.013 206.357 122.054 206.066 122.075 205.795C121.867 207.355 121.867 208.915 122.075 210.454C122.034 210.184 121.992 209.893 121.971 209.622C122.054 210.309 122.2 210.995 122.366 211.661C120.37 211.661 118.352 211.661 116.355 211.661C116.48 211.266 116.563 210.87 116.605 210.454C116.563 210.725 116.522 211.016 116.501 211.286C116.584 210.6 116.584 209.934 116.501 209.248C116.542 209.518 116.584 209.81 116.605 210.08C116.501 209.31 116.293 208.562 116.002 207.854C116.106 208.104 116.21 208.354 116.314 208.603C116.043 207.979 115.69 207.397 115.274 206.856C115.44 207.064 115.606 207.272 115.752 207.48C115.461 207.126 115.17 206.794 114.816 206.482C113.61 205.379 113.61 203.174 114.816 202.072C116.106 200.886 117.936 200.907 119.226 202.072C122.262 204.818 123.49 209.394 122.346 213.304C121.971 214.573 120.702 215.654 119.33 215.592C117.978 215.53 116.667 214.677 116.314 213.304C115.981 211.91 115.773 210.475 115.69 209.061C115.606 207.626 115.752 206.211 115.96 204.776C116.064 204.09 116.813 203.216 117.395 202.904C118.019 202.571 118.685 202.446 119.392 202.53C120.786 202.717 122.262 204.048 122.096 205.587C121.888 207.709 121.659 209.81 121.451 211.931C121.368 212.742 121.16 213.554 120.536 214.136C120.016 214.614 119.434 214.906 118.747 214.989C117.27 215.197 115.69 214.282 115.315 212.763C114.733 210.33 114.442 207.792 114.546 205.275C114.608 203.653 115.939 202.072 117.666 202.155C119.35 202.238 120.786 203.528 120.786 205.275C120.786 207.834 120.806 210.413 120.806 212.971C120.806 214.531 119.621 215.842 118.102 216.029C117.437 216.112 116.688 216.029 116.106 215.654C115.482 215.238 114.774 214.573 114.67 213.782C114.442 212.222 114.234 210.662 114.005 209.102C116.043 208.832 118.082 208.541 120.141 208.27C120.162 209.768 120.182 211.245 120.182 212.742C120.203 214.302 118.976 215.613 117.478 215.8C115.898 216.008 114.546 215.051 114.046 213.574C113.36 211.453 113.069 209.144 113.298 206.939C115.066 207.667 116.854 208.416 118.622 209.144C118.56 209.206 118.498 209.29 118.435 209.352C118.602 209.144 118.768 208.936 118.914 208.728C118.706 208.998 118.56 209.269 118.414 209.581C118.518 209.331 118.622 209.082 118.726 208.832C118.31 209.851 118.186 210.933 117.853 211.973C117.333 213.595 116.48 215.01 115.066 215.987C113.526 217.048 111.592 216.944 109.97 216.216C108.472 215.53 107.245 213.762 107.432 212.077C107.515 211.224 107.723 210.496 108.347 209.872C108.888 209.331 109.782 208.915 110.552 208.957C111.363 208.998 112.195 209.248 112.757 209.872C113.298 210.475 113.776 211.286 113.693 212.098Z" fill="#E65EEA"/>
<path d="M117.957 205.65C118.061 205.899 118.206 206.128 118.352 206.357C118.186 206.149 118.019 205.941 117.874 205.733C118.04 205.941 118.227 206.128 118.435 206.315C118.227 206.149 118.019 205.982 117.811 205.837C118.019 206.003 118.248 206.128 118.498 206.253C117.083 206.627 115.648 207.002 114.234 207.376C114.254 207.355 114.254 207.314 114.275 207.293C114.171 207.542 114.067 207.792 113.963 208.042C114.171 207.542 114.296 207.022 114.379 206.482C114.338 206.752 114.296 207.043 114.275 207.314C114.338 206.752 114.338 206.17 114.275 205.608C114.317 205.878 114.358 206.17 114.379 206.44C114.296 205.878 114.15 205.317 113.922 204.797C114.026 205.046 114.13 205.296 114.234 205.546C114.088 205.234 113.942 204.922 113.755 204.63C113.339 203.965 113.235 202.987 113.443 202.218C113.651 201.49 114.192 200.72 114.878 200.346C115.606 199.971 116.48 199.763 117.291 200.034C118.082 200.283 118.706 200.762 119.163 201.469C120.016 202.821 120.432 204.36 120.557 205.941C120.619 206.731 120.515 207.501 120.39 208.291C120.266 209.082 119.954 209.789 119.642 210.538C119.454 210.891 119.184 211.203 118.83 211.411C118.539 211.682 118.186 211.869 117.77 211.973C117.499 212.014 117.208 212.056 116.938 212.077C116.376 212.077 115.856 211.931 115.357 211.661C114.754 211.39 114.192 210.954 113.734 210.496C113.277 210.038 112.84 209.477 112.57 208.853C112.341 208.499 112.216 208.104 112.195 207.688C112.112 207.272 112.112 206.856 112.258 206.44C112.466 205.712 113.006 204.942 113.693 204.568C114.421 204.194 115.294 203.986 116.106 204.256C116.813 204.464 117.645 204.942 117.957 205.65Z" fill="#E65EEA"/>
<path d="M118.914 206.398C119.205 207.147 119.517 207.917 119.808 208.666C119.538 208.208 119.267 207.75 118.997 207.293C119.018 207.314 119.038 207.314 119.038 207.334C118.83 207.168 118.622 207.002 118.414 206.856C118.581 206.981 118.768 207.085 118.976 207.168C118.726 207.064 118.477 206.96 118.227 206.856C118.477 206.96 118.706 207.022 118.976 207.043C118.706 207.002 118.414 206.96 118.144 206.939C118.394 206.96 118.664 206.96 118.914 206.939C118.643 206.981 118.352 207.022 118.082 207.043C118.352 207.002 118.622 206.939 118.893 206.835C118.643 206.939 118.394 207.043 118.144 207.147C118.352 207.043 118.56 206.939 118.747 206.794C118.539 206.96 118.331 207.126 118.123 207.272C118.29 207.147 118.435 206.981 118.581 206.814C118.414 207.022 118.248 207.23 118.102 207.438C118.227 207.272 118.331 207.085 118.435 206.877C118.331 207.126 118.227 207.376 118.123 207.626C118.227 207.397 118.29 207.147 118.331 206.877C118.29 207.147 118.248 207.438 118.227 207.709C118.269 207.438 118.269 207.147 118.227 206.877C118.269 207.147 118.31 207.438 118.331 207.709C118.29 207.459 118.227 207.21 118.123 206.96C118.227 207.21 118.331 207.459 118.435 207.709C118.331 207.48 118.206 207.251 118.061 207.043C118.227 207.251 118.394 207.459 118.539 207.667C118.394 207.501 118.248 207.355 118.082 207.21C119.559 207.21 121.014 207.21 122.491 207.21C122.034 207.563 121.576 207.917 121.118 208.27C120.827 208.582 120.494 208.79 120.12 208.915C119.746 209.102 119.35 209.206 118.914 209.186C118.144 209.186 117.229 208.853 116.709 208.27C116.168 207.667 115.752 206.898 115.794 206.066C115.835 205.795 115.877 205.504 115.898 205.234C116.043 204.714 116.314 204.256 116.709 203.861C117.166 203.507 117.624 203.154 118.082 202.8C118.373 202.488 118.706 202.28 119.08 202.155C119.454 201.968 119.85 201.864 120.286 201.885C120.557 201.926 120.848 201.968 121.118 201.989C121.638 202.134 122.096 202.405 122.491 202.8C122.637 202.904 122.762 203.029 122.886 203.174C123.157 203.507 123.448 203.84 123.656 204.235C123.864 204.61 124.03 205.026 124.176 205.421C124.238 205.587 124.28 205.774 124.322 205.962C124.405 206.378 124.467 206.835 124.467 207.272C124.467 207.73 124.384 208.187 124.322 208.624C124.301 208.79 124.259 208.957 124.197 209.123C124.051 209.539 123.885 209.955 123.656 210.33C122.886 211.619 121.638 212.534 120.203 212.95C119.6 213.117 118.935 213.221 118.311 213.179C117.874 213.158 117.458 213.096 117.042 213.013C116.626 212.93 116.189 212.722 115.814 212.555C115.627 212.472 115.461 212.368 115.294 212.264C115.066 212.098 114.816 211.931 114.608 211.744C114.109 211.266 114.005 210.933 113.755 210.309C113.693 210.163 113.651 210.038 113.589 209.893C113.36 209.29 113.11 208.686 112.882 208.083C112.757 207.667 112.736 207.251 112.819 206.835C112.84 206.419 112.965 206.024 113.194 205.67C113.568 205.026 114.317 204.402 115.066 204.235C115.856 204.048 116.771 204.09 117.478 204.547C117.686 204.714 117.894 204.88 118.102 205.026C118.498 205.4 118.747 205.858 118.914 206.398Z" fill="#E65EEA"/>
<path d="M120.161 211.224C120.432 211.994 120.702 212.742 120.973 213.512C119.454 212.888 117.915 212.264 116.397 211.64C116.875 211.328 116.293 211.786 116.542 211.557C116.667 211.432 116.813 211.307 116.937 211.162C117.145 210.933 116.792 211.494 117.041 211.016C117.083 210.954 117.437 210.288 117.27 210.642C117.125 210.954 117.333 210.434 117.353 210.371C117.416 210.142 117.478 209.934 117.52 209.706C117.478 210.018 117.499 210.018 117.478 209.706C117.457 209.414 117.457 209.165 117.416 208.874C118.976 209.768 120.536 210.662 122.117 211.578C121.576 211.806 121.077 212.077 120.598 212.41C120.952 212.16 120.598 212.43 120.453 212.555C120.245 212.742 120.037 212.971 119.849 213.179C119.641 213.429 120.016 212.888 119.725 213.346C119.579 213.595 119.433 213.845 119.288 214.094C118.997 214.635 119.309 213.762 119.163 214.406C119.142 214.49 119.101 214.594 119.08 214.677C118.997 215.01 118.997 215.072 119.038 214.843C119.08 214.718 119.059 214.594 119.017 214.469C118.581 214.032 118.165 213.595 117.728 213.158C116.729 213.242 116.521 213.2 117.062 213.075C116.979 213.096 116.896 213.138 116.813 213.158C116.584 213.346 116.542 213.366 116.709 213.221C116.854 213.075 116.833 213.096 116.646 213.304C116.688 213.221 116.729 213.138 116.792 213.054C116.667 213.366 116.646 213.346 116.75 212.992C116.75 213.117 116.813 213.782 116.729 213.429C116.646 213.096 116.896 213.762 116.979 213.866C117.249 214.178 117.624 214.302 118.019 214.302C117.541 214.302 118.435 214.157 118.601 214.074C119.371 213.595 119.849 212.118 118.976 211.515C118.747 211.37 118.56 211.39 118.31 211.328C118.019 211.411 117.998 211.411 118.227 211.349C118.435 211.286 118.414 211.307 118.185 211.411C118.248 211.39 118.934 210.891 118.581 211.203C118.768 211.058 118.934 210.87 119.101 210.704C119.246 210.538 119.225 210.579 119.038 210.808C119.121 210.704 119.205 210.579 119.267 210.475C119.392 210.288 119.496 210.08 119.6 209.872C119.974 209.165 119.475 210.371 119.704 209.602C119.787 209.331 119.849 209.082 119.912 208.811C120.057 208.229 119.933 209.04 119.933 208.686C119.933 208.458 119.953 208.229 119.953 208C119.953 207.771 119.891 207.168 119.974 207.73C119.933 207.459 119.87 207.189 119.808 206.918C119.766 206.773 119.475 206.045 119.745 206.627C119.621 206.378 119.496 206.128 119.35 205.899C120.515 206.378 121.701 206.856 122.865 207.334C123.614 207.064 123.053 207.293 122.865 207.397C123.198 207.147 123.261 207.085 123.115 207.251C122.949 207.418 123.011 207.334 123.281 207.022C123.177 207.23 122.99 207.73 123.198 207.022C123.177 207.106 122.969 207.626 123.011 207.646C122.928 207.605 123.115 206.877 123.032 207.667C122.969 208.229 122.928 207.23 123.011 207.584C123.177 208.27 122.845 207.418 122.969 207.626C123.198 208.062 123.115 207.75 122.886 207.605C123.427 207.958 122.345 207.376 122.928 207.667C122.096 207.251 122.907 207.75 123.011 207.667C122.574 207.626 122.491 207.605 122.741 207.605C122.845 207.605 122.969 207.605 123.073 207.584C122.345 207.584 122.845 207.584 123.115 207.501C122.657 207.626 122.845 207.584 123.177 207.418C122.865 207.563 122.845 207.688 123.157 207.418C123.656 206.981 123.115 207.522 123.219 207.355C123.323 207.168 123.115 207.958 123.24 207.293C123.302 206.918 123.24 207.938 123.198 207.334C123.24 207.917 123.531 208.25 124.009 208.603C125.216 209.102 126.048 208.978 126.547 208.25C126.672 208.062 126.651 208.104 126.485 208.374C126.069 209.123 126.672 207.792 126.297 208.77C126.173 209.102 126.048 209.435 125.985 209.768C125.985 209.726 125.985 209.664 125.985 209.622C125.985 210.038 125.985 210.08 125.944 209.726C125.902 209.643 125.861 209.56 125.819 209.477C125.985 209.747 126.006 209.789 125.881 209.602C125.382 209.248 124.987 208.998 124.321 209.186C124.072 209.186 123.885 209.29 123.739 209.477C123.801 209.414 123.885 209.352 123.947 209.29C124.176 209.019 124.197 209.04 123.968 209.31C124.009 209.227 124.072 209.165 124.113 209.082C124.28 208.77 124.28 208.77 124.134 209.102C124.155 209.019 124.197 208.936 124.217 208.853C124.259 208.686 124.342 207.958 124.321 208.645C124.342 208.374 124.321 208.125 124.321 207.854C124.321 208.395 124.301 207.938 124.259 207.646C124.176 207.126 124.405 207.771 124.238 207.542C124.176 207.418 124.113 207.314 124.051 207.189C124.28 207.459 124.28 207.459 124.051 207.189C125.32 207.355 126.568 207.522 127.837 207.667C127.712 207.75 127.129 208.187 127.608 207.75C127.441 207.896 127.317 208.083 127.15 208.208C126.921 208.374 127.317 207.834 127.088 208.312C127.025 208.458 126.776 209.123 126.942 208.499C126.88 208.686 126.859 208.957 126.755 209.123C126.609 209.394 126.734 208.645 126.734 209.186C126.734 209.352 126.838 210.08 126.693 209.394C126.755 209.643 126.817 209.893 126.901 210.142C126.173 209.414 125.445 208.686 124.717 207.958C124.28 207.875 124.613 207.917 124.883 207.938C125.153 207.958 124.696 207.958 124.529 208.062C124.176 208.291 124.009 208.832 124.093 209.227C124.238 210.018 125.195 210.766 125.985 210.746C126.277 210.746 126.505 210.642 126.755 210.517C126.318 210.704 126.817 210.475 126.984 210.288C127.15 210.08 127.233 209.851 127.275 209.602C127.358 209.061 127.15 208.624 126.838 208.229C127.129 208.603 126.734 208.25 126.589 208.125C126.173 207.792 126.963 208.354 126.485 208.125C126.235 208.104 126.256 208.104 126.547 208.125C126.422 208.146 126.318 208.166 126.193 208.187C126.277 208.166 126.339 208.146 126.422 208.125C126.131 208.27 126.069 208.27 126.277 208.166C126.505 208.146 126.173 208.312 126.297 208.125C126.485 207.875 126.173 208.437 126.401 207.958C126.651 207.459 126.401 208.083 126.485 207.771C126.547 207.584 126.589 207.397 126.63 207.21C126.672 207.002 126.672 207.022 126.63 207.251C126.63 207.147 126.651 207.043 126.651 206.939C126.651 206.731 126.651 206.502 126.651 206.294C126.672 206.773 126.63 206.128 126.589 206.003C126.526 205.754 126.464 205.483 126.36 205.234C126.464 205.504 126.401 205.275 126.318 205.171C127.899 206.419 129.022 206.565 129.688 205.608C129.771 205.483 129.771 205.504 129.646 205.67C129.521 205.899 129.334 206.128 129.189 206.357C128.939 206.773 128.689 207.21 128.481 207.646C128.419 207.771 128.19 208.333 128.336 207.958C128.253 208.166 128.19 208.374 128.107 208.582C127.941 209.102 127.795 209.622 127.691 210.163C127.649 210.371 127.608 210.6 127.587 210.808C127.649 210.267 127.566 211.286 127.566 211.286C125.632 210.766 123.697 210.246 121.742 209.706C122.013 209.269 121.659 210.101 121.659 210.288C121.68 209.581 121.763 211.016 121.659 210.309C121.701 210.621 121.909 210.766 121.638 210.392C121.409 210.08 121.992 210.87 121.638 210.434C121.389 210.205 121.409 210.226 121.742 210.496C121.68 210.454 121.617 210.413 121.555 210.371C120.827 210.205 122.2 210.538 121.472 210.35C121.825 210.454 121.971 210.309 121.534 210.371C121.285 210.392 121.389 210.371 121.805 210.33C121.534 210.413 121.513 210.434 121.742 210.35C121.971 210.267 121.95 210.288 121.701 210.413C121.784 210.35 121.867 210.267 121.95 210.205C121.784 210.371 121.493 210.829 121.805 210.267C121.68 210.475 121.555 210.683 121.451 210.891C121.638 210.517 121.576 210.6 121.472 210.954C121.368 211.307 121.368 211.39 121.409 210.974C121.389 211.224 121.389 211.474 121.368 211.723C121.326 212.451 121.201 211.182 121.368 211.89C121.43 212.139 121.493 212.368 121.576 212.597C120.057 211.973 118.518 211.349 117 210.725C117.145 210.662 117.27 210.6 117.395 210.517C117.686 210.33 117.645 210.371 117.291 210.621C117.561 210.309 117.582 210.226 117.353 210.6C117.499 210.35 117.686 209.622 117.52 210.371C117.541 210.267 117.728 209.394 117.665 209.934C117.582 210.517 117.707 209.498 117.645 209.477C117.728 209.934 117.728 209.997 117.665 209.664C117.645 209.56 117.624 209.456 117.582 209.352C117.52 209.123 117.541 209.206 117.707 209.602C117.645 209.477 117.582 209.352 117.499 209.227C117.79 209.56 117.811 209.602 117.582 209.352C117.478 209.248 117.374 209.144 117.249 209.061C118.269 209.331 119.267 209.602 120.286 209.872C120.286 209.872 119.537 210.142 119.933 209.976C120.328 209.81 119.704 210.101 119.621 210.142C119.433 210.246 119.267 210.371 119.101 210.475C118.768 210.662 119.558 210.018 119.038 210.538C118.913 210.662 118.789 210.766 118.685 210.891C118.664 210.912 118.206 211.494 118.435 211.162C118.685 210.808 118.289 211.411 118.248 211.474C118.144 211.64 118.061 211.869 117.936 212.035C117.707 212.326 118.123 211.432 117.894 212.118C117.832 212.285 117.79 212.43 117.728 212.597C117.686 212.784 117.665 213.054 117.582 213.221C117.437 213.512 117.582 212.701 117.582 213.262C117.582 213.47 117.582 213.678 117.561 213.886C117.561 214.074 117.665 214.635 117.52 213.928C117.603 214.344 117.707 214.739 117.853 215.155C116.334 214.531 114.795 213.907 113.277 213.283C113.942 212.846 113.089 213.533 113.401 213.2C113.547 213.034 113.734 212.888 113.88 212.742C114.441 212.202 113.651 213.179 114.067 212.534C114.171 212.389 114.254 212.243 114.358 212.077C114.421 211.973 114.712 211.224 114.504 211.848C114.587 211.64 114.649 211.432 114.712 211.203C114.774 210.995 114.816 210.766 114.857 210.538C114.774 210.974 114.837 210.746 114.837 210.434C114.837 210.205 114.837 209.997 114.837 209.768C114.837 209.186 114.941 209.997 114.816 209.664C114.753 209.456 114.691 209.227 114.649 209.019C114.753 209.518 114.691 209.082 114.566 208.894C114.441 208.686 114.233 208.374 114.504 208.749C114.275 208.541 114.254 208.499 114.421 208.645C114.608 208.77 114.566 208.77 114.296 208.603C114.483 208.686 114.629 208.749 114.837 208.79C115.169 208.728 115.232 208.728 115.003 208.79C114.795 208.853 114.837 208.832 115.128 208.749C115.045 208.79 114.961 208.853 114.899 208.894C115.107 208.728 115.149 208.707 114.982 208.874C114.92 208.957 114.483 209.435 114.795 209.019C114.483 209.414 114.233 209.872 114.005 210.33C113.693 210.954 113.422 211.806 113.193 212.888C112.985 213.824 113.214 212.347 113.131 213.325C113.11 213.533 113.089 213.741 113.089 213.97C113.069 214.552 113.089 215.134 113.131 215.717C113.173 216.278 112.985 215.03 113.173 215.987C113.214 216.237 113.277 216.507 113.339 216.757C113.401 217.006 113.485 217.277 113.547 217.526C113.568 217.63 113.88 218.442 113.693 217.963C112.049 217.755 110.427 217.547 108.784 217.339C109.054 217.09 109.325 216.819 109.574 216.549C109.657 216.466 110.385 215.592 109.99 216.112C110.448 215.53 110.843 214.885 111.197 214.219C111.363 213.886 111.529 213.554 111.675 213.221C111.467 213.72 111.717 213.096 111.779 212.93C112.029 212.222 112.216 211.494 112.361 210.766C112.403 210.579 112.424 210.392 112.465 210.205C112.424 210.579 112.424 210.579 112.465 210.205C112.486 209.83 112.528 209.456 112.549 209.082C112.569 208.416 112.528 207.771 112.486 207.126C112.445 206.752 112.445 206.752 112.486 207.126C112.465 206.939 112.424 206.752 112.382 206.586C112.32 206.211 112.216 205.858 112.112 205.504C112.008 205.15 111.883 204.797 111.758 204.443C111.633 204.11 111.633 204.09 111.758 204.402C111.675 204.235 111.592 204.069 111.509 203.902C113.152 204.11 114.774 204.318 116.417 204.526C116.043 204.859 115.71 205.192 115.377 205.566C115.357 205.587 114.774 206.315 115.128 205.858C114.982 206.045 114.837 206.253 114.712 206.461C114.441 206.877 114.192 207.293 113.963 207.73C113.859 207.958 113.734 208.166 113.651 208.395C113.901 207.834 113.547 208.707 113.526 208.749C113.36 209.206 113.235 209.685 113.131 210.163C113.069 210.413 113.048 210.642 112.985 210.891C112.902 211.245 113.006 210.496 112.965 211.078C112.923 211.619 112.902 212.16 112.923 212.701C112.923 212.95 112.944 213.2 112.965 213.429C113.006 214.115 112.881 213.034 113.027 213.762C113.318 215.363 112.59 217.194 110.843 217.61C109.325 217.963 107.307 217.152 106.995 215.426C105.997 209.83 107.744 203.965 112.008 200.117C113.401 198.869 115.981 198.848 116.917 200.741C120.286 207.667 118.934 216.445 113.214 221.749C111.904 222.976 109.137 223.059 108.305 221.125C106.829 217.693 106.392 213.99 107.39 210.33C108.305 206.939 110.635 202.842 114.566 202.613C118.643 202.384 121.014 206.482 121.097 210.101C121.181 213.595 119.329 216.84 116.438 218.733C114.629 219.918 112.507 218.65 111.862 216.861C110.011 211.765 113.152 205.816 118.144 204.048C121.638 202.821 123.843 206.814 123.885 209.768C123.905 212.326 122.533 215.072 120.141 216.195C118.248 217.069 116.251 216.362 115.565 214.323C114.233 210.371 116.209 204.88 120.785 204.277C125.32 203.674 129.729 208.624 127.171 212.93C125.653 215.467 121.16 214.552 121.347 211.349C121.472 209.227 121.929 207.272 122.782 205.338C123.51 203.653 124.571 201.594 126.173 200.637C127.4 199.909 128.877 199.867 130.145 200.533C131.269 201.136 131.83 202.259 132.288 203.382C133.037 205.234 133.141 207.48 132.579 209.394C131.976 211.411 130.645 213.2 128.669 214.032C126.672 214.885 124.425 214.448 122.761 213.075C121.035 211.64 120.577 209.061 121.701 207.126C122.741 205.338 125.07 204.152 127.109 204.776C129.979 205.65 130.998 208.915 129.709 211.494C128.461 213.97 125.549 214.552 123.053 214.053C121.971 213.845 121.201 212.867 120.869 211.869C119.683 208.312 121.368 204.131 124.654 202.342C125.819 201.698 127.504 201.781 128.44 202.821C131.435 206.17 131.269 211.536 127.629 214.344C125.299 216.133 122.096 215.342 120.577 212.909C119.142 210.6 119.87 207.938 120.931 205.65C122.075 203.195 124.904 201.843 127.337 203.403C129.625 204.859 129.896 208 128.773 210.267C126.963 213.886 121.597 215.259 118.601 212.264C116.979 210.642 116.501 208.291 116.958 206.086C117.437 203.84 119.08 202.176 121.181 201.427C122.47 200.97 124.03 201.739 124.696 202.862C126.672 206.149 126.672 210.621 124.529 213.845C123.344 215.613 121.576 217.235 119.392 217.568C116.709 217.984 114.109 216.57 113.339 213.866C112.653 211.453 114.275 208.79 116.729 208.312C119.225 207.834 121.68 209.102 122.553 211.515C123.323 213.658 122.637 216.133 121.077 217.755C119.288 219.606 116.064 220.147 114.129 218.234C112.029 216.154 112.757 212.971 114.067 210.683C115.169 208.79 116.896 207.168 118.913 206.294C121.243 205.296 123.281 206.502 123.614 208.998C124.03 212.264 122.221 215.426 119.517 217.152C117.707 218.317 115.565 217.09 114.941 215.28C114.67 214.51 114.4 213.762 114.129 212.992C113.589 211.453 114.753 209.518 116.313 209.144C118.081 208.645 119.579 209.56 120.161 211.224Z" fill="#E65EEA"/>
<path d="M249.971 147.645C230.633 131.302 222.35 109.304 231.471 98.5121C240.591 87.7199 263.662 92.2197 283 108.563C302.338 124.906 310.621 146.903 301.501 157.696C292.38 168.488 269.309 163.988 249.971 147.645Z" fill="#E65EEA"/>
<path d="M164.052 159.379C149.515 149.873 143.19 133.819 149.923 123.523C156.657 113.226 173.899 112.586 188.436 122.092C202.972 131.598 209.297 147.651 202.564 157.948C195.83 168.244 178.588 168.885 164.052 159.379Z" fill="#E65EEA"/>
<path d="M153.961 278.116C147.228 267.82 153.553 251.767 168.089 242.261C182.625 232.754 199.868 233.395 206.601 243.692C213.335 253.988 207.01 270.041 192.473 279.548C177.937 289.054 160.695 288.413 153.961 278.116Z" fill="#E65EEA"/>
<path d="M252.72 264.16C179.774 264.16 120.64 234.36 120.64 197.6C120.64 160.84 179.774 131.04 252.72 131.04C325.666 131.04 384.8 160.84 384.8 197.6C384.8 234.36 325.666 264.16 252.72 264.16Z" fill="#EF89EF"/>
<path d="M355.41 210.163C362.086 221.458 369.242 235.04 363.709 248.29C362.565 251.035 360.922 253.864 357.989 254.966C355.056 256.069 351.978 254.883 349.939 252.616C345.738 247.957 344.386 240.739 344.24 234.666C344.053 227.219 345.675 219.835 347.36 212.618C348.275 208.707 354.286 210.371 353.371 214.282C351.853 220.75 350.397 227.302 350.48 233.979C350.522 237.058 350.896 240.115 351.853 243.069C352.248 244.338 353.808 249.309 355.722 249.184C356.699 249.122 357.594 246.854 357.906 246.126C358.509 244.733 358.925 243.194 359.174 241.696C359.674 238.638 359.466 235.435 358.8 232.419C357.282 225.493 353.6 219.336 350.043 213.304C347.984 209.851 353.371 206.69 355.41 210.163Z" fill="#49FCFC"/>
<path d="M350.022 227.76C348.691 226.262 348.254 224.557 348.65 222.602C349.253 219.648 354.078 219.606 354.661 222.602C355.118 224.91 355.555 227.24 356.013 229.549C354.016 230.11 351.998 230.651 350.002 231.213C349.544 228.426 349.107 225.638 348.65 222.851C348.379 221.187 349.086 219.502 350.834 219.003C352.414 218.566 354.286 219.544 354.682 221.187C355.846 226.158 356.99 231.109 358.155 236.08C356.117 236.35 354.078 236.642 352.019 236.912C351.811 233.626 351.333 230.381 350.605 227.157C349.71 223.226 355.306 221.707 356.616 225.493C358.134 229.861 359.091 234.354 359.653 238.93C357.614 238.659 355.576 238.368 353.517 238.098C354.099 236.579 354.203 235.227 353.725 233.667C355.722 233.667 357.739 233.667 359.736 233.667C359.278 236.725 359.528 239.886 360.298 242.861C358.405 242.611 356.491 242.362 354.598 242.112C354.806 241.779 354.64 241.883 354.64 242.091C354.64 242.299 354.661 242.528 354.682 242.736C354.702 242.944 354.494 242.57 354.661 242.694C354.827 242.819 354.89 242.986 355.118 243.069C356.283 242.59 357.469 242.112 358.634 241.634C358.322 242.237 358.218 242.923 358.301 243.485C358.592 245.149 357.864 246.834 356.117 247.333C356.866 247.125 357.157 246.189 356.803 245.544C358.176 247.998 355.93 250.702 353.288 250.12C349.939 249.392 348.504 246.022 348.067 242.965C347.506 239.013 347.048 235.019 346.549 231.046C346.341 229.382 348.13 227.926 349.669 227.926C351.541 227.926 352.581 229.362 352.789 231.046C353.184 234.104 353.558 237.141 353.954 240.198C354.099 241.259 354.162 242.174 354.474 243.214C354.474 243.214 354.744 243.963 354.661 243.755C354.557 243.547 354.952 244.213 354.931 244.213C354.765 243.922 354.848 244.15 355.014 244.254C354.806 244.13 354.39 243.963 354.952 244.067C353.787 245.586 352.602 247.125 351.437 248.643C349.856 245.794 351.291 242.154 354.474 241.259C353.746 242.549 353.018 243.818 352.29 245.107C351.853 242.736 352.123 240.594 353.246 238.451C353.87 237.245 355.493 236.642 356.762 237.016C360.152 237.994 361.982 242.195 359.965 245.232C358.53 247.395 354.952 247.208 354.266 244.483C353.205 240.344 353.08 236.184 353.704 231.962C353.891 230.63 355.472 229.674 356.72 229.674C358.114 229.674 359.341 230.651 359.736 231.962C360.485 234.499 360.443 237.224 359.528 239.72C358.987 241.176 357.718 242.195 356.096 241.946C354.453 241.696 353.579 240.469 353.392 238.888C352.893 234.874 351.894 230.922 350.584 227.115C352.581 226.554 354.598 226.013 356.595 225.451C357.448 229.195 357.989 233.022 358.238 236.87C358.467 240.386 352.914 241.114 352.102 237.702C350.938 232.731 349.794 227.781 348.629 222.81C350.626 222.248 352.643 221.707 354.64 221.146C355.098 223.933 355.534 226.72 355.992 229.507C356.262 231.171 355.555 232.856 353.808 233.355C352.29 233.771 350.293 232.835 349.96 231.171C349.502 228.862 349.066 226.533 348.608 224.224C350.605 224.224 352.622 224.224 354.619 224.224C354.682 223.954 354.578 223.538 354.39 223.309C355.514 224.557 355.638 226.491 354.39 227.718C353.288 228.904 351.146 229.029 350.022 227.76Z" fill="#49FCFC"/>
<path d="M358.446 223.246C358.488 223.954 358.55 224.661 358.654 225.347C358.613 225.077 358.571 224.786 358.55 224.515C358.738 225.909 359.029 227.282 359.424 228.654C357.427 228.654 355.41 228.654 353.413 228.654C353.579 227.968 353.704 227.282 353.787 226.574C353.746 226.845 353.704 227.136 353.683 227.406C353.891 225.784 353.954 224.162 353.829 222.518C355.909 222.518 357.989 222.518 360.069 222.518C359.965 223.642 359.986 224.765 360.131 225.867C360.09 225.597 360.048 225.306 360.027 225.035C360.131 225.805 360.298 226.554 360.526 227.302C358.488 227.573 356.45 227.864 354.39 228.134C354.349 227.781 354.307 227.427 354.266 227.074C354.307 227.344 354.349 227.635 354.37 227.906C354.203 226.72 353.995 225.534 353.704 224.37C353.517 223.579 353.6 222.685 354.016 221.957C354.39 221.312 355.139 220.688 355.888 220.522C356.678 220.334 357.573 220.376 358.301 220.834C358.966 221.27 359.549 221.894 359.736 222.706C360.173 224.494 360.464 226.304 360.651 228.134C360.734 228.842 360.256 229.861 359.736 230.339C359.216 230.818 358.634 231.109 357.947 231.192C356.408 231.4 354.973 230.464 354.515 228.966C353.891 226.907 353.642 224.661 353.85 222.518C353.933 221.666 354.141 220.938 354.765 220.314C355.306 219.773 356.2 219.357 356.97 219.398C357.781 219.44 358.613 219.69 359.174 220.314C359.757 220.958 360.027 221.666 360.09 222.518C360.277 225.118 360.027 227.76 359.445 230.318C359.299 230.963 358.842 231.546 358.322 231.941C357.802 232.357 357.115 232.648 356.429 232.606C355.035 232.544 353.829 231.67 353.413 230.318C352.747 228.03 352.352 225.638 352.227 223.246C352.186 222.477 352.602 221.582 353.142 221.042C353.683 220.501 354.578 220.085 355.347 220.126C356.158 220.168 356.99 220.418 357.552 221.042C358.114 221.666 358.405 222.394 358.446 223.246Z" fill="#49FCFC"/>
<path d="M359.57 224.224C359.694 224.89 359.798 225.597 359.736 226.283C359.674 226.97 359.59 227.677 359.341 228.322C359.237 228.738 359.05 229.091 358.779 229.382C358.55 229.715 358.259 229.986 357.906 230.194C357.552 230.422 357.157 230.547 356.741 230.568C356.325 230.651 355.909 230.651 355.493 230.506C355.243 230.402 354.994 230.298 354.744 230.194C354.266 229.923 353.912 229.549 353.621 229.07C353.517 228.821 353.413 228.571 353.309 228.322C353.163 227.76 353.163 227.219 353.309 226.658C353.434 226.325 353.517 225.992 353.579 225.638C353.538 225.909 353.496 226.2 353.475 226.47C353.517 226.096 353.517 225.701 353.475 225.326C353.517 225.597 353.558 225.888 353.579 226.158C353.558 226.075 353.558 225.992 353.538 225.888C353.413 225.472 353.392 225.056 353.475 224.64C353.496 224.224 353.621 223.829 353.85 223.475C354.037 223.122 354.307 222.81 354.661 222.602C354.952 222.331 355.306 222.144 355.722 222.04C355.992 221.998 356.283 221.957 356.554 221.936C357.115 221.936 357.635 222.082 358.134 222.352C358.342 222.518 358.55 222.685 358.758 222.83C359.154 223.246 359.424 223.704 359.57 224.224Z" fill="#49FCFC"/>
<path d="M347.506 211.661C347.61 211.182 347.755 210.704 347.942 210.226C348.234 209.518 348.504 208.832 348.899 208.187C349.086 207.834 349.357 207.522 349.71 207.314C350.002 207.043 350.355 206.856 350.771 206.752C351.187 206.627 351.603 206.606 352.019 206.69C352.435 206.71 352.83 206.835 353.184 207.064C353.392 207.23 353.6 207.397 353.808 207.542C354.203 207.938 354.453 208.395 354.619 208.915C354.661 209.186 354.702 209.477 354.723 209.747C354.723 210.309 354.578 210.829 354.307 211.328C354.078 211.702 353.87 212.077 353.704 212.472C353.808 212.222 353.912 211.973 354.016 211.723C353.808 212.222 353.642 212.742 353.538 213.283C353.434 213.699 353.246 214.053 352.976 214.344C352.747 214.677 352.456 214.947 352.102 215.155C351.749 215.384 351.354 215.509 350.938 215.53C350.522 215.613 350.106 215.613 349.69 215.467C349.44 215.363 349.19 215.259 348.941 215.155C348.462 214.885 348.109 214.51 347.818 214.032C347.714 213.782 347.61 213.533 347.506 213.283C347.36 212.784 347.36 212.222 347.506 211.661Z" fill="#49FCFC"/>
<path d="M355.493 191.152C355.784 190.882 355.618 190.798 355.347 191.402C355.389 191.298 355.472 191.173 355.534 191.09C355.139 191.714 355.264 191.734 355.368 191.36C355.514 190.861 355.347 192.234 355.326 191.693C355.326 191.568 355.306 191.443 355.306 191.318C355.285 192.192 355.41 191.984 355.326 191.651C355.222 191.298 355.035 191.277 355.472 191.922C355.43 191.859 355.202 191.547 355.222 191.485C355.222 191.485 355.763 192.15 355.472 191.838C355.118 191.464 356.179 192.254 355.722 192.026C355.306 191.797 355.555 192.109 356.013 192.13C355.971 192.109 355.93 192.109 355.888 192.088C355.555 192.026 355.68 192.026 356.242 192.13C356.179 192.13 356.138 192.13 356.075 192.13C355.742 192.15 355.867 192.13 356.429 192.067C356.346 192.109 356.054 192.192 355.971 192.192C356.117 192.13 356.262 192.067 356.408 192.005C356.304 192.046 356.221 192.109 356.117 192.15C356.013 192.213 355.93 192.275 355.846 192.338C356.262 192.005 356.346 191.963 356.096 192.171C356.013 192.275 355.909 192.379 355.805 192.483C355.534 192.754 356.2 191.797 355.95 192.317C355.909 192.4 355.763 192.774 355.701 192.795C355.763 192.67 355.805 192.525 355.867 192.4C355.826 192.525 355.784 192.65 355.742 192.774C355.68 192.962 355.659 193.149 355.618 193.336C355.451 194.002 355.659 192.587 355.618 193.274C355.597 193.731 355.576 194.189 355.576 194.646C355.576 194.938 355.659 195.25 355.618 195.541C355.701 194.834 355.514 194.979 355.618 195.374C355.68 195.624 355.93 196.061 355.534 195.229C355.555 195.27 355.597 195.312 355.618 195.374C355.451 195.083 355.222 194.854 354.931 194.688C355.41 194.979 354.162 194.48 354.702 194.605C354.515 194.584 354.328 194.563 354.162 194.542C354.266 194.542 354.349 194.563 354.453 194.542C353.87 194.646 353.746 194.646 354.058 194.584C354.162 194.563 354.245 194.542 354.349 194.501C354.203 194.563 354.037 194.626 353.891 194.688C353.974 194.646 354.078 194.584 354.162 194.542C354.037 194.646 353.912 194.75 353.766 194.854C353.85 194.792 353.912 194.73 353.995 194.646C354.266 194.418 353.808 194.563 353.829 194.875C353.829 194.834 354.058 194.438 354.078 194.418C354.016 194.563 353.954 194.688 353.912 194.834C353.954 194.73 353.995 194.605 354.016 194.501C354.078 194.334 354.12 194.147 354.141 193.981C354.182 193.814 354.182 193.606 354.245 193.44C354.182 193.96 354.162 194.064 354.203 193.731C354.224 193.606 354.224 193.482 354.245 193.378C354.286 192.982 354.286 192.587 354.286 192.192C354.286 191.526 354.411 192.754 354.307 192.338C354.182 191.942 354.661 192.92 354.411 192.504C354.162 192.13 354.182 192.421 354.598 192.733C354.578 192.712 354.536 192.67 354.515 192.65C354.286 192.442 354.411 192.525 354.869 192.899C354.765 192.858 354.64 192.774 354.557 192.712C355.118 192.941 355.243 193.003 354.952 192.899C354.869 192.878 354.786 192.858 354.702 192.837C354.182 192.691 355.576 192.878 355.035 192.878C354.91 192.878 354.765 192.878 354.64 192.878C354.099 192.878 355.472 192.691 354.952 192.837C354.869 192.858 354.786 192.878 354.682 192.899C354.557 192.941 354.432 192.982 354.286 193.024C355.098 192.816 354.827 192.774 354.536 192.941C354.411 193.003 354.307 193.086 354.203 193.149C354.661 192.795 354.765 192.712 354.515 192.92C354.453 192.982 354.39 193.045 354.328 193.107C353.933 193.461 354.765 192.421 354.432 192.962C354.349 193.107 354.245 193.253 354.162 193.419C354.141 193.461 354.099 193.523 354.078 193.565C353.933 193.856 353.974 193.773 354.182 193.294C354.182 193.44 354.058 193.648 354.016 193.794C353.933 194.085 353.891 194.355 353.829 194.646C353.704 195.291 353.891 193.856 353.85 194.522C353.829 194.771 353.808 195 353.787 195.25C353.746 195.957 353.787 196.685 353.766 197.392C353.766 197.995 353.6 196.768 353.725 197.163C353.829 197.454 353.974 197.6 353.621 196.955C353.517 196.83 353.434 196.706 353.33 196.581C352.872 196.269 352.789 196.186 353.059 196.352C352.539 196.144 352.435 196.102 352.726 196.186C352.144 196.123 352.019 196.102 352.352 196.123C352.955 196.123 351.562 196.331 352.144 196.165C352.29 196.123 352.456 196.082 352.602 196.04C353.184 195.874 351.936 196.394 352.477 196.102C352.622 196.019 352.768 195.936 352.914 195.853C353.142 195.707 353.434 195.354 352.83 195.957C352.914 195.874 352.997 195.811 353.08 195.749C353.205 195.645 353.309 195.52 353.434 195.395C353.642 195.146 353.579 195.229 353.267 195.645C353.33 195.562 353.392 195.458 353.454 195.374C353.538 195.229 353.621 195.083 353.704 194.938C353.995 194.418 353.496 195.666 353.642 195.083C353.683 194.938 353.704 194.73 353.766 194.605C353.746 194.771 353.725 194.938 353.704 195.104C353.725 195 353.725 194.875 353.725 194.771C353.725 194.709 353.725 194.667 353.725 194.605C353.704 194.272 353.725 194.397 353.787 194.958C353.725 194.834 353.704 194.626 353.662 194.501C353.579 194.189 353.454 194.459 353.787 194.792C353.683 194.688 353.517 194.376 353.454 194.23C353.725 194.854 353.787 194.646 353.517 194.376C353.475 194.334 353.434 194.293 353.392 194.272C353.142 194.064 353.226 194.126 353.642 194.459C353.558 194.438 353.309 194.293 353.226 194.23C353.371 194.293 353.538 194.355 353.683 194.418C353.579 194.376 353.496 194.355 353.392 194.314C352.851 194.126 354.182 194.293 353.6 194.334C353.538 194.334 353.496 194.334 353.434 194.334C353.101 194.355 353.226 194.334 353.808 194.272C353.725 194.314 353.579 194.355 353.475 194.355C353.267 194.376 354.266 193.939 353.683 194.272C353.392 194.438 353.309 194.667 353.891 194.085C353.808 194.168 353.704 194.251 353.6 194.355C353.392 194.584 353.309 194.875 353.746 194.126C353.683 194.251 353.6 194.355 353.517 194.459C353.454 194.584 353.392 194.709 353.309 194.813C353.038 195.312 353.579 194.043 353.392 194.584C353.288 194.854 353.205 195.125 353.142 195.416C353.059 195.728 353.018 196.747 353.08 195.603C353.059 195.894 353.018 196.186 353.018 196.477C353.018 196.768 353.018 197.08 353.038 197.371C353.038 197.434 353.038 197.496 353.059 197.558C353.101 197.891 353.08 197.787 353.018 197.267C353.08 197.454 353.101 197.683 353.142 197.87C353.288 198.349 353.33 197.912 353.038 197.704C353.059 197.746 353.101 197.808 353.122 197.85C353.309 198.12 353.226 198.058 352.914 197.642C352.955 197.683 352.976 197.725 353.018 197.746C353.246 197.954 353.163 197.891 352.726 197.558C352.83 197.6 353.038 197.725 353.122 197.787C352.976 197.725 352.81 197.662 352.664 197.6C352.768 197.642 352.851 197.662 352.955 197.683C353.517 197.87 352.144 197.662 352.747 197.662C352.914 197.662 353.059 197.662 353.226 197.662C353.787 197.662 352.352 197.787 353.163 197.642C353.642 197.558 352.872 197.787 352.851 197.787C352.997 197.746 353.184 197.621 353.309 197.538C353.35 197.496 353.413 197.475 353.454 197.434C353.725 197.246 353.642 197.309 353.246 197.6C353.309 197.475 353.538 197.33 353.621 197.246C353.746 197.122 353.85 196.955 353.974 196.851C353.891 196.976 353.787 197.08 353.704 197.205C353.766 197.101 353.829 197.018 353.912 196.914C354.016 196.768 354.099 196.602 354.182 196.456C354.245 196.352 354.286 196.248 354.349 196.144C354.474 195.853 354.453 195.936 354.266 196.394C354.286 196.061 354.557 195.603 354.64 195.27C354.661 195.166 354.702 194.75 354.765 194.688C354.702 195.187 354.682 195.27 354.723 194.938C354.744 194.813 354.744 194.667 354.744 194.542C354.744 194.355 354.723 194.147 354.723 193.96C354.682 193.627 354.702 193.71 354.765 194.21C354.744 194.085 354.723 193.96 354.682 193.835C354.661 193.773 354.64 193.71 354.619 193.648C354.515 193.315 354.536 193.398 354.744 193.877C354.619 193.71 354.536 193.482 354.432 193.294C354.141 192.774 354.848 193.752 354.578 193.461C354.432 193.315 354.307 193.19 354.162 193.045C353.725 192.629 354.806 193.419 354.266 193.128C354.182 193.066 354.078 193.024 353.974 192.962C353.683 192.816 353.787 192.858 354.266 193.086C354.141 193.086 353.933 192.982 353.808 192.962C353.288 192.816 354.661 193.024 353.829 193.003C353.226 192.982 354.578 192.816 354.058 192.982C353.974 193.003 353.891 193.024 353.808 193.045C353.517 193.149 353.642 193.086 354.203 192.878C354.141 192.92 354.058 192.962 353.974 193.003C353.642 193.19 353.517 193.523 354.099 192.878C354.016 192.962 353.912 193.045 353.829 193.128C353.33 193.648 354.182 192.566 353.912 192.982C353.746 193.253 353.621 193.523 353.454 193.794C353.912 192.982 353.662 193.274 353.558 193.565C353.496 193.752 353.434 193.918 353.392 194.106C353.309 194.376 353.246 194.667 353.205 194.958C353.184 195.104 353.163 195.25 353.142 195.395C353.35 194.314 353.184 195.021 353.163 195.291C353.101 195.957 353.101 196.643 353.122 197.309C353.184 198.931 351.645 200.512 350.002 200.429C348.254 200.346 346.965 199.056 346.882 197.309C346.715 193.315 347.838 188.573 352.019 187.096C354.494 186.222 357.49 187.242 359.112 189.259C360.984 191.568 361.4 194.605 360.506 197.413C359.757 199.805 358.238 202.197 355.867 203.258C353.018 204.526 349.669 203.902 347.859 201.24C347.069 200.075 346.84 198.598 346.778 197.205C346.715 196.206 346.84 195.187 347.027 194.189C347.422 192.088 348.608 189.946 350.501 188.885C352.955 187.491 356.138 188.011 358.03 190.112C359.091 191.298 359.694 192.67 359.861 194.251C360.006 195.562 359.611 196.872 359.029 198.037C357.906 200.283 355.493 201.926 353.038 202.259C351.187 202.509 349.315 201.843 348.275 200.242C347.506 199.077 347.464 197.683 347.464 196.331C347.464 194.002 347.734 191.443 349.19 189.509C350.709 187.491 353.08 186.368 355.638 186.701C358.634 187.096 360.526 189.571 360.485 192.566C360.443 195.312 359.757 198.286 357.323 199.888C356.096 200.699 354.432 201.011 353.018 200.616C351.333 200.158 350.126 198.827 349.627 197.184C349.274 196.061 349.274 194.75 349.336 193.586C349.44 192.088 349.731 190.632 350.459 189.322C351.832 186.888 354.869 185.266 357.635 186.139C360.048 186.888 361.754 189.446 361.504 191.984C361.379 193.357 360.901 194.646 359.882 195.603C358.675 196.706 356.637 196.872 355.472 195.603C354.39 194.355 354.224 192.338 355.493 191.152Z" fill="white"/>
<path d="M339.622 205.899C339.414 205.691 339.227 205.504 339.019 205.296C337.501 203.882 336.419 202.218 335.795 200.283C334.818 198.432 334.381 196.414 334.443 194.272C334.36 192.13 334.818 190.112 335.795 188.261C336.419 186.326 337.501 184.662 339.019 183.248C340.08 182.437 341.12 181.626 342.181 180.814C344.614 179.4 347.235 178.693 350.064 178.693C351.437 178.88 352.83 179.067 354.203 179.254C356.845 180.003 359.133 181.334 361.088 183.269C361.296 183.477 361.483 183.664 361.691 183.872C363.21 185.286 364.291 186.95 364.915 188.885C365.893 190.736 366.33 192.754 366.267 194.896C366.35 197.038 365.893 199.056 364.915 200.907C364.291 202.842 363.21 204.506 361.691 205.92C360.63 206.731 359.59 207.542 358.53 208.354C356.096 209.768 353.475 210.475 350.646 210.475C349.274 210.288 347.88 210.101 346.507 209.914C343.866 209.186 341.557 207.834 339.622 205.899Z" fill="white"/>
<path d="M350.043 200.512C342.014 200.512 341.994 188.032 350.043 188.032C358.072 188.032 358.093 200.512 350.043 200.512Z" fill="black"/>
<path d="M350.646 191.069C350.854 191.069 351.042 191.069 351.25 191.069C351.354 191.069 351.458 191.09 351.541 191.131C351.645 191.173 351.728 191.214 351.79 191.298C351.874 191.36 351.915 191.443 351.957 191.547C351.998 191.63 352.019 191.734 352.019 191.838C352.019 191.901 351.998 191.984 351.998 192.046C351.957 192.171 351.894 192.296 351.79 192.4C351.728 192.442 351.686 192.483 351.624 192.525C351.499 192.587 351.374 192.629 351.229 192.629C351.021 192.629 350.834 192.629 350.626 192.629C350.522 192.629 350.418 192.608 350.334 192.566C350.23 192.525 350.147 192.483 350.085 192.4C350.002 192.338 349.96 192.254 349.918 192.15C349.877 192.067 349.856 191.963 349.856 191.859C349.856 191.797 349.877 191.714 349.877 191.651C349.918 191.526 349.981 191.402 350.085 191.298C350.147 191.256 350.189 191.214 350.251 191.173C350.376 191.11 350.501 191.069 350.646 191.069Z" fill="black"/>
<path d="M352.955 193.565C352.747 193.773 352.56 193.96 352.352 194.168C352.206 194.314 352.04 194.418 351.853 194.501C351.665 194.605 351.457 194.646 351.249 194.626C351.041 194.626 350.833 194.584 350.646 194.501C350.459 194.438 350.293 194.334 350.147 194.168C350.064 194.064 349.981 193.96 349.897 193.856C349.752 193.606 349.689 193.357 349.689 193.066C349.71 192.92 349.731 192.795 349.752 192.65C349.835 192.379 349.96 192.15 350.147 191.963C350.355 191.755 350.542 191.568 350.75 191.36C350.896 191.214 351.062 191.11 351.249 191.027C351.437 190.923 351.645 190.882 351.853 190.902C352.061 190.902 352.269 190.944 352.456 191.027C352.643 191.09 352.809 191.194 352.955 191.36C353.038 191.464 353.121 191.568 353.205 191.672C353.35 191.922 353.413 192.171 353.413 192.462C353.392 192.608 353.371 192.733 353.35 192.878C353.288 193.128 353.163 193.357 352.955 193.565Z" fill="#FFF0FF"/>
<path d="M116.48 192.982C108.618 193.606 100.942 188.344 98.4464 180.918C97.8016 179.005 100.818 178.194 101.462 180.086C103.542 186.264 110.032 190.362 116.501 189.862C117.333 189.8 118.061 190.632 118.061 191.422C118.04 192.338 117.312 192.92 116.48 192.982Z" fill="#E432ED"/>
<path d="M113.485 205.608C106.413 205.67 99.3408 204.859 92.456 203.258C90.5008 202.8 91.3328 199.784 93.288 200.242C99.9233 201.802 106.683 202.55 113.485 202.488C115.502 202.467 115.502 205.587 113.485 205.608Z" fill="#E432ED"/>
<path d="M116.75 217.381C109.824 216.362 102.669 221.312 100.859 227.989C100.339 229.923 97.3232 229.112 97.8432 227.157C100.131 218.691 108.971 213.117 117.562 214.386C118.394 214.51 118.851 215.571 118.643 216.299C118.414 217.194 117.582 217.506 116.75 217.381Z" fill="#E432ED"/>
<path d="M193.565 264.784C188.801 270.192 181.792 273.395 174.595 273.52C172.577 273.562 172.577 270.442 174.595 270.4C181.022 270.275 187.117 267.384 191.36 262.579C192.691 261.061 194.896 263.286 193.565 264.784Z" fill="#E432ED"/>
<path d="M176.426 258.981C172.099 261.997 166.691 263.078 161.533 262.142C160.701 261.997 160.243 260.978 160.451 260.229C160.701 259.355 161.533 258.981 162.365 259.147C166.733 259.938 171.246 258.814 174.866 256.298C175.552 255.819 176.592 256.173 177.008 256.859C177.445 257.629 177.133 258.502 176.426 258.981Z" fill="#E432ED"/>
<path d="M180.981 134.722C177.133 128.814 170.082 125.445 163.072 125.944C161.075 126.09 161.075 122.97 163.072 122.824C171.184 122.242 179.254 126.36 183.685 133.162C184.787 134.826 182.083 136.386 180.981 134.722Z" fill="#E432ED"/>
<path d="M168.501 138.091C165.63 134.43 160.826 132.371 156.187 133.12C155.355 133.266 154.502 132.912 154.274 132.038C154.066 131.29 154.523 130.25 155.355 130.125C161.034 129.189 167.086 131.31 170.685 135.886C171.205 136.552 171.33 137.446 170.685 138.091C170.165 138.632 169.021 138.757 168.501 138.091Z" fill="#E432ED"/>
<path d="M277.389 123.115C270.899 115.752 263.203 107.182 252.533 107.286C250.515 107.307 250.515 104.187 252.533 104.166C264.119 104.042 272.501 112.861 279.594 120.91C280.925 122.408 278.72 124.613 277.389 123.115Z" fill="#E432ED"/>
<path d="M259.043 126.838C255.07 120.557 248.643 116.106 241.405 114.504C239.45 114.067 240.282 111.072 242.237 111.488C250.266 113.256 257.358 118.31 261.747 125.258C262.829 126.963 260.125 128.544 259.043 126.838Z" fill="#E432ED"/>
<path d="M347.422 226.408C347.714 223.6 347.984 220.813 348.275 218.005C348.379 216.986 348.67 216.195 349.502 215.55C350.23 214.989 351.312 214.656 352.227 214.989C353.662 215.53 354.827 216.216 355.992 217.214C356.803 217.922 357.094 219.253 356.803 220.251C356.574 220.958 356.366 221.686 356.138 222.394C355.909 223.163 355.41 223.85 354.702 224.266C354.037 224.661 353.038 224.827 352.29 224.578C350.73 224.078 349.586 222.414 350.106 220.73C350.334 220.022 350.542 219.294 350.771 218.587C351.042 219.606 351.312 220.605 351.582 221.624C351.437 221.499 351.291 221.374 351.146 221.27C351.354 221.437 351.562 221.603 351.77 221.749C351.291 221.374 350.771 221.083 350.21 220.834C350.459 220.938 350.709 221.042 350.958 221.146C350.834 221.083 350.709 221.042 350.563 221C351.874 220.002 353.205 219.003 354.515 217.984C354.224 220.792 353.954 223.579 353.662 226.387C353.579 227.24 353.371 227.968 352.747 228.592C352.206 229.133 351.312 229.549 350.542 229.507C349.731 229.466 348.899 229.216 348.338 228.592C347.818 228.03 347.339 227.219 347.422 226.408Z" fill="#49FCFC"/>
<path d="M299.645 218.005C292.469 233.438 283.358 251.389 265.034 255.216C257.629 256.755 248.456 255.507 243.693 248.997C238.846 242.362 240.947 233.293 243.921 226.346C248.227 216.341 255.07 207.75 261.81 199.285C263.058 197.725 265.262 199.93 264.014 201.49C258.856 207.958 253.677 214.49 249.641 221.77C246.105 228.155 242.195 236.6 244.629 244.026C247.27 252.117 257.296 253.76 264.597 252.117C272.21 250.411 278.72 245.606 283.65 239.699C289.39 232.814 293.197 224.536 296.941 216.445C297.794 214.614 300.477 216.195 299.645 218.005Z" fill="#E432ED"/>
<path d="M284.149 221.666C282.734 224.162 281.32 226.678 279.885 229.174C278.637 231.379 277.43 233.626 275.933 235.664C273.062 239.595 268.715 243.048 263.557 242.507C262.725 242.424 261.997 241.842 261.997 240.947C261.997 240.178 262.704 239.304 263.557 239.387C268.133 239.845 271.669 236.517 274.019 232.96C276.744 228.842 279.011 224.37 281.445 220.085C282.443 218.338 285.147 219.918 284.149 221.666Z" fill="#E432ED"/>
<path d="M269.942 218.234C267.842 226.803 262.6 234.374 255.382 239.429C253.739 240.594 252.179 237.89 253.802 236.725C260.354 232.128 265.034 225.16 266.926 217.381C267.405 215.446 270.421 216.278 269.942 218.234Z" fill="#E432ED"/>
<path d="M380.557 205.774C381.077 205.941 380.39 205.774 380.411 205.837C380.432 205.878 380.723 205.4 380.723 205.421C380.973 204.984 381.077 204.485 381.202 204.006C381.472 202.862 381.742 201.698 381.846 200.533C381.95 199.41 382.013 198.099 381.534 197.038C381.43 196.789 381.285 196.518 381.077 196.373C380.993 196.31 380.786 196.206 380.723 196.186C380.702 196.186 380.432 196.227 380.577 196.186C380.702 196.165 380.557 196.165 380.494 196.227C380.307 196.394 380.182 196.518 379.995 196.872C379.766 197.288 379.683 197.579 379.537 198.078C379.184 199.222 378.914 200.429 378.789 201.614C378.685 202.758 378.664 203.944 378.81 205.088C378.851 205.338 378.893 205.587 378.934 205.816C378.976 206.024 379.038 206.211 379.08 206.274C379.101 206.336 379.205 206.378 379.122 206.357C379.101 206.357 378.747 206.274 378.747 206.232C378.726 206.17 378.955 205.774 378.976 205.691C379.08 205.358 379.184 205.005 379.267 204.672C379.454 204.006 379.642 203.32 379.808 202.654C380.12 201.302 380.328 199.971 380.307 198.578C381.285 198.848 382.241 199.098 383.219 199.368C382.366 201.219 381.493 203.07 380.64 204.922C379.912 206.502 377.104 205.358 377.79 203.715C378.56 201.843 379.288 199.971 379.954 198.058C380.91 198.453 381.846 198.869 382.803 199.264C381.971 200.408 381.306 201.635 380.827 202.966C379.87 202.571 378.934 202.155 377.978 201.76C378.789 200.366 379.392 198.89 379.829 197.33C380.702 197.829 381.576 198.349 382.429 198.848C381.93 199.306 381.701 199.805 381.576 200.47C380.578 200.2 379.579 199.909 378.56 199.638C378.81 198.869 379.08 198.099 379.33 197.33C380.328 197.6 381.326 197.891 382.345 198.162C382.075 198.931 381.805 199.722 381.534 200.491C381.264 201.282 380.474 201.822 379.621 201.573C378.851 201.365 378.248 200.45 378.539 199.659C378.81 198.89 379.08 198.099 379.35 197.33C379.621 196.539 380.411 195.998 381.264 196.248C382.033 196.456 382.616 197.371 382.345 198.162C382.096 198.931 381.826 199.701 381.576 200.47C380.931 202.384 378.206 201.614 378.56 199.638C378.768 198.494 379.371 197.434 380.203 196.643C381.326 195.582 383.24 196.622 382.803 198.162C382.304 199.971 381.576 201.698 380.64 203.341C379.787 204.838 377.187 203.84 377.79 202.134C378.352 200.554 379.08 199.056 380.078 197.683C380.536 197.059 381.264 196.706 382.034 197.038C382.699 197.33 383.198 198.141 382.928 198.869C382.262 200.782 381.534 202.654 380.765 204.526C379.808 204.131 378.872 203.715 377.915 203.32C378.768 201.469 379.642 199.618 380.494 197.766C381.181 196.29 383.365 197.101 383.406 198.557C383.448 200.408 383.115 202.259 382.657 204.048C382.241 205.67 381.93 207.771 380.474 208.811C378.955 209.893 377.021 209.248 376.251 207.605C375.544 206.066 375.502 204.131 375.586 202.446C375.669 200.637 376.002 198.827 376.542 197.101C376.958 195.728 377.603 194.251 378.914 193.502C380.536 192.566 382.554 193.17 383.677 194.584C384.779 195.978 385.07 197.891 385.008 199.618C384.946 201.573 384.571 203.674 384.009 205.525C383.448 207.376 381.929 209.456 379.725 208.749C377.832 208.187 378.643 205.171 380.557 205.774Z" fill="#E432ED"/>
<path d="M378.227 206.128C378.498 206.149 378.789 206.149 379.059 206.107C378.914 206.128 378.789 206.149 378.643 206.17C378.976 206.128 379.288 206.045 379.6 205.92C379.475 205.982 379.35 206.024 379.226 206.086C379.413 206.003 379.579 205.92 379.746 205.816C380.224 205.525 380.848 205.546 381.326 205.816C381.555 205.962 381.742 206.149 381.888 206.378C382.034 206.627 382.096 206.877 382.096 207.168C382.138 207.48 382.013 207.917 381.826 208.208C381.638 208.52 381.41 208.749 381.098 208.936C380.952 209.019 380.765 209.102 380.598 209.165C380.557 209.186 380.494 209.186 380.453 209.206C380.037 209.29 379.746 209.29 379.33 209.206C379.101 209.165 378.851 209.061 378.664 208.915C378.518 208.811 378.352 208.686 378.206 208.541C378.082 208.395 377.957 208.229 377.832 208.083C377.645 207.834 377.499 207.563 377.333 207.293C377.229 207.106 377.166 206.918 377.146 206.71C377.104 206.502 377.104 206.294 377.166 206.086C377.27 205.733 377.541 205.338 377.874 205.15C378.227 204.963 378.664 204.859 379.08 204.984C379.205 205.046 379.33 205.088 379.454 205.15C379.683 205.296 379.87 205.483 380.016 205.712C380.203 205.962 380.349 206.253 380.536 206.502C380.453 206.398 380.37 206.294 380.286 206.19C380.349 206.274 380.432 206.357 380.515 206.44C380.411 206.357 380.307 206.274 380.203 206.19C380.266 206.232 380.307 206.274 380.37 206.294C380.245 206.232 380.12 206.19 379.995 206.128C380.058 206.149 380.12 206.17 380.203 206.19C380.058 206.17 379.933 206.149 379.787 206.128C379.87 206.128 379.954 206.128 380.016 206.128C379.87 206.149 379.746 206.17 379.6 206.19C379.662 206.17 379.725 206.17 379.787 206.128C379.662 206.19 379.538 206.232 379.413 206.294C379.475 206.274 379.517 206.253 379.558 206.211C379.454 206.294 379.35 206.378 379.246 206.461C379.267 206.44 379.309 206.419 379.33 206.378C379.246 206.482 379.163 206.586 379.08 206.69C379.101 206.669 379.122 206.627 379.142 206.586C379.08 206.71 379.038 206.835 378.976 206.96C378.997 206.918 378.997 206.898 378.997 206.856C378.976 207.002 378.955 207.126 378.934 207.272C378.934 207.23 378.934 207.21 378.934 207.168C379.725 207.626 380.494 208.062 381.285 208.52C380.994 208.686 380.702 208.832 380.39 208.957C380.203 209.04 380.016 209.102 379.808 209.144C379.288 209.269 378.726 209.331 378.186 209.29C377.978 209.29 377.77 209.248 377.582 209.165C377.395 209.102 377.229 208.998 377.083 208.832C376.813 208.562 376.605 208.125 376.626 207.73C376.646 207.334 376.771 206.898 377.083 206.627C377.416 206.315 377.811 206.086 378.227 206.128Z" fill="#E432ED"/>
<path d="M354.536 227.302C354.432 227.344 354.328 227.406 354.224 227.448C353.87 227.677 353.475 227.802 353.059 227.822C352.643 227.906 352.227 227.906 351.811 227.76C351.395 227.656 351.042 227.469 350.75 227.198C350.418 226.97 350.147 226.678 349.939 226.325C349.835 226.075 349.731 225.826 349.627 225.576C349.482 225.014 349.482 224.474 349.627 223.912C349.731 223.662 349.835 223.413 349.939 223.163C350.21 222.685 350.584 222.331 351.062 222.04C351.166 221.998 351.27 221.936 351.374 221.894C351.728 221.666 352.123 221.541 352.539 221.52C352.955 221.437 353.371 221.437 353.787 221.582C354.203 221.686 354.557 221.874 354.848 222.144C355.181 222.373 355.451 222.664 355.659 223.018C355.763 223.267 355.867 223.517 355.971 223.766C356.117 224.328 356.117 224.869 355.971 225.43C355.867 225.68 355.763 225.93 355.659 226.179C355.389 226.658 355.014 227.032 354.536 227.302Z" fill="#49FCFC"/>
</g>
<defs>
<clipPath id="clip0">
<rect width="416" height="416" fill="white" transform="matrix(-1 0 0 1 416 0)"/>
</clipPath>
</defs>
</svg>
