<svg width="217" height="217" viewBox="0 0 217 217" fill="none" xmlns="http://www.w3.org/2000/svg">
<g clip-path="url(#clip0)">
<path d="M55.8774 128.03C48.3871 128.03 42.3149 118.557 42.3149 106.872C42.3149 95.1875 48.3871 85.715 55.8774 85.715C63.3678 85.715 69.4399 95.1875 69.4399 106.872C69.4399 118.557 63.3678 128.03 55.8774 128.03Z" fill="#E65EEA"/>
<path d="M54.456 94.8616C58.145 101.567 66.0872 104.42 73.2374 101.751C75.2012 101.024 76.0475 104.16 74.1054 104.887C65.6424 108.033 55.9967 104.388 51.6567 96.4999C50.6368 94.6771 53.447 93.0279 54.456 94.8616Z" fill="#E65EEA"/>
<path d="M53.6967 117.245C56.8432 115.064 60.1958 113.187 63.7112 111.679C65.4689 110.93 67.2483 110.247 69.0711 109.661C70.9265 109.064 72.7059 108.609 74.5504 109.466C75.3424 109.835 75.5486 110.985 75.1363 111.69C74.6589 112.504 73.7149 112.645 72.912 112.276C72.3261 112.005 71.4907 112.33 70.9156 112.504C70.1453 112.732 69.3858 112.981 68.6371 113.241C67.0964 113.773 65.5774 114.381 64.1018 115.053C61.0313 116.453 58.1126 118.135 55.3459 120.066C53.6099 121.26 51.9824 118.439 53.6967 117.245Z" fill="#E65EEA"/>
<path d="M59.3061 110.637C59.2952 110.692 59.2952 110.746 59.3061 110.8C59.2844 110.659 59.2627 110.507 59.2518 110.366C59.2627 110.42 59.2735 110.464 59.2844 110.518C59.2301 110.388 59.1759 110.258 59.1216 110.128C59.1542 110.193 59.1867 110.247 59.2193 110.301C59.1325 110.193 59.0457 110.084 58.9697 109.976C59.0131 110.03 59.0674 110.073 59.1216 110.117C59.0131 110.03 58.9046 109.943 58.7961 109.867C58.8721 109.921 58.948 109.965 59.0348 109.997C58.9046 109.943 58.7744 109.889 58.6442 109.835C58.731 109.867 58.8178 109.889 58.9155 109.911C58.7744 109.889 58.6225 109.867 58.4815 109.856C58.5791 109.867 58.6659 109.867 58.7636 109.856C58.6225 109.878 58.4706 109.9 58.3296 109.911C58.4272 109.9 58.514 109.878 58.6008 109.835C58.4706 109.889 58.3404 109.943 58.2102 109.997C58.2862 109.954 58.3621 109.911 58.4272 109.856C58.3187 109.943 58.2102 110.03 58.1017 110.106C58.2102 110.019 58.297 109.921 58.3838 109.813C58.297 109.921 58.2102 110.03 58.1343 110.138C58.2428 109.986 58.3296 109.824 58.4055 109.661C58.3513 109.791 58.297 109.921 58.2428 110.052C58.4272 109.607 58.5032 109.14 58.6225 108.684C58.807 107.979 59.1108 107.35 59.5882 106.807C60.0113 106.319 60.8034 106.232 61.3676 106.471C61.9101 106.699 62.4309 107.328 62.3658 107.958C62.3115 108.533 62.3224 109.097 62.3875 109.672C62.3658 109.531 62.3441 109.379 62.3332 109.238C62.3983 109.683 62.496 110.128 62.637 110.562C61.5737 110.703 60.5104 110.854 59.4363 110.996C59.4254 110.214 59.4146 109.444 59.4146 108.663C59.4037 107.849 60.0439 107.165 60.8251 107.068C61.1723 107.024 61.5629 107.068 61.8667 107.263C62.1922 107.48 62.5611 107.827 62.6153 108.24C62.7347 109.053 62.8432 109.867 62.9625 110.681C61.8992 110.822 60.8359 110.974 59.7618 111.115C59.7618 109.78 59.7509 108.435 59.7509 107.1C60.8359 107.1 61.9209 107.1 63.0059 107.1C62.9842 107.838 63.0168 108.576 63.1144 109.303C63.0927 109.162 63.071 109.01 63.0602 108.869C63.1253 109.292 63.2012 109.715 63.2989 110.138C62.2356 110.279 61.1723 110.431 60.0981 110.572C60.2066 109.466 60.326 108.37 60.4345 107.263C61.4978 107.404 62.5611 107.556 63.6352 107.697C63.6352 107.73 63.6244 107.762 63.6244 107.784C63.6461 107.643 63.6678 107.491 63.6786 107.35C63.5701 108.164 63.5701 108.977 63.6786 109.78C63.6569 109.639 63.6352 109.487 63.6244 109.346C63.6678 109.704 63.7437 110.062 63.8305 110.41C62.7889 110.41 61.7365 110.41 60.6949 110.41C60.76 110.203 60.8034 109.997 60.8251 109.78C60.8034 109.921 60.7817 110.073 60.7708 110.214C60.8142 109.856 60.8142 109.509 60.7708 109.151C60.7925 109.292 60.8142 109.444 60.8251 109.585C60.7708 109.184 60.6623 108.793 60.5104 108.424C60.5647 108.554 60.6189 108.684 60.6732 108.815C60.5321 108.489 60.3477 108.185 60.1307 107.903C60.2175 108.012 60.3043 108.12 60.3802 108.229C60.2283 108.044 60.0764 107.871 59.892 107.708C59.2627 107.133 59.2627 105.983 59.892 105.408C60.5647 104.789 61.5195 104.8 62.1922 105.408C63.7763 106.84 64.4164 109.227 63.8197 111.267C63.6244 111.929 62.9625 112.493 62.2464 112.46C61.5412 112.428 60.8576 111.983 60.6732 111.267C60.4996 110.54 60.3911 109.791 60.3477 109.053C60.3043 108.305 60.3802 107.567 60.4887 106.818C60.543 106.46 60.9336 106.005 61.2374 105.842C61.5629 105.668 61.9101 105.603 62.279 105.646C63.0059 105.744 63.7763 106.439 63.6895 107.241C63.581 108.348 63.4616 109.444 63.3531 110.551C63.3097 110.974 63.2012 111.397 62.8757 111.701C62.6045 111.95 62.3007 112.102 61.9426 112.146C61.1723 112.254 60.3477 111.777 60.1524 110.985C59.8486 109.715 59.6967 108.392 59.7509 107.079C59.7835 106.232 60.4779 105.408 61.3784 105.451C62.2573 105.495 63.0059 106.167 63.0059 107.079C63.0059 108.413 63.0168 109.759 63.0168 111.093C63.0168 111.907 62.3983 112.59 61.6063 112.688C61.2591 112.732 60.8685 112.688 60.5647 112.493C60.2392 112.276 59.8703 111.929 59.816 111.516C59.6967 110.703 59.5882 109.889 59.4688 109.075C60.5321 108.934 61.5954 108.782 62.6696 108.641C62.6804 109.422 62.6913 110.193 62.6913 110.974C62.7021 111.788 62.062 112.471 61.2808 112.569C60.4562 112.677 59.7509 112.178 59.4905 111.408C59.1325 110.301 58.9806 109.097 59.0999 107.947C60.0222 108.326 60.9553 108.717 61.8775 109.097C61.845 109.129 61.8124 109.173 61.7799 109.205C61.8667 109.097 61.9535 108.988 62.0294 108.88C61.9209 109.021 61.845 109.162 61.769 109.325C61.8233 109.194 61.8775 109.064 61.9318 108.934C61.7148 109.466 61.6497 110.03 61.4761 110.572C61.2048 111.419 60.76 112.156 60.0222 112.666C59.2193 113.22 58.2102 113.166 57.3639 112.786C56.5827 112.428 55.9426 111.505 56.0402 110.627C56.0836 110.182 56.1921 109.802 56.5176 109.477C56.7997 109.194 57.2663 108.977 57.6677 108.999C58.0909 109.021 58.5249 109.151 58.8178 109.477C59.0999 109.791 59.3495 110.214 59.3061 110.637Z" fill="#E65EEA"/>
<path d="M61.5304 107.274C61.5846 107.404 61.6606 107.523 61.7365 107.643C61.6497 107.534 61.5629 107.426 61.487 107.317C61.5738 107.426 61.6714 107.523 61.7799 107.621C61.6714 107.534 61.5629 107.448 61.4544 107.372C61.5629 107.458 61.6823 107.523 61.8125 107.589C61.0747 107.784 60.326 107.979 59.5882 108.174C59.5991 108.164 59.5991 108.142 59.61 108.131C59.5557 108.261 59.5014 108.391 59.4472 108.522C59.5557 108.261 59.6208 107.99 59.6642 107.708C59.6425 107.849 59.6208 108.001 59.61 108.142C59.6425 107.849 59.6425 107.545 59.61 107.252C59.6317 107.393 59.6534 107.545 59.6642 107.686C59.6208 107.393 59.5449 107.1 59.4255 106.829C59.4798 106.959 59.534 107.089 59.5882 107.22C59.5123 107.057 59.4364 106.894 59.3387 106.742C59.1217 106.395 59.0674 105.885 59.1759 105.484C59.2844 105.104 59.5665 104.702 59.9246 104.507C60.3043 104.312 60.76 104.203 61.1832 104.344C61.5955 104.475 61.921 104.724 62.1597 105.093C62.6045 105.798 62.8215 106.601 62.8866 107.426C62.9192 107.838 62.8649 108.24 62.7998 108.652C62.7347 109.064 62.572 109.433 62.4092 109.824C62.3116 110.008 62.1705 110.171 61.9861 110.279C61.8342 110.42 61.6497 110.518 61.4327 110.572C61.2917 110.594 61.1398 110.616 60.9987 110.627C60.7058 110.627 60.4346 110.551 60.1742 110.41C59.8595 110.269 59.5665 110.041 59.3278 109.802C59.0891 109.563 58.8613 109.27 58.7203 108.945C58.6009 108.76 58.5358 108.554 58.525 108.337C58.4816 108.12 58.4816 107.903 58.5575 107.686C58.666 107.306 58.9481 106.905 59.3062 106.71C59.6859 106.514 60.1416 106.406 60.5648 106.547C60.9336 106.655 61.3676 106.905 61.5304 107.274Z" fill="#E65EEA"/>
<path d="M62.0296 107.665C62.1815 108.055 62.3442 108.457 62.4961 108.847C62.3551 108.608 62.214 108.37 62.073 108.131C62.0838 108.142 62.0947 108.142 62.0947 108.153C61.9862 108.066 61.8777 107.979 61.7692 107.903C61.856 107.968 61.9536 108.023 62.0621 108.066C61.9319 108.012 61.8017 107.957 61.6715 107.903C61.8017 107.957 61.9211 107.99 62.0621 108.001C61.9211 107.979 61.7692 107.957 61.6281 107.947C61.7583 107.957 61.8994 107.957 62.0296 107.947C61.8885 107.968 61.7366 107.99 61.5956 108.001C61.7366 107.979 61.8777 107.947 62.0187 107.892C61.8885 107.947 61.7583 108.001 61.6281 108.055C61.7366 108.001 61.8451 107.947 61.9428 107.871C61.8343 107.957 61.7258 108.044 61.6173 108.12C61.7041 108.055 61.78 107.968 61.856 107.882C61.7692 107.99 61.6824 108.099 61.6064 108.207C61.6715 108.12 61.7258 108.023 61.78 107.914C61.7258 108.044 61.6715 108.174 61.6173 108.305C61.6715 108.185 61.7041 108.055 61.7258 107.914C61.7041 108.055 61.6824 108.207 61.6715 108.348C61.6932 108.207 61.6932 108.055 61.6715 107.914C61.6932 108.055 61.7149 108.207 61.7258 108.348C61.7041 108.218 61.6715 108.088 61.6173 107.957C61.6715 108.088 61.7258 108.218 61.78 108.348C61.7258 108.229 61.6607 108.109 61.5847 108.001C61.6715 108.109 61.7583 108.218 61.8343 108.326C61.7583 108.24 61.6824 108.164 61.5956 108.088C62.3659 108.088 63.1254 108.088 63.8958 108.088C63.6571 108.272 63.4184 108.457 63.1797 108.641C63.0278 108.804 62.8542 108.912 62.6589 108.977C62.4636 109.075 62.2574 109.129 62.0296 109.118C61.6281 109.118 61.1507 108.945 60.8795 108.641C60.5974 108.326 60.3804 107.925 60.4021 107.491C60.4238 107.35 60.4455 107.198 60.4563 107.057C60.5323 106.786 60.6733 106.547 60.8795 106.341C61.1182 106.156 61.3569 105.972 61.5956 105.787C61.7475 105.625 61.9211 105.516 62.1164 105.451C62.3117 105.353 62.5178 105.299 62.7457 105.31C62.8867 105.332 63.0386 105.353 63.1797 105.364C63.4509 105.44 63.6896 105.581 63.8958 105.787C63.9717 105.842 64.0368 105.907 64.1019 105.983C64.243 106.156 64.3949 106.33 64.5034 106.536C64.6119 106.731 64.6987 106.948 64.7746 107.155C64.8072 107.241 64.8289 107.339 64.8506 107.437C64.894 107.654 64.9265 107.892 64.9265 108.12C64.9265 108.359 64.8831 108.598 64.8506 108.826C64.8397 108.912 64.818 108.999 64.7855 109.086C64.7095 109.303 64.6227 109.52 64.5034 109.715C64.1019 110.388 63.4509 110.865 62.7023 111.082C62.3876 111.169 62.0404 111.223 61.7149 111.202C61.4871 111.191 61.2701 111.158 61.0531 111.115C60.8361 111.071 60.6082 110.963 60.4129 110.876C60.3153 110.833 60.2285 110.779 60.1417 110.724C60.0223 110.637 59.8921 110.551 59.7836 110.453C59.5232 110.203 59.469 110.03 59.3388 109.704C59.3062 109.628 59.2845 109.563 59.252 109.487C59.1326 109.173 59.0024 108.858 58.8831 108.543C58.818 108.326 58.8071 108.109 58.8505 107.892C58.8614 107.675 58.9265 107.469 59.0458 107.285C59.2411 106.948 59.6317 106.623 60.0223 106.536C60.4346 106.438 60.912 106.46 61.2809 106.699C61.3894 106.786 61.4979 106.872 61.6064 106.948C61.8126 107.144 61.9428 107.382 62.0296 107.665Z" fill="#E65EEA"/>
<path d="M62.6805 110.182C62.8215 110.583 62.9626 110.974 63.1036 111.375C62.3116 111.05 61.5087 110.724 60.7166 110.399C60.9662 110.236 60.6624 110.475 60.7926 110.355C60.8577 110.29 60.9336 110.225 60.9987 110.149C61.1072 110.03 60.9228 110.323 61.053 110.073C61.0747 110.041 61.2591 109.693 61.1723 109.878C61.0964 110.041 61.2049 109.769 61.2157 109.737C61.2483 109.618 61.2808 109.509 61.3025 109.39C61.2808 109.552 61.2917 109.552 61.2808 109.39C61.27 109.238 61.27 109.108 61.2483 108.956C62.062 109.422 62.8758 109.889 63.7004 110.366C63.4183 110.486 63.1579 110.627 62.9083 110.8C63.0928 110.67 62.9083 110.811 62.8324 110.876C62.7239 110.974 62.6154 111.093 62.5177 111.202C62.4092 111.332 62.6045 111.05 62.4526 111.288C62.3767 111.419 62.3007 111.549 62.2248 111.679C62.0729 111.961 62.2356 111.505 62.1596 111.842C62.1488 111.885 62.1271 111.939 62.1163 111.983C62.0729 112.156 62.0729 112.189 62.0946 112.07C62.1163 112.005 62.1054 111.939 62.0837 111.874C61.8559 111.646 61.6389 111.419 61.411 111.191C60.8902 111.234 60.7817 111.212 61.0638 111.147C61.0204 111.158 60.977 111.18 60.9336 111.191C60.8143 111.288 60.7926 111.299 60.8794 111.223C60.9553 111.147 60.9445 111.158 60.8468 111.267C60.8685 111.223 60.8902 111.18 60.9227 111.137C60.8576 111.299 60.8468 111.288 60.9011 111.104C60.9011 111.169 60.9336 111.516 60.8902 111.332C60.8468 111.158 60.977 111.505 61.0204 111.56C61.1615 111.722 61.3568 111.788 61.5629 111.788C61.3134 111.788 61.7799 111.712 61.8667 111.668C62.2682 111.419 62.5177 110.648 62.062 110.334C61.9427 110.258 61.845 110.269 61.7148 110.236C61.5629 110.279 61.5521 110.279 61.6714 110.247C61.7799 110.214 61.7691 110.225 61.6497 110.279C61.6823 110.269 62.0403 110.008 61.8559 110.171C61.9535 110.095 62.0403 109.997 62.1271 109.91C62.2031 109.824 62.1922 109.845 62.0946 109.965C62.138 109.91 62.1814 109.845 62.2139 109.791C62.279 109.693 62.3333 109.585 62.3875 109.476C62.5828 109.108 62.3224 109.737 62.4418 109.335C62.4852 109.194 62.5177 109.064 62.5502 108.923C62.6262 108.619 62.5611 109.042 62.5611 108.858C62.5611 108.739 62.572 108.619 62.572 108.5C62.572 108.381 62.5394 108.066 62.5828 108.359C62.5611 108.218 62.5286 108.077 62.496 107.936C62.4743 107.86 62.3224 107.48 62.4635 107.784C62.3984 107.654 62.3333 107.523 62.2573 107.404C62.8649 107.654 63.4834 107.903 64.091 108.153C64.4816 108.012 64.1886 108.131 64.091 108.185C64.2646 108.055 64.2971 108.023 64.2212 108.109C64.1344 108.196 64.1669 108.153 64.308 107.99C64.2537 108.099 64.1561 108.359 64.2646 107.99C64.2537 108.033 64.1452 108.305 64.1669 108.316C64.1235 108.294 64.2211 107.914 64.1777 108.326C64.1452 108.619 64.1235 108.099 64.1669 108.283C64.2537 108.641 64.0801 108.196 64.1452 108.305C64.2646 108.533 64.2212 108.37 64.1018 108.294C64.3839 108.478 63.8197 108.174 64.1235 108.326C63.6895 108.109 64.1127 108.37 64.1669 108.326C63.9391 108.305 63.8956 108.294 64.0258 108.294C64.0801 108.294 64.1452 108.294 64.1995 108.283C63.8197 108.283 64.0801 108.283 64.2212 108.24C63.9825 108.305 64.0801 108.283 64.2537 108.196C64.091 108.272 64.0801 108.337 64.2429 108.196C64.5033 107.968 64.2212 108.25 64.2754 108.164C64.3297 108.066 64.2212 108.478 64.2863 108.131C64.3188 107.936 64.2863 108.467 64.2646 108.153C64.2863 108.457 64.4382 108.63 64.6877 108.815C65.317 109.075 65.751 109.01 66.0114 108.63C66.0765 108.533 66.0657 108.554 65.9789 108.695C65.7619 109.086 66.0765 108.391 65.8812 108.901C65.8161 109.075 65.751 109.249 65.7185 109.422C65.7185 109.401 65.7185 109.368 65.7185 109.346C65.7185 109.563 65.7185 109.585 65.6968 109.401C65.6751 109.357 65.6534 109.314 65.6317 109.27C65.7185 109.411 65.7293 109.433 65.6642 109.335C65.4038 109.151 65.1977 109.021 64.8505 109.118C64.7203 109.118 64.6226 109.173 64.5467 109.27C64.5792 109.238 64.6226 109.205 64.6552 109.173C64.7745 109.032 64.7854 109.042 64.666 109.184C64.6877 109.14 64.7203 109.108 64.742 109.064C64.8288 108.901 64.8287 108.901 64.7528 109.075C64.7636 109.032 64.7854 108.988 64.7962 108.945C64.8179 108.858 64.8613 108.478 64.8505 108.836C64.8613 108.695 64.8505 108.565 64.8505 108.424C64.8505 108.706 64.8396 108.467 64.8179 108.316C64.7745 108.044 64.8939 108.381 64.8071 108.261C64.7745 108.196 64.742 108.142 64.7094 108.077C64.8288 108.218 64.8288 108.218 64.7094 108.077C65.3713 108.164 66.0223 108.25 66.6841 108.326C66.619 108.37 66.3152 108.598 66.5648 108.37C66.478 108.446 66.4129 108.543 66.3261 108.608C66.2067 108.695 66.4129 108.413 66.2935 108.663C66.261 108.739 66.1308 109.086 66.2176 108.76C66.185 108.858 66.1742 108.999 66.1199 109.086C66.044 109.227 66.109 108.836 66.109 109.118C66.109 109.205 66.1633 109.585 66.0874 109.227C66.1199 109.357 66.1524 109.487 66.1958 109.618C65.8161 109.238 65.4364 108.858 65.0566 108.478C64.8288 108.435 65.0023 108.457 65.1434 108.467C65.2844 108.478 65.0458 108.478 64.959 108.533C64.7745 108.652 64.6877 108.934 64.7311 109.14C64.8071 109.552 65.3062 109.943 65.7185 109.932C65.8704 109.932 65.9897 109.878 66.1199 109.813C65.8921 109.91 66.1525 109.791 66.2393 109.693C66.3261 109.585 66.3695 109.466 66.3912 109.335C66.4346 109.053 66.3261 108.825 66.1633 108.619C66.3152 108.815 66.1091 108.63 66.0331 108.565C65.8161 108.391 66.2284 108.684 65.9789 108.565C65.8487 108.554 65.8595 108.554 66.0114 108.565C65.9463 108.576 65.8921 108.587 65.827 108.598C65.8704 108.587 65.9029 108.576 65.9463 108.565C65.7944 108.641 65.7619 108.641 65.8704 108.587C65.9897 108.576 65.8161 108.663 65.8812 108.565C65.9789 108.435 65.8161 108.728 65.9355 108.478C66.0657 108.218 65.9355 108.543 65.9789 108.381C66.0114 108.283 66.0331 108.185 66.0548 108.088C66.0765 107.979 66.0765 107.99 66.0548 108.109C66.0548 108.055 66.0657 108.001 66.0657 107.947C66.0657 107.838 66.0657 107.719 66.0657 107.61C66.0765 107.86 66.0548 107.523 66.0331 107.458C66.0006 107.328 65.968 107.187 65.9138 107.057C65.968 107.198 65.9355 107.079 65.8921 107.024C66.7167 107.675 67.3026 107.751 67.6498 107.252C67.6932 107.187 67.6932 107.198 67.6281 107.285C67.563 107.404 67.4653 107.523 67.3894 107.643C67.2592 107.86 67.129 108.088 67.0205 108.316C66.9879 108.381 66.8686 108.674 66.9445 108.478C66.9011 108.587 66.8686 108.695 66.8252 108.804C66.7384 109.075 66.6624 109.346 66.6082 109.628C66.5865 109.737 66.5648 109.856 66.5539 109.965C66.5865 109.683 66.5431 110.214 66.5431 110.214C65.534 109.943 64.525 109.672 63.5051 109.39C63.6461 109.162 63.4617 109.596 63.4617 109.693C63.4725 109.325 63.5159 110.073 63.4617 109.704C63.4834 109.867 63.5919 109.943 63.4508 109.748C63.3315 109.585 63.6353 109.997 63.4508 109.769C63.3206 109.65 63.3315 109.661 63.5051 109.802C63.4725 109.78 63.44 109.759 63.4074 109.737C63.0277 109.65 63.7437 109.824 63.364 109.726C63.5484 109.78 63.6244 109.704 63.3965 109.737C63.2663 109.748 63.3206 109.737 63.5376 109.715C63.3966 109.759 63.3857 109.769 63.5051 109.726C63.6244 109.683 63.6135 109.693 63.4833 109.759C63.5267 109.726 63.5702 109.683 63.6136 109.65C63.5268 109.737 63.3749 109.976 63.5376 109.683C63.4725 109.791 63.4074 109.9 63.3532 110.008C63.4508 109.813 63.4182 109.856 63.364 110.041C63.3097 110.225 63.3098 110.269 63.3315 110.052C63.3206 110.182 63.3206 110.312 63.3098 110.442C63.2881 110.822 63.223 110.16 63.3098 110.529C63.3423 110.659 63.3749 110.778 63.4183 110.898C62.6262 110.572 61.8233 110.247 61.0313 109.921C61.1072 109.889 61.1723 109.856 61.2374 109.813C61.3893 109.715 61.3676 109.737 61.1832 109.867C61.3242 109.704 61.3351 109.661 61.2157 109.856C61.2917 109.726 61.3893 109.346 61.3025 109.737C61.3134 109.683 61.411 109.227 61.3785 109.509C61.3351 109.813 61.4002 109.281 61.3676 109.27C61.411 109.509 61.411 109.542 61.3785 109.368C61.3676 109.314 61.3568 109.259 61.3351 109.205C61.3025 109.086 61.3134 109.129 61.4002 109.335C61.3676 109.27 61.3351 109.205 61.2917 109.14C61.4436 109.314 61.4544 109.335 61.3351 109.205C61.2808 109.151 61.2266 109.097 61.1615 109.053C61.6931 109.194 62.2139 109.335 62.7456 109.476C62.7456 109.476 62.355 109.618 62.5611 109.531C62.7673 109.444 62.4418 109.596 62.3984 109.618C62.3007 109.672 62.2139 109.737 62.1271 109.791C61.9535 109.889 62.3658 109.552 62.0946 109.824C62.0295 109.889 61.9644 109.943 61.9101 110.008C61.8993 110.019 61.6606 110.323 61.7799 110.149C61.9101 109.965 61.704 110.279 61.6823 110.312C61.628 110.399 61.5846 110.518 61.5195 110.605C61.4002 110.757 61.6171 110.29 61.4978 110.648C61.4652 110.735 61.4436 110.811 61.411 110.898C61.3893 110.995 61.3785 111.137 61.3351 111.223C61.2591 111.375 61.3351 110.952 61.3351 111.245C61.3351 111.354 61.3351 111.462 61.3242 111.571C61.3242 111.668 61.3785 111.961 61.3025 111.592C61.3459 111.809 61.4002 112.015 61.4761 112.232C60.6841 111.907 59.8812 111.581 59.0891 111.256C59.4363 111.028 58.9915 111.386 59.1542 111.212C59.2302 111.126 59.3278 111.05 59.4038 110.974C59.6967 110.692 59.2844 111.202 59.5014 110.865C59.5557 110.789 59.5991 110.713 59.6533 110.627C59.6859 110.572 59.8378 110.182 59.7293 110.507C59.7727 110.399 59.8052 110.29 59.8377 110.171C59.8703 110.062 59.892 109.943 59.9137 109.824C59.8703 110.052 59.9029 109.932 59.9029 109.769C59.9029 109.65 59.9029 109.542 59.9029 109.422C59.9029 109.118 59.9571 109.542 59.892 109.368C59.8595 109.259 59.8269 109.14 59.8052 109.032C59.8595 109.292 59.8269 109.064 59.7618 108.967C59.6967 108.858 59.5882 108.695 59.7293 108.891C59.6099 108.782 59.5991 108.76 59.6859 108.836C59.7835 108.901 59.7618 108.901 59.6208 108.815C59.7184 108.858 59.7944 108.891 59.9029 108.912C60.0765 108.88 60.109 108.88 59.9896 108.912C59.8811 108.945 59.9029 108.934 60.0548 108.891C60.0114 108.912 59.968 108.945 59.9354 108.967C60.0439 108.88 60.0656 108.869 59.9788 108.956C59.9463 108.999 59.7184 109.249 59.8812 109.032C59.7184 109.238 59.5882 109.476 59.4689 109.715C59.3061 110.041 59.1651 110.486 59.0457 111.05C58.9372 111.538 59.0566 110.768 59.0132 111.278C59.0023 111.386 58.9915 111.495 58.9915 111.614C58.9806 111.918 58.9915 112.222 59.0132 112.525C59.0349 112.818 58.9372 112.167 59.0349 112.666C59.0566 112.797 59.0891 112.938 59.1217 113.068C59.1542 113.198 59.1976 113.339 59.2302 113.469C59.241 113.524 59.4038 113.947 59.3061 113.697C58.449 113.589 57.6027 113.48 56.7455 113.372C56.8866 113.241 57.0276 113.1 57.1578 112.959C57.2012 112.916 57.581 112.46 57.3748 112.731C57.6135 112.428 57.8197 112.091 58.0041 111.744C58.0909 111.571 58.1777 111.397 58.2537 111.223C58.1452 111.484 58.2754 111.158 58.3079 111.071C58.4381 110.703 58.5358 110.323 58.6117 109.943C58.6334 109.845 58.6443 109.748 58.666 109.65C58.6443 109.845 58.6443 109.845 58.666 109.65C58.6768 109.455 58.6985 109.259 58.7094 109.064C58.7202 108.717 58.6985 108.381 58.6768 108.044C58.6551 107.849 58.6551 107.849 58.6768 108.044C58.666 107.947 58.6443 107.849 58.6226 107.762C58.59 107.567 58.5357 107.382 58.4815 107.198C58.4272 107.014 58.3622 106.829 58.2971 106.645C58.232 106.471 58.232 106.46 58.2971 106.623C58.2537 106.536 58.2103 106.449 58.1669 106.363C59.024 106.471 59.8703 106.58 60.7275 106.688C60.5322 106.862 60.3586 107.035 60.185 107.231C60.1741 107.241 59.8703 107.621 60.0548 107.382C59.9788 107.48 59.9028 107.589 59.8377 107.697C59.6967 107.914 59.5665 108.131 59.4471 108.359C59.3929 108.478 59.3278 108.587 59.2844 108.706C59.4146 108.413 59.2302 108.869 59.2193 108.891C59.1325 109.129 59.0674 109.379 59.0132 109.628C58.9806 109.759 58.9698 109.878 58.9372 110.008C58.8938 110.193 58.9481 109.802 58.9264 110.106C58.9047 110.388 58.8938 110.67 58.9046 110.952C58.9046 111.082 58.9155 111.212 58.9264 111.332C58.9481 111.69 58.883 111.126 58.9589 111.505C59.1108 112.341 58.731 113.296 57.8196 113.513C57.0276 113.697 55.9752 113.274 55.8124 112.373C55.2916 109.455 56.203 106.395 58.4273 104.388C59.1542 103.737 60.4996 103.726 60.9879 104.713C62.7456 108.326 62.0403 112.905 59.0565 115.672C58.373 116.312 56.93 116.355 56.496 115.346C55.7256 113.556 55.4978 111.625 56.0186 109.715C56.496 107.947 57.7112 105.809 59.7618 105.69C61.8884 105.57 63.1253 107.708 63.1687 109.596C63.2121 111.419 62.2465 113.111 60.7383 114.099C59.7944 114.717 58.6877 114.055 58.3513 113.122C57.3857 110.464 59.024 107.361 61.628 106.438C63.4508 105.798 64.6009 107.882 64.6226 109.422C64.6335 110.757 63.9173 112.189 62.6696 112.775C61.6823 113.231 60.6407 112.862 60.2826 111.798C59.5882 109.737 60.619 106.872 63.006 106.558C65.3713 106.243 67.6715 108.825 66.3369 111.071C65.5449 112.395 63.2013 111.918 63.2989 110.247C63.364 109.14 63.6027 108.12 64.0476 107.111C64.4273 106.232 64.9807 105.158 65.8161 104.659C66.4563 104.279 67.2266 104.258 67.8885 104.605C68.4744 104.919 68.7673 105.505 69.006 106.091C69.3966 107.057 69.4509 108.229 69.1579 109.227C68.8433 110.279 68.1489 111.212 67.1181 111.646C66.0765 112.091 64.9047 111.863 64.0367 111.147C63.1362 110.399 62.8974 109.053 63.4833 108.044C64.0258 107.111 65.2411 106.493 66.3044 106.818C67.8017 107.274 68.3333 108.977 67.6606 110.323C67.0096 111.614 65.4906 111.918 64.1886 111.657C63.6244 111.549 63.223 111.039 63.0494 110.518C62.4309 108.663 63.3097 106.482 65.024 105.549C65.6316 105.212 66.5105 105.256 66.9988 105.798C68.5612 107.545 68.4744 110.344 66.5756 111.809C65.3604 112.742 63.6895 112.33 62.8975 111.061C62.1488 109.856 62.5286 108.467 63.0819 107.274C63.6787 105.994 65.1543 105.288 66.4237 106.102C67.6172 106.862 67.7583 108.5 67.1724 109.683C66.2284 111.571 63.4291 112.287 61.8667 110.724C61.0204 109.878 60.7709 108.652 61.0096 107.502C61.2591 106.33 62.1163 105.462 63.2121 105.071C63.8848 104.833 64.6986 105.234 65.0458 105.82C66.0765 107.534 66.0765 109.867 64.959 111.549C64.3405 112.471 63.4182 113.317 62.279 113.491C60.8793 113.708 59.5231 112.97 59.1217 111.56C58.7636 110.301 59.6099 108.912 60.8902 108.663C62.1922 108.413 63.4725 109.075 63.9282 110.334C64.3297 111.451 63.9716 112.742 63.1579 113.589C62.2248 114.554 60.543 114.836 59.534 113.838C58.4381 112.753 58.8179 111.093 59.5014 109.9C60.0765 108.912 60.977 108.066 62.0295 107.61C63.2447 107.089 64.3079 107.719 64.4815 109.021C64.6985 110.724 63.7546 112.373 62.3441 113.274C61.4002 113.882 60.2826 113.241 59.9571 112.297C59.8161 111.896 59.675 111.505 59.534 111.104C59.2519 110.301 59.8595 109.292 60.6732 109.097C61.5955 108.836 62.3767 109.314 62.6805 110.182Z" fill="#E65EEA"/>
<path d="M130.394 77.0167C120.306 68.4916 115.985 57.0169 120.743 51.3873C125.501 45.7577 137.535 48.105 147.623 56.6301C157.71 65.1552 162.031 76.6299 157.273 82.2595C152.516 87.8891 140.481 85.5418 130.394 77.0167Z" fill="#E65EEA"/>
<path d="M85.5749 83.1374C77.9923 78.1787 74.6928 69.8048 78.2052 64.4338C81.7176 59.0628 90.7119 58.7285 98.2945 63.6873C105.877 68.646 109.177 77.0199 105.664 82.3909C102.152 87.7619 93.1575 88.0961 85.5749 83.1374Z" fill="#E65EEA"/>
<path d="M80.3114 145.075C76.799 139.704 80.0985 131.33 87.6811 126.372C95.2637 121.413 104.258 121.747 107.77 127.118C111.283 132.489 107.983 140.863 100.401 145.822C92.8181 150.78 83.8239 150.446 80.3114 145.075Z" fill="#E65EEA"/>
<path d="M131.827 137.795C93.7764 137.795 62.93 122.25 62.93 103.075C62.93 83.8997 93.7764 68.355 131.827 68.355C169.879 68.355 200.725 83.8997 200.725 103.075C200.725 122.25 169.879 137.795 131.827 137.795Z" fill="#EF89EF"/>
<path d="M185.394 109.628C188.877 115.52 192.609 122.605 189.723 129.516C189.126 130.949 188.269 132.424 186.739 132.999C185.209 133.574 183.604 132.956 182.54 131.773C180.349 129.343 179.643 125.578 179.567 122.41C179.47 118.525 180.316 114.674 181.195 110.909C181.672 108.869 184.808 109.737 184.331 111.777C183.538 115.151 182.779 118.569 182.822 122.052C182.844 123.657 183.039 125.252 183.538 126.793C183.745 127.455 184.558 130.048 185.557 129.983C186.067 129.95 186.533 128.768 186.696 128.388C187.01 127.661 187.227 126.858 187.358 126.077C187.618 124.482 187.51 122.811 187.162 121.238C186.37 117.625 184.45 114.413 182.595 111.267C181.52 109.466 184.331 107.816 185.394 109.628Z" fill="#49FCFC"/>
<path d="M182.584 118.807C181.889 118.026 181.662 117.137 181.868 116.117C182.182 114.576 184.7 114.554 185.003 116.117C185.242 117.321 185.47 118.536 185.709 119.741C184.667 120.034 183.615 120.316 182.573 120.609C182.334 119.155 182.106 117.701 181.868 116.247C181.727 115.379 182.096 114.5 183.007 114.24C183.832 114.012 184.808 114.522 185.014 115.379C185.622 117.972 186.219 120.554 186.826 123.147C185.763 123.289 184.7 123.44 183.625 123.581C183.517 121.867 183.267 120.175 182.888 118.493C182.421 116.442 185.34 115.65 186.023 117.625C186.815 119.903 187.314 122.247 187.607 124.634C186.544 124.493 185.481 124.341 184.407 124.2C184.71 123.408 184.765 122.703 184.515 121.889C185.557 121.889 186.609 121.889 187.651 121.889C187.412 123.484 187.542 125.133 187.944 126.685C186.956 126.554 185.958 126.424 184.971 126.294C185.079 126.12 184.993 126.175 184.993 126.283C184.993 126.392 185.003 126.511 185.014 126.619C185.025 126.728 184.917 126.533 185.003 126.598C185.09 126.663 185.123 126.75 185.242 126.793C185.85 126.544 186.468 126.294 187.076 126.044C186.913 126.359 186.859 126.717 186.902 127.01C187.054 127.878 186.674 128.757 185.763 129.017C186.153 128.909 186.305 128.421 186.121 128.084C186.837 129.365 185.665 130.775 184.287 130.471C182.54 130.091 181.792 128.334 181.564 126.739C181.271 124.677 181.032 122.594 180.772 120.522C180.663 119.654 181.596 118.894 182.399 118.894C183.376 118.894 183.918 119.643 184.027 120.522C184.233 122.117 184.428 123.701 184.634 125.296C184.71 125.849 184.743 126.327 184.906 126.869C184.906 126.869 185.047 127.26 185.003 127.151C184.949 127.043 185.155 127.39 185.144 127.39C185.058 127.238 185.101 127.357 185.188 127.412C185.079 127.346 184.862 127.26 185.155 127.314C184.548 128.106 183.929 128.909 183.322 129.701C182.497 128.214 183.246 126.316 184.906 125.849C184.526 126.522 184.146 127.184 183.766 127.856C183.539 126.619 183.68 125.502 184.266 124.384C184.591 123.755 185.437 123.44 186.099 123.636C187.868 124.146 188.823 126.337 187.77 127.921C187.021 129.05 185.155 128.952 184.797 127.531C184.244 125.372 184.179 123.202 184.504 120.999C184.602 120.305 185.427 119.806 186.078 119.806C186.804 119.806 187.445 120.316 187.651 120.999C188.041 122.323 188.02 123.744 187.542 125.046C187.26 125.806 186.598 126.337 185.752 126.207C184.895 126.077 184.439 125.437 184.342 124.612C184.081 122.518 183.56 120.457 182.877 118.471C183.918 118.178 184.971 117.896 186.012 117.603C186.457 119.556 186.739 121.553 186.87 123.56C186.989 125.393 184.092 125.773 183.669 123.994C183.061 121.401 182.464 118.818 181.857 116.225C182.898 115.932 183.951 115.65 184.993 115.357C185.231 116.811 185.459 118.265 185.698 119.719C185.839 120.587 185.47 121.466 184.559 121.726C183.766 121.943 182.725 121.455 182.551 120.587C182.313 119.383 182.085 118.167 181.846 116.963C182.888 116.963 183.94 116.963 184.982 116.963C185.014 116.822 184.96 116.605 184.862 116.486C185.448 117.137 185.513 118.146 184.862 118.786C184.287 119.404 183.17 119.469 182.584 118.807Z" fill="#49FCFC"/>
<path d="M186.978 116.453C187 116.822 187.032 117.191 187.087 117.549C187.065 117.408 187.043 117.256 187.032 117.115C187.13 117.842 187.282 118.558 187.488 119.274C186.446 119.274 185.394 119.274 184.352 119.274C184.439 118.916 184.504 118.558 184.548 118.189C184.526 118.33 184.504 118.482 184.493 118.623C184.602 117.777 184.634 116.93 184.569 116.073C185.654 116.073 186.739 116.073 187.824 116.073C187.77 116.659 187.781 117.245 187.857 117.82C187.835 117.679 187.813 117.527 187.803 117.386C187.857 117.788 187.944 118.178 188.063 118.569C187 118.71 185.936 118.862 184.862 119.003C184.841 118.818 184.819 118.634 184.797 118.449C184.819 118.591 184.841 118.742 184.851 118.883C184.765 118.265 184.656 117.647 184.504 117.039C184.407 116.627 184.45 116.16 184.667 115.78C184.862 115.444 185.253 115.119 185.643 115.032C186.056 114.934 186.522 114.956 186.902 115.194C187.249 115.422 187.553 115.748 187.651 116.171C187.879 117.104 188.03 118.048 188.128 119.003C188.172 119.372 187.922 119.903 187.651 120.153C187.379 120.402 187.076 120.554 186.718 120.598C185.915 120.706 185.166 120.218 184.927 119.437C184.602 118.363 184.472 117.191 184.58 116.073C184.624 115.628 184.732 115.249 185.058 114.923C185.34 114.641 185.806 114.424 186.208 114.446C186.631 114.468 187.065 114.598 187.358 114.923C187.662 115.26 187.803 115.628 187.835 116.073C187.933 117.43 187.803 118.808 187.499 120.142C187.423 120.478 187.184 120.782 186.913 120.988C186.642 121.205 186.284 121.357 185.926 121.336C185.199 121.303 184.569 120.847 184.352 120.142C184.005 118.949 183.799 117.701 183.734 116.453C183.712 116.052 183.929 115.585 184.211 115.303C184.493 115.021 184.96 114.804 185.361 114.826C185.785 114.847 186.219 114.977 186.511 115.303C186.804 115.628 186.956 116.008 186.978 116.453Z" fill="#49FCFC"/>
<path d="M187.564 116.963C187.629 117.31 187.683 117.679 187.651 118.037C187.618 118.395 187.575 118.764 187.445 119.1C187.39 119.317 187.293 119.502 187.152 119.654C187.032 119.827 186.88 119.968 186.696 120.077C186.512 120.196 186.305 120.261 186.088 120.272C185.871 120.316 185.654 120.316 185.437 120.24C185.307 120.185 185.177 120.131 185.047 120.077C184.797 119.936 184.613 119.741 184.461 119.491C184.407 119.361 184.352 119.231 184.298 119.1C184.222 118.808 184.222 118.525 184.298 118.232C184.363 118.059 184.407 117.885 184.439 117.701C184.417 117.842 184.396 117.994 184.385 118.135C184.407 117.94 184.407 117.733 184.385 117.538C184.407 117.679 184.428 117.831 184.439 117.972C184.428 117.929 184.428 117.885 184.417 117.831C184.352 117.614 184.342 117.397 184.385 117.18C184.396 116.963 184.461 116.757 184.58 116.572C184.678 116.388 184.819 116.225 185.003 116.117C185.155 115.976 185.34 115.878 185.557 115.824C185.698 115.802 185.85 115.78 185.991 115.77C186.284 115.77 186.555 115.845 186.815 115.987C186.924 116.073 187.032 116.16 187.141 116.236C187.347 116.453 187.488 116.692 187.564 116.963Z" fill="#49FCFC"/>
<path d="M181.271 110.41C181.325 110.16 181.401 109.91 181.499 109.661C181.651 109.292 181.792 108.934 181.998 108.598C182.096 108.413 182.237 108.25 182.421 108.142C182.573 108.001 182.757 107.903 182.974 107.849C183.191 107.784 183.408 107.773 183.625 107.816C183.842 107.827 184.049 107.892 184.233 108.012C184.341 108.099 184.45 108.185 184.558 108.261C184.765 108.467 184.895 108.706 184.982 108.977C185.003 109.118 185.025 109.27 185.036 109.411C185.036 109.704 184.96 109.976 184.819 110.236C184.7 110.431 184.591 110.627 184.504 110.833C184.558 110.703 184.613 110.572 184.667 110.442C184.558 110.703 184.472 110.974 184.417 111.256C184.363 111.473 184.266 111.657 184.124 111.809C184.005 111.983 183.853 112.124 183.669 112.232C183.484 112.352 183.278 112.417 183.061 112.428C182.844 112.471 182.627 112.471 182.41 112.395C182.28 112.341 182.15 112.287 182.02 112.232C181.77 112.091 181.586 111.896 181.434 111.646C181.379 111.516 181.325 111.386 181.271 111.256C181.195 110.995 181.195 110.703 181.271 110.41Z" fill="#49FCFC"/>
<path d="M185.437 99.7115C185.589 99.5705 185.503 99.5271 185.361 99.8417C185.383 99.7875 185.427 99.7224 185.459 99.679C185.253 100.004 185.318 100.015 185.372 99.82C185.448 99.5596 185.361 100.276 185.351 99.9936C185.351 99.9285 185.34 99.8634 185.34 99.7983C185.329 100.254 185.394 100.146 185.351 99.9719C185.296 99.7875 185.199 99.7766 185.427 100.113C185.405 100.08 185.286 99.9177 185.296 99.8851C185.296 99.8851 185.578 100.232 185.427 100.07C185.242 99.8743 185.795 100.287 185.557 100.167C185.34 100.048 185.47 100.211 185.709 100.221C185.687 100.211 185.665 100.211 185.644 100.2C185.47 100.167 185.535 100.167 185.828 100.221C185.795 100.221 185.774 100.221 185.741 100.221C185.568 100.232 185.633 100.221 185.926 100.189C185.882 100.211 185.73 100.254 185.687 100.254C185.763 100.221 185.839 100.189 185.915 100.156C185.861 100.178 185.817 100.211 185.763 100.232C185.709 100.265 185.665 100.297 185.622 100.33C185.839 100.156 185.882 100.135 185.752 100.243C185.709 100.297 185.654 100.352 185.6 100.406C185.459 100.547 185.806 100.048 185.676 100.319C185.654 100.363 185.578 100.558 185.546 100.569C185.578 100.504 185.6 100.428 185.633 100.363C185.611 100.428 185.589 100.493 185.568 100.558C185.535 100.655 185.524 100.753 185.503 100.851C185.416 101.198 185.524 100.46 185.503 100.818C185.492 101.057 185.481 101.296 185.481 101.534C185.481 101.686 185.524 101.849 185.503 102.001C185.546 101.632 185.448 101.708 185.503 101.914C185.535 102.044 185.665 102.272 185.459 101.838C185.47 101.86 185.492 101.882 185.503 101.914C185.416 101.762 185.296 101.643 185.144 101.556C185.394 101.708 184.743 101.448 185.025 101.513C184.927 101.502 184.83 101.491 184.743 101.48C184.797 101.48 184.841 101.491 184.895 101.48C184.591 101.534 184.526 101.534 184.689 101.502C184.743 101.491 184.786 101.48 184.841 101.458C184.765 101.491 184.678 101.523 184.602 101.556C184.645 101.534 184.7 101.502 184.743 101.48C184.678 101.534 184.613 101.589 184.537 101.643C184.58 101.61 184.613 101.578 184.656 101.534C184.797 101.415 184.559 101.491 184.569 101.654C184.569 101.632 184.689 101.426 184.7 101.415C184.667 101.491 184.635 101.556 184.613 101.632C184.635 101.578 184.656 101.513 184.667 101.458C184.7 101.372 184.721 101.274 184.732 101.187C184.754 101.1 184.754 100.992 184.786 100.905C184.754 101.176 184.743 101.231 184.765 101.057C184.776 100.992 184.776 100.927 184.786 100.872C184.808 100.666 184.808 100.46 184.808 100.254C184.808 99.9068 184.873 100.547 184.819 100.33C184.754 100.124 185.003 100.634 184.873 100.417C184.743 100.221 184.754 100.373 184.971 100.536C184.96 100.525 184.938 100.504 184.927 100.493C184.808 100.384 184.873 100.428 185.112 100.623C185.058 100.601 184.993 100.558 184.949 100.525C185.242 100.645 185.307 100.677 185.155 100.623C185.112 100.612 185.069 100.601 185.025 100.59C184.754 100.514 185.481 100.612 185.199 100.612C185.134 100.612 185.058 100.612 184.993 100.612C184.71 100.612 185.427 100.514 185.155 100.59C185.112 100.601 185.069 100.612 185.014 100.623C184.949 100.645 184.884 100.666 184.808 100.688C185.231 100.58 185.09 100.558 184.938 100.645C184.873 100.677 184.819 100.721 184.765 100.753C185.003 100.569 185.058 100.525 184.927 100.634C184.895 100.666 184.862 100.699 184.83 100.731C184.624 100.916 185.058 100.373 184.884 100.655C184.841 100.731 184.786 100.807 184.743 100.894C184.732 100.916 184.71 100.948 184.7 100.97C184.624 101.122 184.645 101.079 184.754 100.829C184.754 100.905 184.689 101.014 184.667 101.089C184.624 101.241 184.602 101.382 184.569 101.534C184.504 101.871 184.602 101.122 184.58 101.469C184.569 101.599 184.559 101.719 184.548 101.849C184.526 102.218 184.548 102.598 184.537 102.967C184.537 103.281 184.45 102.641 184.515 102.847C184.569 102.999 184.645 103.075 184.461 102.739C184.407 102.674 184.363 102.608 184.309 102.543C184.07 102.381 184.027 102.337 184.168 102.424C183.897 102.316 183.842 102.294 183.994 102.337C183.691 102.305 183.625 102.294 183.799 102.305C184.114 102.305 183.387 102.413 183.691 102.326C183.767 102.305 183.853 102.283 183.929 102.261C184.233 102.174 183.582 102.446 183.864 102.294C183.94 102.25 184.016 102.207 184.092 102.164C184.211 102.088 184.363 101.903 184.049 102.218C184.092 102.174 184.135 102.142 184.179 102.109C184.244 102.055 184.298 101.99 184.363 101.925C184.472 101.795 184.439 101.838 184.276 102.055C184.309 102.012 184.342 101.957 184.374 101.914C184.418 101.838 184.461 101.762 184.504 101.686C184.656 101.415 184.396 102.066 184.472 101.762C184.493 101.686 184.504 101.578 184.537 101.513C184.526 101.599 184.515 101.686 184.504 101.773C184.515 101.719 184.515 101.654 184.515 101.599C184.515 101.567 184.515 101.545 184.515 101.513C184.504 101.339 184.515 101.404 184.548 101.697C184.515 101.632 184.504 101.523 184.483 101.458C184.439 101.296 184.374 101.437 184.548 101.61C184.493 101.556 184.407 101.393 184.374 101.317C184.515 101.643 184.548 101.534 184.407 101.393C184.385 101.372 184.363 101.35 184.342 101.339C184.211 101.231 184.255 101.263 184.472 101.437C184.428 101.426 184.298 101.35 184.255 101.317C184.331 101.35 184.418 101.382 184.493 101.415C184.439 101.393 184.396 101.382 184.342 101.361C184.059 101.263 184.754 101.35 184.45 101.372C184.418 101.372 184.396 101.372 184.363 101.372C184.19 101.382 184.255 101.372 184.559 101.339C184.515 101.361 184.439 101.382 184.385 101.382C184.276 101.393 184.797 101.165 184.493 101.339C184.342 101.426 184.298 101.545 184.602 101.241C184.559 101.285 184.504 101.328 184.45 101.382C184.342 101.502 184.298 101.654 184.526 101.263C184.493 101.328 184.45 101.382 184.407 101.437C184.374 101.502 184.342 101.567 184.298 101.621C184.157 101.882 184.439 101.22 184.342 101.502C184.287 101.643 184.244 101.784 184.211 101.936C184.168 102.099 184.146 102.63 184.179 102.033C184.168 102.185 184.146 102.337 184.146 102.489C184.146 102.641 184.146 102.804 184.157 102.956C184.157 102.988 184.157 103.021 184.168 103.053C184.19 103.227 184.179 103.173 184.146 102.901C184.179 102.999 184.19 103.118 184.211 103.216C184.287 103.466 184.309 103.238 184.157 103.129C184.168 103.151 184.19 103.184 184.201 103.205C184.298 103.346 184.255 103.314 184.092 103.097C184.114 103.118 184.125 103.14 184.146 103.151C184.266 103.259 184.222 103.227 183.994 103.053C184.049 103.075 184.157 103.14 184.201 103.173C184.125 103.14 184.038 103.108 183.962 103.075C184.016 103.097 184.059 103.108 184.114 103.118C184.407 103.216 183.691 103.108 184.005 103.108C184.092 103.108 184.168 103.108 184.255 103.108C184.548 103.108 183.799 103.173 184.222 103.097C184.472 103.053 184.07 103.173 184.059 103.173C184.135 103.151 184.233 103.086 184.298 103.042C184.32 103.021 184.352 103.01 184.374 102.988C184.515 102.891 184.472 102.923 184.266 103.075C184.298 103.01 184.418 102.934 184.461 102.891C184.526 102.825 184.58 102.739 184.645 102.684C184.602 102.75 184.548 102.804 184.504 102.869C184.537 102.815 184.569 102.771 184.613 102.717C184.667 102.641 184.71 102.554 184.754 102.478C184.786 102.424 184.808 102.37 184.841 102.316C184.906 102.164 184.895 102.207 184.797 102.446C184.808 102.272 184.949 102.033 184.993 101.86C185.003 101.806 185.025 101.589 185.058 101.556C185.025 101.816 185.014 101.86 185.036 101.686C185.047 101.621 185.047 101.545 185.047 101.48C185.047 101.382 185.036 101.274 185.036 101.176C185.014 101.003 185.025 101.046 185.058 101.306C185.047 101.241 185.036 101.176 185.014 101.111C185.003 101.079 184.993 101.046 184.982 101.014C184.927 100.84 184.938 100.883 185.047 101.133C184.982 101.046 184.938 100.927 184.884 100.829C184.732 100.558 185.101 101.068 184.96 100.916C184.884 100.84 184.819 100.775 184.743 100.699C184.515 100.482 185.079 100.894 184.797 100.742C184.754 100.71 184.7 100.688 184.645 100.655C184.493 100.58 184.548 100.601 184.797 100.721C184.732 100.721 184.624 100.666 184.559 100.655C184.287 100.58 185.003 100.688 184.569 100.677C184.255 100.666 184.96 100.58 184.689 100.666C184.645 100.677 184.602 100.688 184.559 100.699C184.407 100.753 184.472 100.721 184.765 100.612C184.732 100.634 184.689 100.655 184.645 100.677C184.472 100.775 184.407 100.948 184.71 100.612C184.667 100.655 184.613 100.699 184.569 100.742C184.309 101.014 184.754 100.449 184.613 100.666C184.526 100.807 184.461 100.948 184.374 101.089C184.613 100.666 184.483 100.818 184.428 100.97C184.396 101.068 184.363 101.155 184.342 101.252C184.298 101.393 184.266 101.545 184.244 101.697C184.233 101.773 184.222 101.849 184.211 101.925C184.32 101.361 184.233 101.73 184.222 101.871C184.19 102.218 184.19 102.576 184.201 102.923C184.233 103.769 183.43 104.594 182.573 104.551C181.662 104.507 180.989 103.835 180.946 102.923C180.859 100.84 181.445 98.3661 183.625 97.5958C184.917 97.1401 186.479 97.6717 187.325 98.7242C188.302 99.9285 188.519 101.513 188.052 102.977C187.662 104.225 186.87 105.473 185.633 106.026C184.146 106.688 182.399 106.363 181.455 104.974C181.043 104.366 180.924 103.596 180.891 102.869C180.859 102.348 180.924 101.816 181.021 101.296C181.228 100.2 181.846 99.0822 182.833 98.5289C184.114 97.8019 185.774 98.0732 186.761 99.169C187.314 99.7875 187.629 100.504 187.716 101.328C187.792 102.012 187.586 102.695 187.282 103.303C186.696 104.475 185.437 105.332 184.157 105.505C183.191 105.636 182.215 105.288 181.672 104.453C181.271 103.845 181.249 103.118 181.249 102.413C181.249 101.198 181.39 99.8634 182.15 98.8544C182.942 97.8019 184.179 97.216 185.513 97.3896C187.076 97.5958 188.063 98.8869 188.041 100.449C188.02 101.882 187.662 103.433 186.392 104.269C185.752 104.692 184.884 104.854 184.146 104.648C183.267 104.41 182.638 103.715 182.378 102.858C182.193 102.272 182.193 101.589 182.226 100.981C182.28 100.2 182.432 99.4403 182.812 98.7567C183.528 97.4873 185.112 96.641 186.555 97.0967C187.814 97.4873 188.703 98.8218 188.573 100.146C188.508 100.862 188.258 101.534 187.727 102.033C187.097 102.608 186.034 102.695 185.427 102.033C184.862 101.382 184.776 100.33 185.437 99.7115Z" fill="white"/>
<path d="M177.159 107.404C177.05 107.296 176.953 107.198 176.844 107.089C176.052 106.352 175.488 105.484 175.162 104.475C174.653 103.509 174.425 102.457 174.457 101.339C174.414 100.221 174.653 99.169 175.162 98.2033C175.488 97.1943 176.052 96.3263 176.844 95.5885C177.398 95.1653 177.94 94.7422 178.493 94.319C179.763 93.5812 181.13 93.2123 182.606 93.2123C183.322 93.31 184.049 93.4076 184.765 93.5053C186.143 93.8959 187.336 94.5903 188.356 95.5993C188.465 95.7078 188.562 95.8055 188.671 95.914C189.463 96.6518 190.027 97.5198 190.352 98.5288C190.862 99.4945 191.09 100.547 191.058 101.664C191.101 102.782 190.862 103.834 190.352 104.8C190.027 105.809 189.463 106.677 188.671 107.415C188.117 107.838 187.575 108.261 187.022 108.684C185.752 109.422 184.385 109.791 182.909 109.791C182.193 109.693 181.466 109.596 180.75 109.498C179.372 109.118 178.168 108.413 177.159 107.404Z" fill="white"/>
<path d="M182.595 104.594C178.407 104.594 178.396 98.084 182.595 98.084C186.783 98.084 186.794 104.594 182.595 104.594Z" fill="black"/>
<path d="M182.909 99.6681C183.018 99.6681 183.115 99.6681 183.224 99.6681C183.278 99.6681 183.332 99.6789 183.376 99.7006C183.43 99.7223 183.473 99.744 183.506 99.7874C183.549 99.82 183.571 99.8634 183.593 99.9176C183.615 99.961 183.625 100.015 183.625 100.07C183.625 100.102 183.615 100.145 183.615 100.178C183.593 100.243 183.56 100.308 183.506 100.362C183.473 100.384 183.452 100.406 183.419 100.428C183.354 100.46 183.289 100.482 183.213 100.482C183.105 100.482 183.007 100.482 182.898 100.482C182.844 100.482 182.79 100.471 182.747 100.449C182.692 100.428 182.649 100.406 182.616 100.362C182.573 100.33 182.551 100.287 182.53 100.232C182.508 100.189 182.497 100.135 182.497 100.08C182.497 100.048 182.508 100.004 182.508 99.9719C182.53 99.9068 182.562 99.8417 182.616 99.7874C182.649 99.7657 182.671 99.744 182.703 99.7223C182.768 99.6898 182.833 99.6681 182.909 99.6681Z" fill="black"/>
<path d="M184.114 100.97C184.005 101.079 183.907 101.176 183.799 101.285C183.723 101.361 183.636 101.415 183.539 101.458C183.441 101.513 183.332 101.534 183.224 101.523C183.115 101.523 183.007 101.502 182.909 101.458C182.812 101.426 182.725 101.372 182.649 101.285C182.605 101.23 182.562 101.176 182.519 101.122C182.443 100.992 182.41 100.862 182.41 100.71C182.421 100.634 182.432 100.569 182.443 100.493C182.486 100.352 182.551 100.232 182.649 100.135C182.757 100.026 182.855 99.9285 182.963 99.82C183.039 99.744 183.126 99.6898 183.224 99.6464C183.322 99.5921 183.43 99.5704 183.539 99.5813C183.647 99.5813 183.756 99.603 183.853 99.6464C183.951 99.6789 184.038 99.7332 184.114 99.82C184.157 99.8742 184.2 99.9285 184.244 99.9827C184.32 100.113 184.352 100.243 184.352 100.395C184.341 100.471 184.331 100.536 184.32 100.612C184.287 100.742 184.222 100.862 184.114 100.97Z" fill="#FFF0FF"/>
<path d="M60.76 100.666C56.6587 100.992 52.655 98.2467 51.353 94.3733C51.0167 93.3751 52.5899 92.9519 52.9263 93.9393C54.0113 97.1617 57.3965 99.2992 60.7708 99.0388C61.2048 99.0062 61.5846 99.4402 61.5846 99.8525C61.5737 100.33 61.194 100.634 60.76 100.666Z" fill="#E432ED"/>
<path d="M59.1977 107.252C55.5087 107.285 51.8197 106.862 48.2284 106.026C47.2085 105.787 47.6425 104.214 48.6624 104.453C52.1235 105.267 55.6498 105.657 59.1977 105.625C60.2502 105.614 60.2502 107.241 59.1977 107.252Z" fill="#E432ED"/>
<path d="M60.9011 113.393C57.288 112.862 53.5556 115.444 52.6117 118.927C52.3404 119.936 50.7671 119.513 51.0384 118.493C52.2319 114.077 56.8432 111.169 61.3242 111.831C61.7582 111.896 61.9969 112.449 61.8884 112.829C61.769 113.296 61.3351 113.458 60.9011 113.393Z" fill="#E432ED"/>
<path d="M100.97 138.12C98.4854 140.941 94.829 142.612 91.0749 142.677C90.0224 142.699 90.0224 141.072 91.0749 141.05C94.4275 140.985 97.6066 139.477 99.82 136.97C100.514 136.178 101.664 137.339 100.97 138.12Z" fill="#E432ED"/>
<path d="M92.0296 135.093C89.7728 136.667 86.9518 137.231 84.261 136.743C83.827 136.667 83.5883 136.135 83.6968 135.744C83.827 135.289 84.261 135.093 84.695 135.18C86.9735 135.592 89.328 135.007 91.2159 133.694C91.5739 133.444 92.1164 133.629 92.3334 133.987C92.5613 134.388 92.3985 134.844 92.0296 135.093Z" fill="#E432ED"/>
<path d="M94.4059 70.2755C92.3986 67.1941 88.7205 65.4364 85.064 65.6968C84.0224 65.7727 84.0224 64.1452 85.064 64.0693C89.2955 63.7655 93.5053 65.9138 95.8164 69.4617C96.3914 70.3297 94.9809 71.1434 94.4059 70.2755Z" fill="#E432ED"/>
<path d="M87.8958 72.0331C86.3985 70.1235 83.8922 69.0494 81.4726 69.44C81.0386 69.5159 80.5938 69.3315 80.4744 68.8758C80.3659 68.4852 80.6046 67.9427 81.0386 67.8776C84.0007 67.3893 87.158 68.496 89.0351 70.883C89.3063 71.2302 89.3714 71.6968 89.0351 72.0331C88.7638 72.3152 88.1671 72.3803 87.8958 72.0331Z" fill="#E432ED"/>
<path d="M144.696 64.2211C141.31 60.3802 137.296 55.9101 131.73 55.9643C130.677 55.9752 130.677 54.3477 131.73 54.3368C137.773 54.2717 142.146 58.8721 145.846 63.0711C146.54 63.8522 145.39 65.0023 144.696 64.2211Z" fill="#E432ED"/>
<path d="M135.126 66.1633C133.054 62.8866 129.701 60.5647 125.925 59.7292C124.905 59.5014 125.339 57.939 126.359 58.156C130.547 59.0782 134.247 61.7148 136.536 65.3387C137.101 66.2284 135.69 67.053 135.126 66.1633Z" fill="#E432ED"/>
<path d="M181.228 118.102C181.38 116.638 181.521 115.184 181.672 113.719C181.727 113.187 181.879 112.775 182.313 112.439C182.692 112.146 183.257 111.972 183.734 112.146C184.483 112.428 185.09 112.786 185.698 113.307C186.121 113.675 186.273 114.37 186.121 114.891C186.002 115.26 185.893 115.639 185.774 116.008C185.654 116.41 185.394 116.768 185.025 116.985C184.678 117.191 184.157 117.278 183.767 117.147C182.953 116.887 182.356 116.019 182.627 115.14C182.747 114.771 182.855 114.392 182.974 114.023C183.116 114.554 183.257 115.075 183.398 115.607C183.322 115.542 183.246 115.477 183.17 115.422C183.278 115.509 183.387 115.596 183.495 115.672C183.246 115.477 182.974 115.325 182.682 115.194C182.812 115.249 182.942 115.303 183.072 115.357C183.007 115.325 182.942 115.303 182.866 115.281C183.55 114.76 184.244 114.24 184.927 113.708C184.776 115.173 184.635 116.627 184.483 118.091C184.439 118.536 184.331 118.916 184.005 119.242C183.723 119.524 183.257 119.741 182.855 119.719C182.432 119.697 181.998 119.567 181.705 119.242C181.434 118.949 181.184 118.525 181.228 118.102Z" fill="#49FCFC"/>
<path d="M156.305 113.719C152.562 121.77 147.81 131.133 138.251 133.129C134.388 133.932 129.603 133.281 127.119 129.885C124.591 126.424 125.686 121.694 127.238 118.07C129.484 112.851 133.054 108.37 136.569 103.954C137.22 103.14 138.37 104.29 137.719 105.104C135.028 108.478 132.327 111.885 130.222 115.683C128.377 119.014 126.337 123.419 127.607 127.292C128.985 131.513 134.215 132.37 138.023 131.513C141.994 130.623 145.39 128.117 147.961 125.035C150.956 121.444 152.942 117.126 154.895 112.905C155.339 111.95 156.739 112.775 156.305 113.719Z" fill="#E432ED"/>
<path d="M148.222 115.628C147.484 116.93 146.746 118.243 145.998 119.545C145.347 120.695 144.717 121.867 143.936 122.931C142.439 124.981 140.171 126.782 137.48 126.5C137.046 126.457 136.667 126.153 136.667 125.686C136.667 125.285 137.035 124.829 137.48 124.873C139.867 125.111 141.712 123.375 142.938 121.52C144.359 119.372 145.542 117.039 146.811 114.804C147.332 113.892 148.743 114.717 148.222 115.628Z" fill="#E432ED"/>
<path d="M140.811 113.838C139.716 118.308 136.981 122.258 133.216 124.894C132.359 125.502 131.545 124.091 132.392 123.484C135.81 121.086 138.251 117.451 139.238 113.393C139.488 112.384 141.061 112.818 140.811 113.838Z" fill="#E432ED"/>
<path d="M198.512 107.339C198.783 107.426 198.425 107.339 198.436 107.372C198.446 107.393 198.598 107.144 198.598 107.155C198.729 106.927 198.783 106.666 198.848 106.417C198.989 105.82 199.13 105.212 199.184 104.605C199.239 104.019 199.271 103.335 199.022 102.782C198.967 102.652 198.891 102.511 198.783 102.435C198.739 102.402 198.631 102.348 198.598 102.337C198.588 102.337 198.446 102.359 198.522 102.337C198.588 102.326 198.512 102.326 198.479 102.359C198.381 102.446 198.316 102.511 198.219 102.695C198.099 102.912 198.056 103.064 197.98 103.325C197.795 103.921 197.654 104.551 197.589 105.169C197.535 105.766 197.524 106.384 197.6 106.981C197.622 107.111 197.644 107.241 197.665 107.361C197.687 107.469 197.72 107.567 197.741 107.599C197.752 107.632 197.806 107.654 197.763 107.643C197.752 107.643 197.568 107.599 197.568 107.578C197.557 107.545 197.676 107.339 197.687 107.296C197.741 107.122 197.795 106.938 197.839 106.764C197.937 106.417 198.034 106.059 198.121 105.712C198.284 105.006 198.392 104.312 198.381 103.585C198.891 103.726 199.39 103.856 199.9 103.997C199.456 104.963 199 105.929 198.555 106.894C198.175 107.719 196.71 107.122 197.069 106.265C197.47 105.288 197.85 104.312 198.197 103.314C198.696 103.52 199.184 103.737 199.683 103.943C199.249 104.54 198.902 105.18 198.653 105.874C198.154 105.668 197.665 105.451 197.166 105.245C197.589 104.518 197.904 103.748 198.132 102.934C198.588 103.194 199.043 103.466 199.488 103.726C199.228 103.965 199.108 104.225 199.043 104.572C198.522 104.431 198.002 104.279 197.47 104.138C197.6 103.737 197.741 103.335 197.871 102.934C198.392 103.075 198.913 103.227 199.445 103.368C199.304 103.769 199.163 104.182 199.022 104.583C198.88 104.995 198.468 105.278 198.023 105.147C197.622 105.039 197.307 104.561 197.459 104.149C197.6 103.748 197.741 103.335 197.882 102.934C198.023 102.522 198.436 102.24 198.88 102.37C199.282 102.478 199.586 102.956 199.445 103.368C199.314 103.769 199.173 104.171 199.043 104.572C198.707 105.57 197.286 105.169 197.47 104.138C197.578 103.542 197.893 102.988 198.327 102.576C198.913 102.023 199.911 102.565 199.683 103.368C199.423 104.312 199.043 105.212 198.555 106.07C198.11 106.851 196.754 106.33 197.069 105.44C197.361 104.616 197.741 103.834 198.262 103.118C198.501 102.793 198.88 102.608 199.282 102.782C199.629 102.934 199.89 103.357 199.748 103.737C199.401 104.735 199.022 105.712 198.62 106.688C198.121 106.482 197.633 106.265 197.134 106.059C197.578 105.093 198.034 104.127 198.479 103.162C198.837 102.391 199.976 102.815 199.998 103.574C200.02 104.54 199.846 105.505 199.607 106.438C199.39 107.285 199.228 108.381 198.468 108.923C197.676 109.487 196.667 109.151 196.266 108.294C195.897 107.491 195.875 106.482 195.918 105.603C195.962 104.659 196.135 103.715 196.418 102.815C196.635 102.098 196.971 101.328 197.654 100.938C198.501 100.449 199.553 100.764 200.139 101.502C200.714 102.229 200.866 103.227 200.833 104.127C200.801 105.147 200.606 106.243 200.313 107.209C200.02 108.174 199.228 109.259 198.078 108.891C197.09 108.598 197.513 107.024 198.512 107.339Z" fill="#E432ED"/>
<path d="M197.296 107.523C197.437 107.534 197.589 107.534 197.73 107.513C197.654 107.523 197.589 107.534 197.513 107.545C197.687 107.523 197.85 107.48 198.013 107.415C197.947 107.448 197.882 107.469 197.817 107.502C197.915 107.458 198.002 107.415 198.088 107.361C198.338 107.209 198.664 107.22 198.913 107.361C199.032 107.437 199.13 107.534 199.206 107.654C199.282 107.784 199.315 107.914 199.315 108.066C199.336 108.229 199.271 108.457 199.173 108.608C199.076 108.771 198.956 108.891 198.794 108.988C198.718 109.032 198.62 109.075 198.533 109.108C198.512 109.118 198.479 109.118 198.457 109.129C198.24 109.173 198.088 109.173 197.871 109.129C197.752 109.108 197.622 109.053 197.524 108.977C197.448 108.923 197.362 108.858 197.286 108.782C197.22 108.706 197.155 108.619 197.09 108.543C196.993 108.413 196.917 108.272 196.83 108.131C196.776 108.033 196.743 107.936 196.732 107.827C196.711 107.719 196.711 107.61 196.743 107.502C196.797 107.317 196.938 107.111 197.112 107.014C197.296 106.916 197.524 106.862 197.741 106.927C197.806 106.959 197.871 106.981 197.937 107.014C198.056 107.089 198.154 107.187 198.23 107.306C198.327 107.437 198.403 107.589 198.501 107.719C198.457 107.665 198.414 107.61 198.371 107.556C198.403 107.599 198.447 107.643 198.49 107.686C198.436 107.643 198.381 107.599 198.327 107.556C198.36 107.578 198.381 107.599 198.414 107.61C198.349 107.578 198.284 107.556 198.219 107.523C198.251 107.534 198.284 107.545 198.327 107.556C198.251 107.545 198.186 107.534 198.11 107.523C198.154 107.523 198.197 107.523 198.23 107.523C198.154 107.534 198.088 107.545 198.013 107.556C198.045 107.545 198.078 107.545 198.11 107.523C198.045 107.556 197.98 107.578 197.915 107.61C197.947 107.599 197.969 107.589 197.991 107.567C197.937 107.61 197.882 107.654 197.828 107.697C197.839 107.686 197.861 107.675 197.871 107.654C197.828 107.708 197.785 107.762 197.741 107.816C197.752 107.806 197.763 107.784 197.774 107.762C197.741 107.827 197.72 107.892 197.687 107.957C197.698 107.936 197.698 107.925 197.698 107.903C197.687 107.979 197.676 108.044 197.665 108.12C197.665 108.099 197.665 108.088 197.665 108.066C198.078 108.305 198.479 108.533 198.891 108.771C198.739 108.858 198.588 108.934 198.425 108.999C198.327 109.042 198.23 109.075 198.121 109.097C197.85 109.162 197.557 109.194 197.275 109.173C197.166 109.173 197.058 109.151 196.96 109.108C196.862 109.075 196.776 109.021 196.7 108.934C196.559 108.793 196.45 108.565 196.461 108.359C196.472 108.153 196.537 107.925 196.7 107.784C196.873 107.621 197.079 107.502 197.296 107.523Z" fill="#E432ED"/>
<path d="M184.938 118.569C184.884 118.591 184.83 118.623 184.775 118.645C184.591 118.764 184.385 118.829 184.168 118.84C183.951 118.883 183.734 118.883 183.517 118.808C183.3 118.753 183.115 118.656 182.963 118.515C182.79 118.395 182.649 118.243 182.54 118.059C182.486 117.929 182.432 117.798 182.378 117.668C182.302 117.375 182.302 117.093 182.378 116.8C182.432 116.67 182.486 116.54 182.54 116.41C182.681 116.16 182.877 115.976 183.126 115.824C183.18 115.802 183.235 115.77 183.289 115.748C183.473 115.628 183.68 115.563 183.897 115.553C184.114 115.509 184.331 115.509 184.548 115.585C184.765 115.639 184.949 115.737 185.101 115.878C185.275 115.997 185.416 116.149 185.524 116.334C185.578 116.464 185.633 116.594 185.687 116.724C185.763 117.017 185.763 117.299 185.687 117.592C185.633 117.723 185.578 117.853 185.524 117.983C185.383 118.232 185.188 118.428 184.938 118.569Z" fill="#49FCFC"/>
</g>
<defs>
<clipPath id="clip0">
<rect width="217" height="217" fill="white" transform="matrix(-1 0 0 1 217 0)"/>
</clipPath>
</defs>
</svg>
