<svg width="281" height="281" viewBox="0 0 281 281" fill="none" xmlns="http://www.w3.org/2000/svg">
<g clip-path="url(#clip0)">
<path d="M72.3574 165.79C62.6579 165.79 54.7949 153.524 54.7949 138.392C54.7949 123.261 62.6579 110.995 72.3574 110.995C82.0569 110.995 89.9199 123.261 89.9199 138.392C89.9199 153.524 82.0569 165.79 72.3574 165.79Z" fill="#E65EEA"/>
<path d="M70.5168 122.839C75.2938 131.522 85.5784 135.217 94.8373 131.761C97.3804 130.82 98.4763 134.88 95.9614 135.821C85.0023 139.896 72.5119 135.175 66.8919 124.961C65.5712 122.6 69.2101 120.465 70.5168 122.839Z" fill="#E65EEA"/>
<path d="M69.5336 151.824C73.6081 149 77.9496 146.57 82.5018 144.617C84.7779 143.647 87.0821 142.762 89.4425 142.003C91.845 141.231 94.1492 140.641 96.5377 141.751C97.5634 142.228 97.8303 143.718 97.2964 144.631C96.6782 145.685 95.4559 145.867 94.4162 145.389C93.6575 145.038 92.5756 145.46 91.831 145.685C90.8334 145.98 89.8499 146.303 88.8804 146.64C86.8853 147.328 84.9184 148.115 83.0076 148.986C79.0314 150.799 75.2519 152.976 71.6692 155.477C69.4212 157.023 67.3137 153.37 69.5336 151.824Z" fill="#E65EEA"/>
<path d="M76.7973 143.268C76.7832 143.338 76.7832 143.408 76.7973 143.479C76.7692 143.296 76.7411 143.099 76.727 142.917C76.7411 142.987 76.7551 143.043 76.7692 143.113C76.6989 142.945 76.6287 142.776 76.5584 142.608C76.6006 142.692 76.6427 142.762 76.6849 142.832C76.5725 142.692 76.4601 142.551 76.3617 142.411C76.4179 142.481 76.4882 142.537 76.5584 142.593C76.4179 142.481 76.2774 142.369 76.1369 142.27C76.2353 142.341 76.3336 142.397 76.446 142.439C76.2774 142.369 76.1088 142.298 75.9402 142.228C76.0526 142.27 76.165 142.298 76.2915 142.327C76.1088 142.298 75.9121 142.27 75.7294 142.256C75.8559 142.27 75.9683 142.27 76.0948 142.256C75.9121 142.284 75.7154 142.312 75.5327 142.327C75.6592 142.312 75.7716 142.284 75.884 142.228C75.7154 142.298 75.5468 142.369 75.3782 142.439C75.4765 142.383 75.5749 142.327 75.6592 142.256C75.5187 142.369 75.3782 142.481 75.2377 142.579C75.3782 142.467 75.4906 142.341 75.603 142.2C75.4906 142.341 75.3782 142.481 75.2799 142.622C75.4204 142.425 75.5328 142.214 75.6311 142.003C75.5609 142.172 75.4906 142.341 75.4203 142.509C75.6592 141.933 75.7575 141.329 75.9121 140.739C76.1509 139.826 76.5443 139.011 77.1625 138.308C77.7105 137.676 78.7361 137.564 79.4667 137.873C80.1693 138.168 80.8436 138.983 80.7593 139.798C80.6891 140.542 80.7032 141.273 80.7875 142.017C80.7594 141.835 80.7312 141.638 80.7172 141.455C80.8015 142.031 80.9279 142.608 81.1106 143.17C79.7337 143.352 78.3568 143.549 76.9658 143.732C76.9518 142.72 76.9377 141.722 76.9377 140.711C76.9237 139.657 77.7526 138.772 78.7642 138.645C79.2138 138.589 79.7197 138.645 80.1131 138.898C80.5346 139.179 81.0123 139.629 81.0825 140.163C81.2371 141.217 81.3776 142.27 81.5321 143.324C80.1552 143.507 78.7783 143.703 77.3874 143.886C77.3874 142.158 77.3733 140.416 77.3733 138.688C78.7783 138.688 80.1833 138.688 81.5883 138.688C81.5602 139.643 81.6024 140.598 81.7288 141.54C81.7007 141.357 81.6726 141.16 81.6585 140.978C81.7428 141.526 81.8412 142.074 81.9676 142.622C80.5907 142.804 79.2139 143.001 77.8229 143.184C77.9634 141.75 78.1179 140.331 78.2584 138.898C79.6353 139.081 81.0122 139.278 82.4032 139.46C82.4032 139.502 82.3892 139.545 82.3892 139.573C82.4173 139.39 82.4454 139.193 82.4594 139.011C82.3189 140.064 82.3189 141.118 82.4594 142.158C82.4313 141.975 82.4032 141.779 82.3892 141.596C82.4454 142.06 82.5437 142.523 82.6561 142.973C81.3073 142.973 79.9445 142.973 78.5957 142.973C78.68 142.706 78.7361 142.439 78.7642 142.158C78.7361 142.341 78.708 142.537 78.694 142.72C78.7502 142.256 78.7502 141.807 78.694 141.343C78.7221 141.526 78.7502 141.722 78.7642 141.905C78.694 141.385 78.5535 140.879 78.3568 140.402C78.4271 140.57 78.4973 140.739 78.5676 140.907C78.3849 140.486 78.146 140.093 77.865 139.727C77.9774 139.868 78.0898 140.008 78.1882 140.149C77.9915 139.91 77.7948 139.685 77.5559 139.474C76.741 138.73 76.741 137.24 77.5559 136.496C78.427 135.695 79.6635 135.709 80.5346 136.496C82.5859 138.35 83.4148 141.441 82.6421 144.083C82.3892 144.94 81.5321 145.67 80.6048 145.628C79.6915 145.586 78.8064 145.01 78.5676 144.083C78.3428 143.141 78.2022 142.172 78.146 141.217C78.0898 140.247 78.1882 139.292 78.3287 138.322C78.399 137.859 78.9048 137.269 79.2982 137.058C79.7197 136.833 80.1692 136.749 80.6469 136.805C81.5883 136.931 82.5859 137.831 82.4735 138.87C82.333 140.303 82.1784 141.722 82.0379 143.155C81.9817 143.703 81.8412 144.251 81.4197 144.645C81.0684 144.968 80.675 145.165 80.2114 145.221C79.2138 145.361 78.1461 144.743 77.8932 143.717C77.4998 142.074 77.3031 140.36 77.3733 138.659C77.4155 137.564 78.3147 136.496 79.4808 136.552C80.6189 136.608 81.5883 137.479 81.5883 138.659C81.5883 140.388 81.6024 142.13 81.6024 143.858C81.6024 144.912 80.8015 145.797 79.7759 145.923C79.3263 145.98 78.8205 145.923 78.4271 145.67C78.0056 145.389 77.5279 144.94 77.4576 144.406C77.3031 143.352 77.1625 142.298 77.008 141.245C78.3849 141.062 79.7618 140.865 81.1527 140.683C81.1668 141.694 81.1809 142.692 81.1809 143.703C81.1949 144.757 80.3659 145.642 79.3543 145.769C78.2865 145.909 77.3733 145.263 77.0361 144.265C76.5725 142.832 76.3758 141.273 76.5303 139.783C77.7246 140.275 78.9329 140.781 80.1271 141.273C80.085 141.315 80.0428 141.371 80.0007 141.413C80.1131 141.273 80.2255 141.132 80.3238 140.992C80.1833 141.174 80.0849 141.357 79.9866 141.568C80.0568 141.399 80.1271 141.231 80.1974 141.062C79.9164 141.75 79.8321 142.481 79.6073 143.184C79.256 144.279 78.68 145.235 77.7246 145.895C76.6849 146.612 75.3782 146.542 74.2823 146.05C73.2707 145.586 72.4417 144.392 72.5682 143.254C72.6244 142.678 72.7649 142.186 73.1864 141.765C73.5517 141.399 74.1558 141.118 74.6757 141.146C75.2236 141.174 75.7857 141.343 76.165 141.765C76.5303 142.172 76.8535 142.72 76.7973 143.268Z" fill="#E65EEA"/>
<path d="M79.6777 138.912C79.7479 139.081 79.8463 139.236 79.9446 139.39C79.8322 139.25 79.7198 139.109 79.6215 138.969C79.7339 139.109 79.8603 139.236 80.0008 139.362C79.8603 139.25 79.7198 139.137 79.5793 139.039C79.7198 139.151 79.8744 139.236 80.043 139.32C79.0876 139.573 78.1181 139.826 77.1627 140.079C77.1768 140.064 77.1768 140.036 77.1908 140.022C77.1206 140.191 77.0503 140.36 76.9801 140.528C77.1206 140.191 77.2049 139.84 77.2611 139.474C77.233 139.657 77.2049 139.854 77.1908 140.036C77.233 139.657 77.233 139.264 77.1908 138.884C77.2189 139.067 77.2471 139.264 77.2611 139.446C77.2049 139.067 77.1065 138.688 76.952 138.336C77.0222 138.505 77.0925 138.674 77.1627 138.842C77.0644 138.631 76.966 138.421 76.8396 138.224C76.5586 137.774 76.4883 137.114 76.6288 136.594C76.7693 136.102 77.1346 135.583 77.5983 135.33C78.09 135.077 78.6801 134.936 79.2281 135.119C79.762 135.287 80.1835 135.611 80.4926 136.088C81.0686 137.002 81.3496 138.041 81.4339 139.109C81.4761 139.643 81.4058 140.163 81.3215 140.697C81.2372 141.231 81.0265 141.708 80.8157 142.214C80.6893 142.453 80.5066 142.664 80.2678 142.804C80.0711 142.987 79.8322 143.113 79.5512 143.184C79.3686 143.212 79.1719 143.24 78.9892 143.254C78.6099 143.254 78.2586 143.155 77.9214 142.973C77.514 142.79 77.1346 142.495 76.8255 142.186C76.5164 141.877 76.2214 141.498 76.0387 141.076C75.8842 140.837 75.7999 140.57 75.7859 140.289C75.7297 140.008 75.7297 139.727 75.828 139.446C75.9685 138.955 76.3338 138.435 76.7974 138.182C77.2892 137.929 77.8793 137.788 78.4272 137.971C78.9049 138.112 79.4669 138.435 79.6777 138.912Z" fill="#E65EEA"/>
<path d="M80.3239 139.418C80.5206 139.924 80.7313 140.444 80.928 140.95C80.7454 140.641 80.5627 140.331 80.3801 140.022C80.3941 140.036 80.4082 140.036 80.4082 140.05C80.2677 139.938 80.1272 139.826 79.9867 139.727C80.0991 139.812 80.2255 139.882 80.366 139.938C80.1974 139.868 80.0288 139.798 79.8602 139.727C80.0288 139.798 80.1834 139.84 80.366 139.854C80.1834 139.826 79.9867 139.798 79.804 139.783C79.9726 139.798 80.1553 139.798 80.3239 139.783C80.1412 139.812 79.9445 139.84 79.7619 139.854C79.9445 139.826 80.1272 139.783 80.3098 139.713C80.1412 139.783 79.9726 139.854 79.804 139.924C79.9445 139.854 80.085 139.783 80.2115 139.685C80.071 139.798 79.9305 139.91 79.79 140.008C79.9024 139.924 80.0007 139.812 80.0991 139.699C79.9867 139.84 79.8743 139.98 79.7759 140.121C79.8602 140.008 79.9305 139.882 80.0007 139.741C79.9305 139.91 79.8602 140.079 79.79 140.247C79.8602 140.093 79.9024 139.924 79.9305 139.741C79.9024 139.924 79.8743 140.121 79.8602 140.303C79.8883 140.121 79.8883 139.924 79.8602 139.741C79.8883 139.924 79.9164 140.121 79.9305 140.303C79.9024 140.135 79.8602 139.966 79.79 139.798C79.8602 139.966 79.9305 140.135 80.0007 140.303C79.9305 140.149 79.8462 139.994 79.7478 139.854C79.8602 139.994 79.9726 140.135 80.071 140.275C79.9726 140.163 79.8743 140.064 79.7619 139.966C80.7594 139.966 81.7429 139.966 82.7405 139.966C82.4314 140.205 82.1222 140.444 81.8132 140.683C81.6165 140.893 81.3917 141.034 81.1388 141.118C80.8859 141.245 80.6189 141.315 80.3239 141.301C79.804 141.301 79.1858 141.076 78.8346 140.683C78.4693 140.275 78.1883 139.755 78.2164 139.193C78.2445 139.011 78.2726 138.814 78.2866 138.631C78.385 138.28 78.5676 137.971 78.8346 137.704C79.1437 137.465 79.4528 137.226 79.7619 136.988C79.9586 136.777 80.1834 136.636 80.4363 136.552C80.6892 136.426 80.9561 136.355 81.2512 136.369C81.4338 136.397 81.6305 136.426 81.8132 136.44C82.1644 136.538 82.4735 136.721 82.7405 136.988C82.8388 137.058 82.9231 137.142 83.0074 137.24C83.1901 137.465 83.3867 137.69 83.5272 137.957C83.6677 138.21 83.7801 138.491 83.8785 138.758C83.9206 138.87 83.9488 138.997 83.9769 139.123C84.0331 139.404 84.0752 139.713 84.0752 140.008C84.0752 140.317 84.019 140.626 83.9769 140.922C83.9628 141.034 83.9347 141.146 83.8926 141.259C83.7942 141.54 83.6818 141.821 83.5272 142.074C83.0074 142.945 82.1644 143.563 81.1949 143.844C80.7875 143.956 80.3379 144.027 79.9164 143.998C79.6214 143.984 79.3404 143.942 79.0594 143.886C78.7784 143.83 78.4833 143.689 78.2304 143.577C78.104 143.521 77.9916 143.451 77.8792 143.38C77.7246 143.268 77.556 143.155 77.4155 143.029C77.0783 142.706 77.0081 142.481 76.8395 142.06C76.7973 141.961 76.7692 141.877 76.7271 141.779C76.5725 141.371 76.4039 140.964 76.2494 140.556C76.1651 140.275 76.151 139.994 76.2072 139.713C76.2213 139.432 76.3056 139.165 76.4601 138.926C76.713 138.491 77.2188 138.069 77.7246 137.957C78.2585 137.831 78.8767 137.859 79.3544 138.168C79.4949 138.28 79.6354 138.393 79.7759 138.491C80.0429 138.744 80.2115 139.053 80.3239 139.418Z" fill="#E65EEA"/>
<path d="M81.1669 142.678C81.3496 143.198 81.5322 143.703 81.7149 144.223C80.6892 143.802 79.6495 143.38 78.6239 142.959C78.947 142.748 78.5536 143.057 78.7222 142.902C78.8065 142.818 78.9049 142.734 78.9892 142.636C79.1297 142.481 78.8908 142.86 79.0594 142.537C79.0875 142.495 79.3264 142.045 79.214 142.284C79.1156 142.495 79.2561 142.144 79.2702 142.102C79.3123 141.947 79.3545 141.807 79.3826 141.652C79.3545 141.863 79.3685 141.863 79.3545 141.652C79.3404 141.455 79.3404 141.287 79.3123 141.09C80.3661 141.694 81.4198 142.298 82.4876 142.917C82.1223 143.071 81.7851 143.254 81.462 143.479C81.7008 143.31 81.462 143.493 81.3636 143.577C81.2231 143.703 81.0826 143.858 80.9562 143.998C80.8157 144.167 81.0686 143.802 80.8719 144.111C80.7735 144.279 80.6752 144.448 80.5768 144.617C80.3801 144.982 80.5909 144.392 80.4925 144.827C80.4785 144.884 80.4504 144.954 80.4363 145.01C80.3801 145.235 80.3801 145.277 80.4082 145.122C80.4363 145.038 80.4223 144.954 80.3942 144.869C80.0991 144.574 79.8181 144.279 79.5231 143.984C78.8487 144.041 78.7082 144.012 79.0735 143.928C79.0173 143.942 78.9611 143.97 78.9049 143.984C78.7503 144.111 78.7222 144.125 78.8346 144.026C78.933 143.928 78.9189 143.942 78.7925 144.083C78.8206 144.026 78.8487 143.97 78.8908 143.914C78.8065 144.125 78.7925 144.111 78.8627 143.872C78.8627 143.956 78.9049 144.406 78.8487 144.167C78.7925 143.942 78.9611 144.392 79.0173 144.462C79.1999 144.673 79.4528 144.757 79.7198 144.757C79.3966 144.757 80.0008 144.659 80.1132 144.603C80.633 144.279 80.9562 143.282 80.3661 142.874C80.2115 142.776 80.0851 142.79 79.9165 142.748C79.7198 142.804 79.7057 142.804 79.8603 142.762C80.0008 142.72 79.9867 142.734 79.8322 142.804C79.8743 142.79 80.338 142.453 80.0991 142.664C80.2256 142.565 80.338 142.439 80.4504 142.326C80.5487 142.214 80.5347 142.242 80.4082 142.397C80.4644 142.326 80.5206 142.242 80.5628 142.172C80.6471 142.045 80.7173 141.905 80.7876 141.764C81.0405 141.287 80.7033 142.102 80.8578 141.582C80.914 141.399 80.9562 141.231 80.9983 141.048C81.0967 140.654 81.0124 141.202 81.0124 140.964C81.0124 140.809 81.0264 140.654 81.0264 140.5C81.0264 140.345 80.9843 139.938 81.0405 140.317C81.0124 140.135 80.9702 139.952 80.9281 139.769C80.9 139.671 80.7033 139.179 80.8859 139.573C80.8016 139.404 80.7173 139.235 80.619 139.081C81.4058 139.404 82.2066 139.727 82.9934 140.05C83.4992 139.868 83.1199 140.022 82.9934 140.092C83.2182 139.924 83.2604 139.882 83.162 139.994C83.0496 140.107 83.0918 140.05 83.2744 139.84C83.2042 139.98 83.0777 140.317 83.2182 139.84C83.2042 139.896 83.0637 140.247 83.0918 140.261C83.0356 140.233 83.162 139.741 83.1058 140.275C83.0637 140.654 83.0356 139.98 83.0918 140.219C83.2042 140.683 82.9794 140.107 83.0637 140.247C83.2182 140.542 83.162 140.331 83.0075 140.233C83.3728 140.472 82.6422 140.078 83.0356 140.275C82.4736 139.994 83.0215 140.331 83.0918 140.275C82.7967 140.247 82.7405 140.233 82.9091 140.233C82.9794 140.233 83.0637 140.233 83.1339 140.219C82.6422 140.219 82.9794 140.219 83.162 140.163C82.8529 140.247 82.9794 140.219 83.2042 140.107C82.9934 140.205 82.9794 140.289 83.1901 140.107C83.5273 139.811 83.162 140.177 83.2323 140.064C83.3025 139.938 83.162 140.472 83.2463 140.022C83.2885 139.769 83.2463 140.458 83.2182 140.05C83.2463 140.444 83.443 140.669 83.7662 140.907C84.5811 141.245 85.1431 141.16 85.4803 140.669C85.5646 140.542 85.5505 140.57 85.4381 140.753C85.1571 141.259 85.5646 140.359 85.3117 141.02C85.2274 141.245 85.1431 141.469 85.1009 141.694C85.1009 141.666 85.1009 141.624 85.1009 141.596C85.1009 141.877 85.1009 141.905 85.0728 141.666C85.0447 141.61 85.0166 141.554 84.9885 141.497C85.1009 141.68 85.115 141.708 85.0307 141.582C84.6935 141.343 84.4265 141.174 83.9769 141.301C83.8083 141.301 83.6819 141.371 83.5835 141.497C83.6257 141.455 83.6819 141.413 83.724 141.371C83.8786 141.188 83.8926 141.202 83.7381 141.385C83.7662 141.329 83.8083 141.287 83.8364 141.231C83.9488 141.02 83.9488 141.02 83.8505 141.245C83.8645 141.188 83.8926 141.132 83.9067 141.076C83.9348 140.964 83.991 140.472 83.9769 140.935C83.991 140.753 83.9769 140.584 83.9769 140.402C83.9769 140.767 83.9629 140.458 83.9348 140.261C83.8786 139.91 84.0331 140.345 83.9207 140.191C83.8786 140.107 83.8364 140.036 83.7943 139.952C83.9488 140.135 83.9488 140.135 83.7943 139.952C84.6513 140.064 85.4943 140.177 86.3514 140.275C86.2671 140.331 85.8737 140.626 86.1968 140.331C86.0844 140.43 86.0001 140.556 85.8877 140.64C85.7332 140.753 86.0001 140.388 85.8456 140.711C85.8034 140.809 85.6348 141.259 85.7472 140.837C85.7051 140.964 85.691 141.146 85.6208 141.259C85.5224 141.441 85.6067 140.935 85.6067 141.301C85.6067 141.413 85.677 141.905 85.5786 141.441C85.6208 141.61 85.6629 141.778 85.7191 141.947C85.2274 141.455 84.7356 140.964 84.2439 140.472C83.9488 140.416 84.1736 140.444 84.3563 140.458C84.5389 140.472 84.2298 140.472 84.1174 140.542C83.8786 140.697 83.7662 141.062 83.8224 141.329C83.9207 141.863 84.567 142.369 85.1009 142.355C85.2976 142.355 85.4522 142.284 85.6208 142.2C85.3257 142.326 85.6629 142.172 85.7753 142.045C85.8877 141.905 85.9439 141.75 85.972 141.582C86.0282 141.216 85.8877 140.921 85.677 140.654C85.8737 140.907 85.6067 140.669 85.5084 140.584C85.2274 140.359 85.7613 140.739 85.4381 140.584C85.2695 140.57 85.2836 140.57 85.4803 140.584C85.396 140.598 85.3257 140.612 85.2414 140.626C85.2976 140.612 85.3398 140.598 85.396 140.584C85.1993 140.683 85.1571 140.683 85.2976 140.612C85.4522 140.598 85.2274 140.711 85.3117 140.584C85.4381 140.416 85.2274 140.795 85.3819 140.472C85.5505 140.135 85.3819 140.556 85.4381 140.345C85.4803 140.219 85.5084 140.092 85.5365 139.966C85.5646 139.826 85.5646 139.84 85.5365 139.994C85.5365 139.924 85.5505 139.854 85.5505 139.783C85.5505 139.643 85.5505 139.488 85.5505 139.348C85.5646 139.671 85.5365 139.235 85.5084 139.151C85.4662 138.983 85.4241 138.8 85.3538 138.631C85.4241 138.814 85.3819 138.659 85.3257 138.589C86.3935 139.432 87.1522 139.53 87.6018 138.884C87.658 138.8 87.658 138.814 87.5737 138.926C87.4894 139.081 87.363 139.235 87.2646 139.39C87.096 139.671 86.9274 139.966 86.7869 140.261C86.7448 140.345 86.5902 140.725 86.6886 140.472C86.6324 140.612 86.5902 140.753 86.534 140.893C86.4216 141.245 86.3233 141.596 86.253 141.961C86.2249 142.102 86.1968 142.256 86.1828 142.397C86.2249 142.031 86.1687 142.72 86.1687 142.72C84.8621 142.369 83.5554 142.017 82.2347 141.652C82.4174 141.357 82.1785 141.919 82.1785 142.045C82.1926 141.568 82.2488 142.537 82.1785 142.059C82.2066 142.27 82.3471 142.369 82.1645 142.116C82.0099 141.905 82.4033 142.439 82.1645 142.144C81.9959 141.989 82.0099 142.003 82.2347 142.186C82.1926 142.158 82.1504 142.13 82.1083 142.102C81.6165 141.989 82.5438 142.214 82.0521 142.088C82.2909 142.158 82.3893 142.059 82.0942 142.102C81.9256 142.116 81.9959 142.102 82.2769 142.074C82.0942 142.13 82.0802 142.144 82.2347 142.088C82.3893 142.031 82.3752 142.045 82.2066 142.13C82.2628 142.088 82.319 142.031 82.3752 141.989C82.2628 142.102 82.0661 142.411 82.2769 142.031C82.1926 142.172 82.1083 142.312 82.038 142.453C82.1645 142.2 82.1223 142.256 82.0521 142.495C81.9818 142.734 81.9818 142.79 82.0099 142.509C81.9959 142.678 81.9959 142.846 81.9818 143.015C81.9537 143.507 81.8694 142.65 81.9818 143.127C82.024 143.296 82.0661 143.45 82.1223 143.605C81.0967 143.183 80.057 142.762 79.0313 142.34C79.1297 142.298 79.214 142.256 79.2983 142.2C79.495 142.074 79.4669 142.102 79.228 142.27C79.4107 142.059 79.4247 142.003 79.2702 142.256C79.3685 142.088 79.495 141.596 79.3826 142.102C79.3966 142.031 79.5231 141.441 79.4809 141.807C79.4247 142.2 79.509 141.512 79.4669 141.497C79.5231 141.807 79.5231 141.849 79.4809 141.624C79.4669 141.554 79.4528 141.483 79.4247 141.413C79.3826 141.259 79.3966 141.315 79.509 141.582C79.4669 141.497 79.4247 141.413 79.3685 141.329C79.5652 141.554 79.5793 141.582 79.4247 141.413C79.3545 141.343 79.2842 141.273 79.1999 141.216C79.8884 141.399 80.5628 141.582 81.2512 141.764C81.2512 141.764 80.7454 141.947 81.0124 141.835C81.2793 141.722 80.8578 141.919 80.8016 141.947C80.6752 142.017 80.5628 142.102 80.4504 142.172C80.2256 142.298 80.7595 141.863 80.4082 142.214C80.3239 142.298 80.2396 142.369 80.1694 142.453C80.1553 142.467 79.8462 142.86 80.0008 142.636C80.1694 142.397 79.9024 142.804 79.8743 142.846C79.8041 142.959 79.7479 143.113 79.6636 143.226C79.509 143.422 79.79 142.818 79.6355 143.282C79.5933 143.394 79.5652 143.493 79.5231 143.605C79.495 143.731 79.4809 143.914 79.4247 144.026C79.3264 144.223 79.4247 143.675 79.4247 144.055C79.4247 144.195 79.4247 144.336 79.4107 144.476C79.4107 144.603 79.4809 144.982 79.3826 144.504C79.4388 144.785 79.509 145.052 79.6074 145.333C78.5817 144.912 77.542 144.49 76.5164 144.069C76.966 143.774 76.3899 144.237 76.6007 144.012C76.699 143.9 76.8255 143.802 76.9238 143.703C77.3032 143.338 76.7693 143.998 77.0503 143.563C77.1205 143.464 77.1767 143.366 77.247 143.254C77.2891 143.183 77.4858 142.678 77.3453 143.099C77.4015 142.959 77.4437 142.818 77.4858 142.664C77.528 142.523 77.5561 142.369 77.5842 142.214C77.528 142.509 77.5701 142.355 77.5701 142.144C77.5701 141.989 77.5701 141.849 77.5701 141.694C77.5701 141.301 77.6404 141.849 77.5561 141.624C77.5139 141.483 77.4718 141.329 77.4437 141.188C77.5139 141.526 77.4718 141.231 77.3875 141.104C77.3032 140.964 77.1627 140.753 77.3453 141.006C77.1908 140.865 77.1767 140.837 77.2891 140.935C77.4156 141.02 77.3875 141.02 77.2048 140.907C77.3313 140.964 77.4296 141.006 77.5701 141.034C77.7949 140.992 77.8371 140.992 77.6825 141.034C77.542 141.076 77.5701 141.062 77.7668 141.006C77.7106 141.034 77.6544 141.076 77.6123 141.104C77.7528 140.992 77.7809 140.978 77.6685 141.09C77.6263 141.146 77.3313 141.469 77.542 141.188C77.3313 141.455 77.1627 141.764 77.0081 142.074C76.7974 142.495 76.6147 143.071 76.4602 143.802C76.3197 144.434 76.4742 143.436 76.418 144.097C76.404 144.237 76.3899 144.378 76.3899 144.532C76.3759 144.926 76.3899 145.319 76.418 145.712C76.4461 146.092 76.3197 145.249 76.4461 145.895C76.4742 146.064 76.5164 146.246 76.5585 146.415C76.6007 146.584 76.6569 146.766 76.699 146.935C76.7131 147.005 76.9238 147.553 76.7974 147.23C75.6874 147.089 74.5915 146.949 73.4816 146.808C73.6642 146.64 73.8469 146.457 74.0155 146.274C74.0717 146.218 74.5634 145.628 74.2965 145.979C74.6056 145.586 74.8725 145.15 75.1114 144.701C75.2238 144.476 75.3362 144.251 75.4345 144.026C75.294 144.364 75.4626 143.942 75.5048 143.83C75.6734 143.352 75.7998 142.86 75.8982 142.369C75.9263 142.242 75.9403 142.116 75.9684 141.989C75.9403 142.242 75.9403 142.242 75.9684 141.989C75.9825 141.736 76.0106 141.483 76.0246 141.231C76.0387 140.781 76.0106 140.345 75.9825 139.91C75.9544 139.657 75.9544 139.657 75.9825 139.91C75.9684 139.783 75.9403 139.657 75.9122 139.545C75.8701 139.292 75.7998 139.053 75.7296 138.814C75.6593 138.575 75.575 138.336 75.4907 138.097C75.4064 137.873 75.4064 137.859 75.4907 138.069C75.4345 137.957 75.3783 137.844 75.3221 137.732C76.4321 137.873 77.528 138.013 78.6379 138.154C78.385 138.378 78.1602 138.603 77.9354 138.856C77.9214 138.87 77.528 139.362 77.7668 139.053C77.6685 139.179 77.5701 139.32 77.4858 139.46C77.3032 139.741 77.1346 140.022 76.98 140.317C76.9098 140.472 76.8255 140.612 76.7693 140.767C76.9379 140.388 76.699 140.978 76.685 141.006C76.5726 141.315 76.4883 141.638 76.418 141.961C76.3759 142.13 76.3618 142.284 76.3197 142.453C76.2635 142.692 76.3337 142.186 76.3056 142.579C76.2775 142.945 76.2635 143.31 76.2775 143.675C76.2775 143.844 76.2916 144.012 76.3056 144.167C76.3337 144.631 76.2494 143.9 76.3478 144.392C76.5445 145.474 76.0527 146.71 74.8725 146.991C73.8469 147.23 72.484 146.682 72.2733 145.516C71.5989 141.736 72.7791 137.774 75.6593 135.175C76.6007 134.332 78.3429 134.318 78.9751 135.596C81.2512 140.275 80.338 146.204 76.4742 149.787C75.5891 150.616 73.7204 150.672 73.1584 149.365C72.1609 147.047 71.8658 144.546 72.5402 142.074C73.1584 139.783 74.732 137.016 77.3875 136.861C80.1413 136.706 81.743 139.474 81.7992 141.919C81.8554 144.279 80.6049 146.471 78.652 147.75C77.4296 148.551 75.9965 147.694 75.561 146.485C74.3105 143.043 76.4321 139.025 79.8041 137.83C82.1645 137.001 83.6538 139.699 83.6819 141.694C83.6959 143.422 82.7686 145.277 81.1529 146.036C79.8743 146.626 78.5255 146.148 78.0619 144.771C77.1627 142.102 78.4974 138.392 81.5884 137.985C84.6513 137.578 87.6299 140.921 85.9018 143.83C84.8761 145.544 81.8413 144.926 81.9678 142.762C82.0521 141.329 82.3612 140.008 82.9372 138.702C83.429 137.563 84.1455 136.173 85.2274 135.526C86.0563 135.034 87.0539 135.006 87.9109 135.456C88.6696 135.863 89.049 136.622 89.3581 137.381C89.8639 138.631 89.9341 140.149 89.5548 141.441C89.1473 142.804 88.2481 144.012 86.9134 144.574C85.5646 145.15 84.0472 144.855 82.9232 143.928C81.757 142.959 81.4479 141.216 82.2066 139.91C82.9091 138.702 84.4827 137.901 85.8596 138.322C87.7985 138.912 88.487 141.118 87.6159 142.86C86.7729 144.532 84.8059 144.926 83.1199 144.588C82.3893 144.448 81.8694 143.788 81.6446 143.113C80.8438 140.711 81.9818 137.887 84.2017 136.678C84.9885 136.243 86.1266 136.299 86.7588 137.001C88.782 139.264 88.6696 142.888 86.2109 144.785C84.6373 145.993 82.4736 145.46 81.4479 143.816C80.4785 142.256 80.9702 140.458 81.6868 138.912C82.4595 137.254 84.3703 136.341 86.0142 137.395C87.5597 138.378 87.7423 140.5 86.9836 142.031C85.7613 144.476 82.1364 145.403 80.1132 143.38C79.0173 142.284 78.6941 140.697 79.0032 139.207C79.3264 137.69 80.4363 136.566 81.8554 136.06C82.7265 135.751 83.7802 136.271 84.2298 137.03C85.5646 139.249 85.5646 142.27 84.1174 144.448C83.3166 145.642 82.1223 146.738 80.6471 146.963C78.8346 147.244 77.0784 146.289 76.5585 144.462C76.0949 142.832 77.1908 141.034 78.8487 140.711C80.5347 140.388 82.1926 141.245 82.7827 142.874C83.3025 144.322 82.8389 145.993 81.7851 147.089C80.5768 148.34 78.3991 148.705 77.0924 147.413C75.6734 146.008 76.1651 143.858 77.0503 142.312C77.7949 141.034 78.9611 139.938 80.3239 139.348C81.8975 138.673 83.2744 139.488 83.4992 141.174C83.7802 143.38 82.5579 145.516 80.7314 146.682C79.509 147.469 78.0619 146.64 77.6404 145.417C77.4577 144.898 77.2751 144.392 77.0924 143.872C76.7271 142.832 77.5139 141.526 78.5677 141.273C79.7619 140.935 80.7735 141.554 81.1669 142.678Z" fill="#E65EEA"/>
<path d="M168.851 99.7313C155.788 88.6919 150.193 73.833 156.354 66.543C162.515 59.2531 178.098 62.2927 191.161 73.3321C204.224 84.3716 209.819 99.2305 203.658 106.52C197.497 113.81 181.913 110.771 168.851 99.7313Z" fill="#E65EEA"/>
<path d="M110.814 107.657C100.995 101.236 96.7221 90.3924 101.27 83.4373C105.819 76.4823 117.466 76.0495 127.285 82.4707C137.104 88.8919 141.376 99.7355 136.828 106.691C132.28 113.646 120.633 114.078 110.814 107.657Z" fill="#E65EEA"/>
<path d="M103.998 187.862C99.4494 180.907 103.722 170.064 113.541 163.642C123.36 157.221 135.007 157.654 139.555 164.609C144.104 171.564 139.831 182.408 130.012 188.829C120.193 195.25 108.546 194.817 103.998 187.862Z" fill="#E65EEA"/>
<path d="M170.708 178.435C121.434 178.435 81.4901 158.306 81.4901 133.475C81.4901 108.644 121.434 88.515 170.708 88.515C219.981 88.515 259.925 108.644 259.925 133.475C259.925 158.306 219.981 178.435 170.708 178.435Z" fill="#EF89EF"/>
<path d="M240.072 141.961C244.582 149.59 249.416 158.765 245.678 167.715C244.905 169.569 243.796 171.48 241.814 172.225C239.833 172.97 237.754 172.169 236.377 170.637C233.539 167.49 232.626 162.615 232.527 158.512C232.401 153.482 233.497 148.494 234.635 143.619C235.253 140.978 239.314 142.102 238.695 144.743C237.67 149.113 236.686 153.538 236.742 158.048C236.771 160.128 237.023 162.193 237.67 164.188C237.937 165.045 238.99 168.403 240.283 168.319C240.943 168.277 241.548 166.745 241.758 166.254C242.166 165.312 242.447 164.273 242.615 163.261C242.953 161.196 242.812 159.032 242.362 156.995C241.337 152.316 238.85 148.157 236.447 144.083C235.056 141.75 238.695 139.615 240.072 141.961Z" fill="#49FCFC"/>
<path d="M236.433 153.847C235.534 152.836 235.239 151.684 235.506 150.363C235.914 148.368 239.173 148.34 239.567 150.363C239.876 151.923 240.171 153.496 240.48 155.056C239.131 155.435 237.768 155.8 236.419 156.18C236.11 154.297 235.815 152.414 235.506 150.532C235.324 149.408 235.801 148.27 236.981 147.932C238.049 147.637 239.314 148.298 239.581 149.408C240.367 152.766 241.14 156.109 241.927 159.467C240.55 159.65 239.173 159.847 237.782 160.029C237.642 157.81 237.319 155.618 236.827 153.44C236.223 150.785 240.002 149.759 240.887 152.316C241.913 155.266 242.559 158.301 242.939 161.392C241.562 161.21 240.185 161.013 238.794 160.83C239.187 159.805 239.258 158.891 238.934 157.838C240.283 157.838 241.646 157.838 242.995 157.838C242.686 159.903 242.854 162.039 243.374 164.048C242.096 163.879 240.803 163.711 239.524 163.542C239.665 163.317 239.553 163.387 239.553 163.528C239.553 163.668 239.567 163.823 239.581 163.963C239.595 164.104 239.454 163.851 239.567 163.935C239.679 164.02 239.721 164.132 239.876 164.188C240.663 163.865 241.463 163.542 242.25 163.219C242.039 163.626 241.969 164.09 242.025 164.469C242.222 165.593 241.73 166.731 240.55 167.069C241.056 166.928 241.253 166.296 241.014 165.86C241.941 167.518 240.424 169.345 238.639 168.951C236.377 168.459 235.408 166.183 235.113 164.118C234.733 161.448 234.424 158.751 234.087 156.067C233.947 154.943 235.155 153.96 236.195 153.96C237.459 153.96 238.162 154.929 238.302 156.067C238.569 158.133 238.822 160.184 239.089 162.249C239.187 162.966 239.229 163.584 239.44 164.287C239.44 164.287 239.623 164.792 239.567 164.652C239.496 164.511 239.763 164.961 239.749 164.961C239.637 164.764 239.693 164.919 239.805 164.989C239.665 164.905 239.384 164.792 239.763 164.863C238.977 165.888 238.176 166.928 237.389 167.954C236.321 166.029 237.291 163.57 239.44 162.966C238.948 163.837 238.457 164.694 237.965 165.565C237.67 163.963 237.853 162.516 238.611 161.069C239.033 160.254 240.129 159.847 240.986 160.1C243.276 160.76 244.512 163.598 243.149 165.649C242.18 167.111 239.763 166.984 239.3 165.144C238.583 162.348 238.499 159.538 238.92 156.686C239.047 155.786 240.115 155.14 240.958 155.14C241.899 155.14 242.728 155.8 242.995 156.686C243.501 158.4 243.473 160.24 242.854 161.926C242.489 162.91 241.632 163.598 240.536 163.43C239.426 163.261 238.836 162.432 238.71 161.364C238.372 158.653 237.698 155.983 236.813 153.412C238.162 153.033 239.524 152.667 240.873 152.288C241.449 154.817 241.815 157.402 241.983 160.001C242.138 162.376 238.386 162.868 237.838 160.563C237.052 157.205 236.279 153.861 235.492 150.504C236.841 150.124 238.204 149.759 239.553 149.38C239.862 151.262 240.157 153.145 240.466 155.028C240.648 156.152 240.171 157.29 238.991 157.627C237.965 157.908 236.616 157.276 236.391 156.152C236.082 154.592 235.787 153.018 235.478 151.459C236.827 151.459 238.19 151.459 239.539 151.459C239.581 151.276 239.51 150.995 239.384 150.841C240.143 151.684 240.227 152.99 239.384 153.819C238.639 154.62 237.192 154.704 236.433 153.847Z" fill="#49FCFC"/>
<path d="M242.124 150.799C242.152 151.276 242.194 151.754 242.264 152.218C242.236 152.035 242.208 151.838 242.194 151.656C242.32 152.597 242.517 153.524 242.784 154.452C241.435 154.452 240.072 154.452 238.724 154.452C238.836 153.988 238.92 153.524 238.976 153.047C238.948 153.229 238.92 153.426 238.906 153.609C239.047 152.513 239.089 151.417 239.005 150.307C240.41 150.307 241.815 150.307 243.22 150.307C243.149 151.066 243.163 151.824 243.262 152.569C243.234 152.386 243.206 152.19 243.191 152.007C243.262 152.527 243.374 153.033 243.529 153.538C242.152 153.721 240.775 153.918 239.384 154.1C239.356 153.862 239.328 153.623 239.3 153.384C239.328 153.567 239.356 153.763 239.37 153.946C239.257 153.145 239.117 152.344 238.92 151.557C238.794 151.023 238.85 150.419 239.131 149.928C239.384 149.492 239.89 149.071 240.396 148.958C240.929 148.832 241.534 148.86 242.025 149.169C242.475 149.464 242.868 149.885 242.995 150.433C243.29 151.642 243.487 152.864 243.613 154.1C243.669 154.578 243.346 155.267 242.995 155.59C242.644 155.913 242.25 156.11 241.786 156.166C240.747 156.306 239.777 155.674 239.468 154.662C239.047 153.271 238.878 151.754 239.019 150.307C239.075 149.731 239.215 149.239 239.637 148.818C240.002 148.452 240.606 148.171 241.126 148.199C241.674 148.228 242.236 148.396 242.615 148.818C243.009 149.253 243.191 149.731 243.234 150.307C243.36 152.063 243.191 153.848 242.798 155.576C242.7 156.011 242.391 156.405 242.039 156.672C241.688 156.953 241.224 157.149 240.761 157.121C239.819 157.079 239.005 156.489 238.724 155.576C238.274 154.03 238.007 152.414 237.923 150.799C237.895 150.279 238.176 149.675 238.541 149.309C238.906 148.944 239.51 148.663 240.03 148.691C240.578 148.719 241.14 148.888 241.52 149.309C241.899 149.731 242.096 150.223 242.124 150.799Z" fill="#49FCFC"/>
<path d="M242.882 151.459C242.967 151.909 243.037 152.386 242.995 152.85C242.953 153.314 242.896 153.791 242.728 154.227C242.658 154.508 242.531 154.747 242.348 154.943C242.194 155.168 241.997 155.351 241.758 155.491C241.519 155.646 241.253 155.73 240.972 155.744C240.691 155.801 240.41 155.801 240.129 155.702C239.96 155.632 239.791 155.562 239.623 155.491C239.3 155.309 239.061 155.056 238.864 154.733C238.794 154.564 238.724 154.396 238.653 154.227C238.555 153.848 238.555 153.482 238.653 153.103C238.738 152.878 238.794 152.653 238.836 152.414C238.808 152.597 238.78 152.794 238.766 152.976C238.794 152.724 238.794 152.457 238.766 152.204C238.794 152.386 238.822 152.583 238.836 152.766C238.822 152.71 238.822 152.653 238.808 152.583C238.724 152.302 238.709 152.021 238.766 151.74C238.78 151.459 238.864 151.192 239.019 150.953C239.145 150.714 239.328 150.504 239.567 150.363C239.763 150.181 240.002 150.054 240.283 149.984C240.466 149.956 240.662 149.928 240.845 149.914C241.224 149.914 241.576 150.012 241.913 150.195C242.053 150.307 242.194 150.419 242.334 150.518C242.601 150.799 242.784 151.108 242.882 151.459Z" fill="#49FCFC"/>
<path d="M234.733 142.973C234.804 142.65 234.902 142.327 235.028 142.003C235.225 141.526 235.408 141.062 235.675 140.626C235.801 140.388 235.984 140.177 236.223 140.036C236.419 139.854 236.658 139.727 236.939 139.657C237.22 139.573 237.501 139.559 237.782 139.615C238.063 139.629 238.33 139.713 238.569 139.868C238.709 139.98 238.85 140.093 238.99 140.191C239.257 140.458 239.426 140.767 239.538 141.118C239.566 141.301 239.595 141.498 239.609 141.68C239.609 142.06 239.51 142.411 239.328 142.748C239.173 143.001 239.033 143.254 238.92 143.521C238.99 143.352 239.061 143.184 239.131 143.015C238.99 143.352 238.878 143.703 238.808 144.069C238.738 144.35 238.611 144.589 238.428 144.785C238.274 145.01 238.077 145.193 237.838 145.333C237.599 145.488 237.333 145.572 237.052 145.586C236.771 145.642 236.49 145.642 236.209 145.544C236.04 145.474 235.871 145.403 235.703 145.333C235.38 145.151 235.141 144.898 234.944 144.575C234.874 144.406 234.804 144.237 234.733 144.069C234.635 143.732 234.635 143.352 234.733 142.973Z" fill="#49FCFC"/>
<path d="M240.129 129.12C240.325 128.937 240.213 128.881 240.03 129.288C240.058 129.218 240.115 129.134 240.157 129.077C239.89 129.499 239.974 129.513 240.044 129.26C240.143 128.923 240.03 129.85 240.016 129.485C240.016 129.401 240.002 129.316 240.002 129.232C239.988 129.822 240.073 129.682 240.016 129.457C239.946 129.218 239.82 129.204 240.115 129.639C240.087 129.597 239.932 129.387 239.946 129.344C239.946 129.344 240.311 129.794 240.115 129.583C239.876 129.33 240.592 129.864 240.283 129.71C240.002 129.555 240.171 129.766 240.48 129.78C240.452 129.766 240.424 129.766 240.396 129.752C240.171 129.71 240.255 129.71 240.635 129.78C240.592 129.78 240.564 129.78 240.522 129.78C240.297 129.794 240.382 129.78 240.761 129.738C240.705 129.766 240.508 129.822 240.452 129.822C240.55 129.78 240.649 129.738 240.747 129.696C240.677 129.724 240.62 129.766 240.55 129.794C240.48 129.836 240.424 129.878 240.368 129.92C240.649 129.696 240.705 129.668 240.536 129.808C240.48 129.878 240.41 129.949 240.339 130.019C240.157 130.201 240.606 129.555 240.438 129.906C240.41 129.963 240.311 130.215 240.269 130.23C240.311 130.145 240.339 130.047 240.382 129.963C240.354 130.047 240.325 130.131 240.297 130.215C240.255 130.342 240.241 130.468 240.213 130.595C240.101 131.044 240.241 130.089 240.213 130.553C240.199 130.862 240.185 131.171 240.185 131.48C240.185 131.677 240.241 131.887 240.213 132.084C240.269 131.606 240.143 131.705 240.213 131.972C240.255 132.14 240.424 132.435 240.157 131.873C240.171 131.901 240.199 131.93 240.213 131.972C240.101 131.775 239.946 131.62 239.749 131.508C240.073 131.705 239.23 131.368 239.595 131.452C239.468 131.438 239.342 131.424 239.23 131.41C239.3 131.41 239.356 131.424 239.426 131.41C239.033 131.48 238.949 131.48 239.159 131.438C239.23 131.424 239.286 131.41 239.356 131.382C239.258 131.424 239.145 131.466 239.047 131.508C239.103 131.48 239.173 131.438 239.23 131.41C239.145 131.48 239.061 131.55 238.963 131.62C239.019 131.578 239.061 131.536 239.117 131.48C239.3 131.325 238.991 131.424 239.005 131.635C239.005 131.606 239.159 131.339 239.173 131.325C239.131 131.424 239.089 131.508 239.061 131.606C239.089 131.536 239.117 131.452 239.131 131.382C239.173 131.269 239.201 131.143 239.215 131.03C239.244 130.918 239.244 130.777 239.286 130.665C239.244 131.016 239.23 131.087 239.258 130.862C239.272 130.777 239.272 130.693 239.286 130.623C239.314 130.356 239.314 130.089 239.314 129.822C239.314 129.372 239.398 130.201 239.328 129.92C239.244 129.653 239.567 130.314 239.398 130.033C239.23 129.78 239.244 129.977 239.525 130.187C239.511 130.173 239.482 130.145 239.468 130.131C239.314 129.991 239.398 130.047 239.707 130.3C239.637 130.272 239.553 130.215 239.496 130.173C239.876 130.328 239.96 130.37 239.763 130.3C239.707 130.286 239.651 130.272 239.595 130.258C239.244 130.159 240.185 130.286 239.82 130.286C239.735 130.286 239.637 130.286 239.553 130.286C239.187 130.286 240.115 130.159 239.763 130.258C239.707 130.272 239.651 130.286 239.581 130.3C239.496 130.328 239.412 130.356 239.314 130.384C239.862 130.244 239.679 130.215 239.482 130.328C239.398 130.37 239.328 130.426 239.258 130.468C239.567 130.23 239.637 130.173 239.468 130.314C239.426 130.356 239.384 130.398 239.342 130.44C239.075 130.679 239.637 129.977 239.412 130.342C239.356 130.44 239.286 130.539 239.23 130.651C239.215 130.679 239.187 130.721 239.173 130.749C239.075 130.946 239.103 130.89 239.244 130.567C239.244 130.665 239.159 130.806 239.131 130.904C239.075 131.101 239.047 131.283 239.005 131.48C238.92 131.916 239.047 130.946 239.019 131.396C239.005 131.564 238.991 131.719 238.977 131.887C238.949 132.365 238.977 132.857 238.963 133.335C238.963 133.742 238.85 132.913 238.934 133.18C239.005 133.377 239.103 133.475 238.864 133.04C238.794 132.955 238.738 132.871 238.668 132.787C238.358 132.576 238.302 132.52 238.485 132.632C238.134 132.492 238.063 132.463 238.26 132.52C237.867 132.478 237.782 132.463 238.007 132.478C238.415 132.478 237.473 132.618 237.867 132.506C237.965 132.478 238.077 132.449 238.176 132.421C238.569 132.309 237.726 132.66 238.091 132.463C238.19 132.407 238.288 132.351 238.387 132.295C238.541 132.197 238.738 131.958 238.33 132.365C238.387 132.309 238.443 132.267 238.499 132.225C238.583 132.154 238.653 132.07 238.738 131.986C238.878 131.817 238.836 131.873 238.625 132.154C238.668 132.098 238.71 132.028 238.752 131.972C238.808 131.873 238.864 131.775 238.92 131.677C239.117 131.325 238.78 132.168 238.878 131.775C238.906 131.677 238.92 131.536 238.963 131.452C238.949 131.564 238.934 131.677 238.92 131.789C238.934 131.719 238.934 131.635 238.934 131.564C238.934 131.522 238.934 131.494 238.934 131.452C238.92 131.227 238.934 131.311 238.977 131.691C238.934 131.606 238.92 131.466 238.892 131.382C238.836 131.171 238.752 131.354 238.977 131.578C238.906 131.508 238.794 131.297 238.752 131.199C238.934 131.62 238.977 131.48 238.794 131.297C238.766 131.269 238.738 131.241 238.71 131.227C238.541 131.087 238.597 131.129 238.878 131.354C238.822 131.339 238.653 131.241 238.597 131.199C238.696 131.241 238.808 131.283 238.906 131.325C238.836 131.297 238.78 131.283 238.71 131.255C238.344 131.129 239.244 131.241 238.85 131.269C238.808 131.269 238.78 131.269 238.738 131.269C238.513 131.283 238.597 131.269 238.991 131.227C238.934 131.255 238.836 131.283 238.766 131.283C238.625 131.297 239.3 131.002 238.906 131.227C238.71 131.339 238.653 131.494 239.047 131.101C238.991 131.157 238.92 131.213 238.85 131.283C238.71 131.438 238.653 131.635 238.949 131.129C238.906 131.213 238.85 131.283 238.794 131.354C238.752 131.438 238.71 131.522 238.653 131.592C238.471 131.93 238.836 131.073 238.71 131.438C238.639 131.62 238.583 131.803 238.541 132C238.485 132.211 238.457 132.899 238.499 132.126C238.485 132.323 238.457 132.52 238.457 132.716C238.457 132.913 238.457 133.124 238.471 133.321C238.471 133.363 238.471 133.405 238.485 133.447C238.513 133.672 238.499 133.602 238.457 133.25C238.499 133.377 238.513 133.531 238.541 133.658C238.639 133.981 238.668 133.686 238.471 133.545C238.485 133.573 238.513 133.616 238.527 133.644C238.653 133.826 238.597 133.784 238.387 133.503C238.415 133.531 238.429 133.559 238.457 133.573C238.611 133.714 238.555 133.672 238.26 133.447C238.33 133.475 238.471 133.559 238.527 133.602C238.429 133.559 238.316 133.517 238.218 133.475C238.288 133.503 238.344 133.517 238.415 133.531C238.794 133.658 237.867 133.517 238.274 133.517C238.387 133.517 238.485 133.517 238.597 133.517C238.977 133.517 238.007 133.602 238.555 133.503C238.878 133.447 238.358 133.602 238.344 133.602C238.443 133.573 238.569 133.489 238.653 133.433C238.682 133.405 238.724 133.391 238.752 133.363C238.934 133.236 238.878 133.278 238.611 133.475C238.653 133.391 238.808 133.292 238.864 133.236C238.949 133.152 239.019 133.04 239.103 132.969C239.047 133.054 238.977 133.124 238.92 133.208C238.963 133.138 239.005 133.082 239.061 133.011C239.131 132.913 239.187 132.801 239.244 132.702C239.286 132.632 239.314 132.562 239.356 132.492C239.44 132.295 239.426 132.351 239.3 132.66C239.314 132.435 239.496 132.126 239.553 131.901C239.567 131.831 239.595 131.55 239.637 131.508C239.595 131.845 239.581 131.901 239.609 131.677C239.623 131.592 239.623 131.494 239.623 131.41C239.623 131.283 239.609 131.143 239.609 131.016C239.581 130.792 239.595 130.848 239.637 131.185C239.623 131.101 239.609 131.016 239.581 130.932C239.567 130.89 239.553 130.848 239.539 130.806C239.468 130.581 239.482 130.637 239.623 130.96C239.539 130.848 239.482 130.693 239.412 130.567C239.215 130.215 239.693 130.876 239.511 130.679C239.412 130.581 239.328 130.496 239.23 130.398C238.934 130.117 239.665 130.651 239.3 130.454C239.244 130.412 239.173 130.384 239.103 130.342C238.906 130.244 238.977 130.272 239.3 130.426C239.215 130.426 239.075 130.356 238.991 130.342C238.639 130.244 239.567 130.384 239.005 130.37C238.597 130.356 239.511 130.244 239.159 130.356C239.103 130.37 239.047 130.384 238.991 130.398C238.794 130.468 238.878 130.426 239.258 130.286C239.215 130.314 239.159 130.342 239.103 130.37C238.878 130.496 238.794 130.721 239.187 130.286C239.131 130.342 239.061 130.398 239.005 130.454C238.668 130.806 239.244 130.075 239.061 130.356C238.949 130.539 238.864 130.721 238.752 130.904C239.061 130.356 238.892 130.553 238.822 130.749C238.78 130.876 238.738 130.988 238.71 131.115C238.653 131.297 238.611 131.494 238.583 131.691C238.569 131.789 238.555 131.887 238.541 131.986C238.682 131.255 238.569 131.733 238.555 131.916C238.513 132.365 238.513 132.829 238.527 133.278C238.569 134.374 237.529 135.442 236.42 135.386C235.239 135.33 234.368 134.459 234.312 133.278C234.2 130.581 234.958 127.377 237.782 126.38C239.454 125.79 241.478 126.478 242.573 127.841C243.838 129.401 244.119 131.452 243.515 133.349C243.009 134.964 241.983 136.58 240.382 137.297C238.457 138.154 236.195 137.732 234.972 135.934C234.439 135.147 234.284 134.149 234.242 133.208C234.2 132.534 234.284 131.845 234.41 131.171C234.677 129.752 235.478 128.305 236.757 127.588C238.415 126.647 240.564 126.998 241.843 128.417C242.559 129.218 242.967 130.145 243.079 131.213C243.178 132.098 242.911 132.983 242.517 133.77C241.759 135.288 240.129 136.397 238.471 136.622C237.22 136.791 235.956 136.341 235.253 135.259C234.734 134.473 234.705 133.531 234.705 132.618C234.705 131.044 234.888 129.316 235.872 128.01C236.897 126.647 238.499 125.888 240.227 126.113C242.25 126.38 243.529 128.052 243.501 130.075C243.473 131.93 243.009 133.939 241.365 135.021C240.536 135.569 239.412 135.779 238.457 135.512C237.319 135.203 236.504 134.304 236.167 133.194C235.928 132.435 235.928 131.55 235.97 130.763C236.04 129.752 236.237 128.768 236.729 127.883C237.656 126.239 239.707 125.143 241.576 125.734C243.206 126.239 244.358 127.967 244.189 129.682C244.105 130.609 243.782 131.48 243.093 132.126C242.278 132.871 240.901 132.983 240.115 132.126C239.384 131.283 239.272 129.92 240.129 129.12Z" fill="white"/>
<path d="M229.409 139.081C229.268 138.941 229.142 138.814 229.001 138.674C227.975 137.718 227.245 136.594 226.823 135.288C226.163 134.037 225.868 132.674 225.91 131.227C225.854 129.78 226.163 128.417 226.823 127.167C227.245 125.86 227.975 124.736 229.001 123.781C229.718 123.233 230.42 122.685 231.137 122.137C232.781 121.181 234.551 120.704 236.462 120.704C237.389 120.83 238.33 120.957 239.258 121.083C241.042 121.589 242.587 122.488 243.908 123.795C244.049 123.935 244.175 124.062 244.316 124.202C245.341 125.157 246.072 126.281 246.493 127.588C247.154 128.839 247.449 130.201 247.407 131.649C247.463 133.096 247.154 134.459 246.493 135.709C246.072 137.016 245.341 138.14 244.316 139.095C243.599 139.643 242.897 140.191 242.18 140.739C240.536 141.694 238.766 142.172 236.855 142.172C235.928 142.046 234.986 141.919 234.059 141.793C232.275 141.301 230.715 140.388 229.409 139.081Z" fill="white"/>
<path d="M236.448 135.442C231.024 135.442 231.01 127.012 236.448 127.012C241.871 127.012 241.885 135.442 236.448 135.442Z" fill="black"/>
<path d="M236.855 129.063C236.995 129.063 237.122 129.063 237.262 129.063C237.333 129.063 237.403 129.077 237.459 129.105C237.529 129.133 237.586 129.162 237.628 129.218C237.684 129.26 237.712 129.316 237.74 129.386C237.768 129.443 237.782 129.513 237.782 129.583C237.782 129.625 237.768 129.681 237.768 129.724C237.74 129.808 237.698 129.892 237.628 129.962C237.586 129.991 237.557 130.019 237.515 130.047C237.431 130.089 237.347 130.117 237.248 130.117C237.108 130.117 236.981 130.117 236.841 130.117C236.771 130.117 236.7 130.103 236.644 130.075C236.574 130.047 236.518 130.019 236.476 129.962C236.419 129.92 236.391 129.864 236.363 129.794C236.335 129.738 236.321 129.667 236.321 129.597C236.321 129.555 236.335 129.499 236.335 129.457C236.363 129.372 236.405 129.288 236.476 129.218C236.518 129.19 236.546 129.162 236.588 129.133C236.672 129.091 236.757 129.063 236.855 129.063Z" fill="black"/>
<path d="M238.415 130.749C238.274 130.89 238.148 131.016 238.007 131.157C237.909 131.255 237.796 131.325 237.67 131.382C237.543 131.452 237.403 131.48 237.262 131.466C237.122 131.466 236.981 131.438 236.855 131.382C236.729 131.339 236.616 131.269 236.518 131.157C236.462 131.087 236.405 131.016 236.349 130.946C236.251 130.777 236.209 130.609 236.209 130.412C236.223 130.314 236.237 130.229 236.251 130.131C236.307 129.948 236.391 129.794 236.518 129.667C236.658 129.527 236.785 129.401 236.925 129.26C237.024 129.162 237.136 129.091 237.262 129.035C237.389 128.965 237.529 128.937 237.67 128.951C237.81 128.951 237.951 128.979 238.077 129.035C238.204 129.077 238.316 129.148 238.415 129.26C238.471 129.33 238.527 129.401 238.583 129.471C238.681 129.639 238.724 129.808 238.724 130.005C238.71 130.103 238.696 130.187 238.681 130.286C238.639 130.454 238.555 130.609 238.415 130.749Z" fill="#FFF0FF"/>
<path d="M78.68 130.356C73.3691 130.777 68.1847 127.223 66.4986 122.207C66.0631 120.914 68.1003 120.366 68.5359 121.645C69.9409 125.818 74.3245 128.586 78.6941 128.248C79.2561 128.206 79.7478 128.768 79.7478 129.302C79.7338 129.92 79.242 130.314 78.68 130.356Z" fill="#E432ED"/>
<path d="M76.6568 138.884C71.8798 138.926 67.1028 138.378 62.4523 137.297C61.1315 136.988 61.6936 134.95 63.0143 135.259C67.4962 136.313 72.0625 136.819 76.6568 136.777C78.0197 136.763 78.0197 138.87 76.6568 138.884Z" fill="#E432ED"/>
<path d="M78.8625 146.837C74.1839 146.148 69.3507 149.492 68.1284 154.002C67.7771 155.309 65.7398 154.761 66.0911 153.44C67.6366 147.722 73.6078 143.956 79.4105 144.813C79.9725 144.898 80.2816 145.614 80.1411 146.106C79.9865 146.71 79.4245 146.921 78.8625 146.837Z" fill="#E432ED"/>
<path d="M130.749 178.857C127.532 182.51 122.797 184.673 117.936 184.758C116.573 184.786 116.573 182.678 117.936 182.65C122.277 182.566 126.394 180.613 129.26 177.367C130.159 176.342 131.648 177.845 130.749 178.857Z" fill="#E432ED"/>
<path d="M119.172 174.937C116.25 176.974 112.597 177.704 109.112 177.072C108.55 176.974 108.241 176.285 108.382 175.78C108.55 175.189 109.112 174.937 109.674 175.049C112.625 175.583 115.674 174.824 118.118 173.124C118.582 172.801 119.284 173.04 119.565 173.503C119.86 174.023 119.65 174.613 119.172 174.937Z" fill="#E432ED"/>
<path d="M122.249 91.0018C119.65 87.0116 114.887 84.7355 110.152 85.0727C108.803 85.1711 108.803 83.0636 110.152 82.9652C115.631 82.5718 121.083 85.3537 124.075 89.9481C124.82 91.0721 122.994 92.1258 122.249 91.0018Z" fill="#E432ED"/>
<path d="M113.819 93.2779C111.88 90.8051 108.635 89.4142 105.501 89.92C104.939 90.0183 104.363 89.7795 104.209 89.1894C104.068 88.6836 104.377 87.9811 104.939 87.8968C108.775 87.2645 112.864 88.6976 115.294 91.7886C115.645 92.2382 115.73 92.8424 115.294 93.2779C114.943 93.6432 114.17 93.7275 113.819 93.2779Z" fill="#E432ED"/>
<path d="M187.371 83.162C182.987 78.1883 177.789 72.3997 170.581 72.47C169.218 72.484 169.218 70.3765 170.581 70.3625C178.407 70.2782 184.069 76.2354 188.86 81.6727C189.759 82.6843 188.27 84.1736 187.371 83.162Z" fill="#E432ED"/>
<path d="M174.979 85.6768C172.295 81.4337 167.954 78.427 163.064 77.3452C161.743 77.0501 162.305 75.0269 163.626 75.3079C169.049 76.5022 173.841 79.9164 176.805 84.609C177.536 85.7611 175.709 86.8289 174.979 85.6768Z" fill="#E432ED"/>
<path d="M234.677 152.934C234.874 151.038 235.056 149.155 235.253 147.258C235.323 146.57 235.52 146.036 236.082 145.6C236.574 145.221 237.304 144.996 237.923 145.221C238.892 145.586 239.679 146.05 240.466 146.724C241.014 147.202 241.21 148.101 241.014 148.775C240.859 149.253 240.719 149.745 240.564 150.223C240.41 150.742 240.072 151.206 239.595 151.487C239.145 151.754 238.471 151.866 237.965 151.698C236.911 151.361 236.138 150.237 236.49 149.099C236.644 148.621 236.785 148.129 236.939 147.651C237.122 148.34 237.304 149.014 237.487 149.703C237.389 149.618 237.29 149.534 237.192 149.464C237.333 149.576 237.473 149.689 237.614 149.787C237.29 149.534 236.939 149.337 236.56 149.169C236.728 149.239 236.897 149.309 237.066 149.38C236.981 149.337 236.897 149.309 236.799 149.281C237.684 148.607 238.583 147.932 239.468 147.244C239.271 149.141 239.089 151.023 238.892 152.92C238.836 153.496 238.695 153.988 238.274 154.41C237.909 154.775 237.304 155.056 236.785 155.028C236.237 155 235.675 154.831 235.295 154.41C234.944 154.03 234.621 153.482 234.677 152.934Z" fill="#49FCFC"/>
<path d="M202.404 147.258C197.557 157.683 191.403 169.808 179.025 172.393C174.023 173.433 167.827 172.59 164.61 168.193C161.336 163.711 162.755 157.585 164.764 152.892C167.673 146.134 172.295 140.331 176.847 134.613C177.69 133.559 179.18 135.049 178.337 136.102C174.852 140.472 171.354 144.884 168.628 149.801C166.24 154.114 163.598 159.819 165.242 164.835C167.026 170.3 173.798 171.41 178.73 170.3C183.872 169.148 188.27 165.902 191.6 161.912C195.478 157.262 198.049 151.67 200.578 146.204C201.154 144.968 202.966 146.036 202.404 147.258Z" fill="#E432ED"/>
<path d="M191.937 149.731C190.982 151.417 190.026 153.117 189.057 154.803C188.214 156.292 187.399 157.81 186.387 159.187C184.448 161.842 181.512 164.174 178.027 163.809C177.465 163.753 176.974 163.359 176.974 162.755C176.974 162.235 177.451 161.645 178.027 161.701C181.118 162.011 183.507 159.763 185.095 157.36C186.935 154.578 188.467 151.557 190.11 148.663C190.785 147.483 192.611 148.551 191.937 149.731Z" fill="#E432ED"/>
<path d="M182.341 147.413C180.922 153.201 177.381 158.315 172.506 161.73C171.396 162.516 170.342 160.69 171.438 159.903C175.864 156.798 179.025 152.091 180.304 146.837C180.627 145.53 182.664 146.092 182.341 147.413Z" fill="#E432ED"/>
<path d="M257.059 138.997C257.41 139.109 256.946 138.997 256.96 139.039C256.974 139.067 257.171 138.744 257.171 138.758C257.34 138.463 257.41 138.126 257.494 137.802C257.677 137.03 257.86 136.243 257.93 135.456C258 134.697 258.042 133.812 257.719 133.096C257.649 132.927 257.55 132.744 257.41 132.646C257.354 132.604 257.213 132.534 257.171 132.52C257.157 132.52 256.974 132.548 257.073 132.52C257.157 132.506 257.059 132.506 257.017 132.548C256.89 132.66 256.806 132.744 256.679 132.983C256.525 133.264 256.469 133.461 256.37 133.798C256.131 134.571 255.949 135.386 255.864 136.187C255.794 136.959 255.78 137.76 255.879 138.533C255.907 138.702 255.935 138.87 255.963 139.025C255.991 139.165 256.033 139.292 256.061 139.334C256.075 139.376 256.145 139.404 256.089 139.39C256.075 139.39 255.836 139.334 255.836 139.306C255.822 139.264 255.977 138.997 255.991 138.94C256.061 138.716 256.131 138.477 256.188 138.252C256.314 137.802 256.441 137.339 256.553 136.889C256.764 135.976 256.904 135.077 256.89 134.135C257.55 134.318 258.197 134.487 258.857 134.669C258.281 135.92 257.691 137.17 257.115 138.421C256.623 139.488 254.726 138.716 255.19 137.606C255.71 136.341 256.202 135.077 256.651 133.784C257.298 134.051 257.93 134.332 258.576 134.599C258.014 135.372 257.565 136.201 257.241 137.1C256.595 136.833 255.963 136.552 255.317 136.285C255.864 135.344 256.272 134.346 256.567 133.292C257.157 133.63 257.747 133.981 258.323 134.318C257.986 134.627 257.831 134.964 257.747 135.414C257.073 135.231 256.398 135.035 255.71 134.852C255.879 134.332 256.061 133.812 256.23 133.292C256.904 133.475 257.579 133.672 258.267 133.854C258.084 134.374 257.902 134.908 257.719 135.428C257.536 135.962 257.003 136.327 256.426 136.159C255.907 136.018 255.499 135.4 255.696 134.866C255.879 134.346 256.061 133.812 256.244 133.292C256.426 132.758 256.96 132.393 257.536 132.562C258.056 132.702 258.45 133.32 258.267 133.854C258.098 134.374 257.916 134.894 257.747 135.414C257.312 136.706 255.471 136.187 255.71 134.852C255.85 134.079 256.258 133.363 256.82 132.829C257.579 132.112 258.871 132.815 258.576 133.854C258.239 135.077 257.747 136.243 257.115 137.353C256.539 138.364 254.783 137.69 255.19 136.538C255.569 135.47 256.061 134.458 256.736 133.531C257.045 133.11 257.536 132.871 258.056 133.096C258.506 133.292 258.843 133.84 258.66 134.332C258.211 135.625 257.719 136.889 257.199 138.154C256.553 137.887 255.921 137.606 255.274 137.339C255.85 136.088 256.441 134.838 257.017 133.587C257.48 132.59 258.955 133.138 258.984 134.121C259.012 135.372 258.787 136.622 258.478 137.83C258.197 138.926 257.986 140.345 257.003 141.048C255.977 141.779 254.67 141.343 254.15 140.233C253.673 139.193 253.645 137.887 253.701 136.749C253.757 135.526 253.982 134.304 254.347 133.138C254.628 132.21 255.064 131.213 255.949 130.707C257.045 130.075 258.408 130.482 259.166 131.438C259.911 132.379 260.108 133.672 260.065 134.838C260.023 136.159 259.77 137.578 259.391 138.828C259.012 140.078 257.986 141.483 256.497 141.006C255.218 140.626 255.766 138.589 257.059 138.997Z" fill="#E432ED"/>
<path d="M255.485 139.235C255.668 139.249 255.865 139.249 256.047 139.221C255.949 139.235 255.865 139.25 255.766 139.264C255.991 139.235 256.202 139.179 256.413 139.095C256.328 139.137 256.244 139.165 256.16 139.207C256.286 139.151 256.399 139.095 256.511 139.025C256.834 138.828 257.256 138.842 257.579 139.025C257.733 139.123 257.86 139.25 257.958 139.404C258.056 139.573 258.099 139.741 258.099 139.938C258.127 140.149 258.042 140.444 257.916 140.64C257.789 140.851 257.635 141.006 257.424 141.132C257.326 141.188 257.199 141.245 257.087 141.287C257.059 141.301 257.017 141.301 256.989 141.315C256.708 141.371 256.511 141.371 256.23 141.315C256.075 141.287 255.907 141.217 255.78 141.118C255.682 141.048 255.57 140.964 255.471 140.865C255.387 140.767 255.303 140.655 255.218 140.556C255.092 140.388 254.994 140.205 254.881 140.022C254.811 139.896 254.769 139.769 254.755 139.629C254.727 139.488 254.727 139.348 254.769 139.207C254.839 138.969 255.022 138.702 255.246 138.575C255.485 138.449 255.78 138.378 256.061 138.463C256.146 138.505 256.23 138.533 256.314 138.575C256.469 138.673 256.595 138.8 256.694 138.954C256.82 139.123 256.918 139.32 257.045 139.488C256.989 139.418 256.932 139.348 256.876 139.278C256.918 139.334 256.975 139.39 257.031 139.446C256.961 139.39 256.89 139.334 256.82 139.278C256.862 139.306 256.89 139.334 256.932 139.348C256.848 139.306 256.764 139.278 256.68 139.235C256.722 139.249 256.764 139.264 256.82 139.278C256.722 139.264 256.637 139.249 256.539 139.235C256.595 139.235 256.651 139.235 256.694 139.235C256.595 139.249 256.511 139.264 256.413 139.278C256.455 139.264 256.497 139.264 256.539 139.235C256.455 139.278 256.37 139.306 256.286 139.348C256.328 139.334 256.356 139.32 256.384 139.292C256.314 139.348 256.244 139.404 256.174 139.46C256.188 139.446 256.216 139.432 256.23 139.404C256.174 139.474 256.118 139.545 256.061 139.615C256.075 139.601 256.089 139.573 256.103 139.545C256.061 139.629 256.033 139.713 255.991 139.797C256.005 139.769 256.005 139.755 256.005 139.727C255.991 139.826 255.977 139.91 255.963 140.008C255.963 139.98 255.963 139.966 255.963 139.938C256.497 140.247 257.017 140.542 257.551 140.851C257.354 140.964 257.157 141.062 256.946 141.146C256.82 141.202 256.694 141.245 256.553 141.273C256.202 141.357 255.822 141.399 255.457 141.371C255.317 141.371 255.176 141.343 255.05 141.287C254.923 141.245 254.811 141.174 254.713 141.062C254.53 140.879 254.389 140.584 254.403 140.317C254.417 140.05 254.502 139.755 254.713 139.573C254.937 139.362 255.204 139.207 255.485 139.235Z" fill="#E432ED"/>
<path d="M239.482 153.538C239.412 153.566 239.342 153.609 239.271 153.637C239.033 153.791 238.766 153.876 238.485 153.89C238.204 153.946 237.923 153.946 237.642 153.847C237.361 153.777 237.122 153.651 236.925 153.468C236.7 153.314 236.518 153.117 236.377 152.878C236.307 152.709 236.237 152.541 236.166 152.372C236.068 151.993 236.068 151.628 236.166 151.248C236.237 151.08 236.307 150.911 236.377 150.742C236.56 150.419 236.813 150.18 237.136 149.984C237.206 149.956 237.276 149.913 237.347 149.885C237.585 149.731 237.852 149.647 238.133 149.632C238.414 149.576 238.695 149.576 238.976 149.675C239.257 149.745 239.496 149.871 239.693 150.054C239.918 150.209 240.1 150.405 240.241 150.644C240.311 150.813 240.381 150.981 240.452 151.15C240.55 151.529 240.55 151.894 240.452 152.274C240.381 152.442 240.311 152.611 240.241 152.78C240.058 153.103 239.805 153.356 239.482 153.538Z" fill="#49FCFC"/>
</g>
<defs>
<clipPath id="clip0">
<rect width="281" height="281" fill="white" transform="matrix(-1 0 0 1 281 0)"/>
</clipPath>
</defs>
</svg>
