<svg width="138" height="89" viewBox="0 0 138 89" fill="none" xmlns="http://www.w3.org/2000/svg">
<rect width="10.3125" height="108.414" rx="5.15626" transform="matrix(0.379317 -0.925267 -0.925267 -0.379317 101.026 77.6385)" fill="#9645FE"/>
<rect width="10.3125" height="44.0561" rx="5.15626" transform="matrix(0.508705 0.860941 0.860941 -0.508705 92.1528 69.3094)" fill="#9645FE"/>
<path d="M97.5701 75.2346C96.7847 74.4226 95.1662 72.2399 94.9752 70.0048C94.7842 67.7697 96.8039 65.7078 97.8377 64.9563" stroke="#A762FF" stroke-width="5" stroke-linecap="round"/>
<path d="M86.5942 71.532C85.9058 70.6064 84.5463 68.1654 84.6153 65.8061C84.6842 63.4467 86.9361 61.4803 88.0535 60.7921" stroke="#A762FF" stroke-width="5" stroke-linecap="round"/>
<path d="M75.813 67.8219C75.1246 66.8963 73.765 64.4553 73.834 62.096C73.903 59.7367 76.1549 57.7703 77.2722 57.082" stroke="#A762FF" stroke-width="5" stroke-linecap="round"/>
<ellipse cx="128.525" cy="53.7622" rx="4.945" ry="5.25983" transform="rotate(112.291 128.525 53.7622)" fill="#7C1AF9"/>
</svg>
