<svg width="78" height="112" viewBox="0 0 78 112" fill="none" xmlns="http://www.w3.org/2000/svg">
<rect width="10.5351" height="119.788" rx="5.26756" transform="matrix(-0.849081 0.528263 0.528263 0.849081 12.262 3.02026)" fill="#F98261"/>
<path d="M26.8308 23.7792C26.7483 25.0029 26.1518 27.9692 24.4254 30.0448C22.6991 32.1205 19.436 32.5947 18.0203 32.5723" stroke="#FF9578" stroke-width="5" stroke-linecap="round"/>
<path d="M31.3904 30.6139C31.3079 31.8376 30.7113 34.8039 28.985 36.8795C27.2587 38.9552 23.9956 39.4294 22.5798 39.407" stroke="#FF9578" stroke-width="5" stroke-linecap="round"/>
<path d="M35.9551 38.2855C35.8726 39.5091 35.276 42.4754 33.5497 44.5511C31.8234 46.6267 28.5603 47.1009 27.1445 47.0786" stroke="#FF9578" stroke-width="5" stroke-linecap="round"/>
<circle r="5.61353" transform="matrix(-0.441877 0.897076 0.897076 0.441877 10.6495 10.6492)" fill="#EC643E"/>
</svg>
