<svg viewBox="0 0 118 101" fill="none" xmlns="http://www.w3.org/2000/svg">
<rect width="10.3125" height="108.414" rx="5.15626" transform="matrix(-0.567465 -0.823398 -0.823398 0.567465 114.825 38.1346)" fill="#E57BFF"/>
<rect width="10.3125" height="44.0561" rx="5.15626" transform="matrix(0.740329 -0.672245 -0.672245 -0.740329 107.934 42.884)" fill="#E57BFF"/>
<ellipse cx="85.3326" cy="10.5567" rx="5.33883" ry="5.17426" transform="rotate(55.4264 85.3326 10.5567)" fill="#D961F7"/>
<path d="M110.058 40.9464C108.904 41.2009 106.011 41.4491 103.674 40.4057C101.338 39.3624 100.119 36.4567 99.8019 35.1343" stroke="#EB9DFF" stroke-width="5" stroke-linecap="round"/>
<path d="M101.937 47.1674C100.826 47.2067 98.0633 46.9452 95.9027 45.5848C93.742 44.2245 92.749 41.3334 92.5226 40.0579" stroke="#EB9DFF" stroke-width="5" stroke-linecap="round"/>
<path d="M93.4985 53.685C92.3781 53.7068 89.6042 53.3988 87.472 51.992C85.3398 50.5852 84.4338 47.653 84.2472 46.3628" stroke="#EB9DFF" stroke-width="5" stroke-linecap="round"/>
</svg>
