<svg width="133" height="109" viewBox="0 0 133 109" fill="none" xmlns="http://www.w3.org/2000/svg">
<rect width="10.3125" height="108.414" rx="5.15626" transform="matrix(-0.567465 -0.823398 -0.823398 0.567465 111.663 45.8002)" fill="#FE4566"/>
<rect width="10.3125" height="44.0561" rx="5.15626" transform="matrix(0.999004 0.0446201 0.0446201 -0.999004 99.8379 48.6777)" fill="#FE4566"/>
<path d="M107.761 47.3801C106.652 47.5939 103.939 47.7561 101.963 46.6943C99.9869 45.6326 99.3643 42.8142 99.3001 41.5377" stroke="#FF6A85" stroke-width="5" stroke-linecap="round"/>
<path d="M98.6606 54.5472C97.5093 54.6178 94.7221 54.422 92.7841 53.0746C90.8461 51.7272 90.4304 48.7666 90.4648 47.4547" stroke="#FF6A85" stroke-width="5" stroke-linecap="round"/>
<path d="M89.6606 61.5472C88.5093 61.6178 85.7221 61.422 83.7841 60.0746C81.8461 58.7272 81.4304 55.7666 81.4648 54.4547" stroke="#FF6A85" stroke-width="5" stroke-linecap="round"/>
<ellipse cx="106.7" cy="9.722" rx="4.945" ry="5.25983" transform="rotate(55.4264 106.7 9.722)" fill="#E0304F"/>
</svg>
