<svg width="87" height="120" viewBox="0 0 87 120" fill="none" xmlns="http://www.w3.org/2000/svg">
<rect width="10.3125" height="108.414" rx="5.15626" transform="matrix(-0.915154 0.403105 0.403105 0.915154 41.9631 2.22888)" fill="#B0EBE1"/>
<rect width="10.3125" height="44.0561" rx="5.15626" transform="matrix(-0.521596 -0.853193 -0.853193 0.521596 45.3367 9.88818)" fill="#B0EBE1"/>
<ellipse cx="9.34662" cy="26.0308" rx="5.33883" ry="5.17426" transform="rotate(-23.7724 9.34662 26.0308)" fill="#A2D2CA"/>
<path d="M43.8315 7.4386C43.8652 8.6202 43.5669 11.5083 42.1041 13.6081C40.6413 15.7078 37.5588 16.3602 36.2004 16.4239" stroke="#CAFAF2" stroke-width="5" stroke-linecap="round"/>
<path d="M48.4204 16.582C48.2508 17.6807 47.4763 20.345 45.7352 22.2124C43.994 24.0799 40.968 24.5135 39.6727 24.4969" stroke="#CAFAF2" stroke-width="5" stroke-linecap="round"/>
<path d="M53.2412 26.0918C53.0527 27.1965 52.2303 29.8635 50.4488 31.6943C48.6674 33.525 45.6174 33.8656 44.315 33.807" stroke="#CAFAF2" stroke-width="5" stroke-linecap="round"/>
</svg>
