<svg width="73" height="99" fill="none" xmlns="http://www.w3.org/2000/svg"><path d="M41.9 19.356a5.586 5.586 0 00-7.63 2.044l-8.86 15.345a11.172 11.172 0 00-1.117 8.474 11.17 11.17 0 01-7.904 13.685c-2.861.768-5.3 2.64-6.781 5.206L.748 79.45a5.586 5.586 0 002.045 7.63l19.35 11.172a5.586 5.586 0 007.63-2.045l8.86-15.339a11.173 11.173 0 001.116-8.48 11.172 11.172 0 017.899-13.68c2.86-.77 5.3-2.642 6.787-5.205l8.86-15.345a5.586 5.586 0 00-2.045-7.63L41.9 19.356zM53.066 0l19.35 11.172-11.172 19.35-19.35-11.172L53.066 0z" fill="#84D2F4"/><path d="M61.25 30.528l-4.19-2.42-8.206 14.223a11.222 11.222 0 01-6.786 5.206 11.172 11.172 0 00-7.899 13.68 11.174 11.174 0 01-1.117 8.48l-8.86 15.338a5.586 5.586 0 01-7.63 2.045l-15.16-8.753-.648 1.117a5.586 5.586 0 002.044 7.63l19.35 11.172a5.586 5.586 0 007.63-2.044l8.86-15.34a11.173 11.173 0 001.117-8.479 11.172 11.172 0 017.898-13.68 11.226 11.226 0 006.788-5.206l8.853-15.339a5.586 5.586 0 00-2.044-7.63z" fill="#57B7EB"/><path d="M63.395 5.966L61.25 9.681a11.172 11.172 0 01-15.261 4.089l-.648-.374-3.441 5.96 19.35 11.172 11.172-19.35-9.027-5.212z" fill="#57B7EB"/><path d="M12.797 60.614l27.26 15.696a11.83 11.83 0 01-1.397 4.58l-3.295 5.642L6.317 69.775l3.295-5.642a11.35 11.35 0 013.184-3.52zm44.911-12.792l-3.295 5.697a10.517 10.517 0 01-3.184 3.464l-27.26-15.697c.15-1.596.646-3.14 1.453-4.524l3.24-5.698 29.046 16.758z" fill="#F9E109"/><path d="M57.708 47.822l-3.295 5.697a10.517 10.517 0 01-3.184 3.464l-27.26-15.697c.15-1.596.646-3.14 1.453-4.524l3.24-5.698 29.046 16.758zM40.057 76.31a11.83 11.83 0 01-1.397 4.58l-3.295 5.642L6.317 69.775l3.295-5.642a11.35 11.35 0 013.184-3.52l27.26 15.697z" fill="#E59730"/><path d="M48.66 42.599l-20-11.535-3.24 5.698a11.05 11.05 0 00-1.452 4.524l14.2 8.178a11.134 11.134 0 013.91-1.927 11.172 11.172 0 006.58-4.938zM12.797 60.614a11.35 11.35 0 00-3.184 3.519l-3.295 5.642 20.02 11.551 5.586-9.691-19.127-11.022z" fill="#FCBC04"/></svg>