<svg width="317" height="455" viewBox="0 0 317 455" fill="none" xmlns="http://www.w3.org/2000/svg">
<rect x="96" width="53" height="454" rx="10" fill="#EBCDAA"/>
<rect x="96" width="53" height="53" rx="10" fill="#DAB78E"/>
<rect x="96" y="96" width="53" height="17" fill="#E13029"/>
<rect x="96" y="196" width="53" height="17" fill="#E13029"/>
<rect x="96" y="246" width="53" height="17" fill="#E13029"/>
<rect x="96" y="296" width="53" height="17" fill="#E13029"/>
<rect x="96" y="346" width="53" height="17" fill="#E13029"/>
<rect x="96" y="396" width="53" height="17" fill="#E13029"/>
<rect x="96" y="146" width="53" height="17" fill="#E13029"/>
<rect width="52" height="454" rx="10" fill="#FCD777"/>
<rect y="45" width="1" height="399" fill="#F7C955"/>
<rect x="3" y="45" width="1" height="399" fill="#F7C955"/>
<rect x="6" y="45" width="1" height="399" fill="#F7C955"/>
<rect x="9" y="45" width="1" height="399" fill="#F7C955"/>
<rect x="12" y="45" width="1" height="399" fill="#F7C955"/>
<rect x="15" y="45" width="1" height="399" fill="#F7C955"/>
<rect x="18" y="45" width="1" height="399" fill="#F7C955"/>
<rect x="21" y="45" width="1" height="399" fill="#F7C955"/>
<rect x="24" y="45" width="1" height="399" fill="#F7C955"/>
<rect x="27" y="45" width="1" height="399" fill="#F7C955"/>
<rect x="30" y="45" width="1" height="399" fill="#F7C955"/>
<rect x="33" y="45" width="1" height="399" fill="#F7C955"/>
<rect x="36" y="45" width="1" height="399" fill="#F7C955"/>
<rect x="39" y="45" width="1" height="399" fill="#F7C955"/>
<rect x="42" y="45" width="1" height="399" fill="#F7C955"/>
<rect x="45" y="45" width="1" height="399" fill="#F7C955"/>
<rect x="48" y="45" width="1" height="399" fill="#F7C955"/>
<rect x="51" y="45" width="1" height="399" fill="#F7C955"/>
<rect x="166" y="304" width="151" height="151" rx="30" fill="#9FF3DA"/>
<path d="M288.111 319V330.722L265.197 363.459C264.696 364.194 264.054 364.823 263.308 365.308C262.562 365.794 261.728 366.126 260.853 366.287C259.977 366.447 259.079 366.432 258.21 366.242C257.34 366.053 256.517 365.693 255.788 365.183C255.059 364.673 254.438 364.023 253.962 363.272C253.486 362.52 253.164 361.681 253.015 360.804C252.865 359.927 252.891 359.029 253.091 358.162C253.291 357.295 253.662 356.476 254.181 355.754L277.86 321.933L288.111 319Z" fill="#03816B"/>
<path d="M241.056 394.667V406.389L230.804 403.456L194 350.889V339.167L204.251 342.099L241.056 394.667Z" fill="#03816B"/>
<path d="M241.056 440C239.273 440 237.563 439.292 236.302 438.031C235.042 436.77 234.333 435.061 234.333 433.278V386.222C234.333 384.439 235.042 382.73 236.302 381.469C237.563 380.208 239.273 379.5 241.056 379.5C242.839 379.5 244.548 380.208 245.809 381.469C247.07 382.73 247.778 384.439 247.778 386.222V433.278C247.778 435.061 247.07 436.77 245.809 438.031C244.548 439.292 242.839 440 241.056 440Z" fill="#03816B"/>
<path d="M288.111 319L269.09 324.435C261.013 326.743 253.908 331.618 248.85 338.325C243.791 345.031 241.055 353.202 241.056 361.602V386.222L260.077 380.787C268.154 378.48 275.259 373.604 280.317 366.898C285.376 360.191 288.112 352.02 288.111 343.62V319Z" fill="#04957C"/>
<path d="M194 339.167L213.021 344.602C221.098 346.909 228.203 351.785 233.262 358.491C238.32 365.197 241.056 373.369 241.056 381.769V394.667L234.222 404.436L222.038 400.954C213.961 398.647 206.855 393.772 201.796 387.065C196.737 380.359 194 372.187 194 363.787V339.167Z" fill="#04957C"/>
<path d="M241.056 394.667V406.389L230.804 403.456L194 350.889V339.167L204.251 342.099L241.056 394.667Z" fill="#03816B"/>
<path d="M288 319V332.108L261.955 368.715C261.386 369.537 260.656 370.24 259.809 370.783C258.961 371.326 258.012 371.698 257.018 371.877C256.023 372.056 255.002 372.039 254.014 371.828C253.025 371.616 252.09 371.213 251.261 370.643C250.433 370.072 249.727 369.346 249.186 368.505C248.645 367.665 248.279 366.727 248.109 365.746C247.939 364.766 247.968 363.761 248.196 362.792C248.423 361.822 248.844 360.907 249.434 360.099L276.348 322.279L288 319Z" fill="#03816B"/>
<rect width="52" height="52" rx="10" fill="#DDBE6E"/>
</svg>
