<svg width="226" height="325" viewBox="0 0 226 325" fill="none" xmlns="http://www.w3.org/2000/svg">
<rect x="68.4417" width="37.7855" height="323.672" rx="10" fill="#EBCDAA"/>
<rect x="68.4417" width="37.7855" height="37.7855" rx="10" fill="#DAB78E"/>
<rect x="68.4417" y="68.4417" width="37.7855" height="12.1199" fill="#E13029"/>
<rect x="68.4417" y="139.735" width="37.7855" height="12.1199" fill="#E13029"/>
<rect x="68.4417" y="175.382" width="37.7855" height="12.1199" fill="#E13029"/>
<rect x="68.4417" y="211.028" width="37.7855" height="12.1199" fill="#E13029"/>
<rect x="68.4417" y="246.675" width="37.7855" height="12.1199" fill="#E13029"/>
<rect x="68.4417" y="282.322" width="37.7855" height="12.1199" fill="#E13029"/>
<rect x="68.4417" y="104.088" width="37.7855" height="12.1199" fill="#E13029"/>
<rect width="37.0726" height="323.672" rx="10" fill="#FCD777"/>
<rect y="32.082" width="0.712934" height="284.461" fill="#F7C955"/>
<rect x="2.13879" y="32.082" width="0.712934" height="284.461" fill="#F7C955"/>
<rect x="4.27759" y="32.082" width="0.712934" height="284.461" fill="#F7C955"/>
<rect x="6.41638" y="32.082" width="0.712934" height="284.461" fill="#F7C955"/>
<rect x="8.55518" y="32.082" width="0.712934" height="284.461" fill="#F7C955"/>
<rect x="10.694" y="32.082" width="0.712934" height="284.461" fill="#F7C955"/>
<rect x="12.8328" y="32.082" width="0.712934" height="284.461" fill="#F7C955"/>
<rect x="14.9716" y="32.082" width="0.712934" height="284.461" fill="#F7C955"/>
<rect x="17.1104" y="32.082" width="0.712934" height="284.461" fill="#F7C955"/>
<rect x="19.2493" y="32.082" width="0.712934" height="284.461" fill="#F7C955"/>
<rect x="21.3881" y="32.082" width="0.712934" height="284.461" fill="#F7C955"/>
<rect x="23.5269" y="32.082" width="0.712934" height="284.461" fill="#F7C955"/>
<rect x="25.6656" y="32.082" width="0.712934" height="284.461" fill="#F7C955"/>
<rect x="27.8044" y="32.082" width="0.712934" height="284.461" fill="#F7C955"/>
<rect x="29.9432" y="32.082" width="0.712934" height="284.461" fill="#F7C955"/>
<rect x="32.082" y="32.082" width="0.712934" height="284.461" fill="#F7C955"/>
<rect x="34.2208" y="32.082" width="0.712934" height="284.461" fill="#F7C955"/>
<rect x="36.3596" y="32.082" width="0.712934" height="284.461" fill="#F7C955"/>
<rect x="118.347" y="216.732" width="107.653" height="107.653" rx="30" fill="#9FF3DA"/>
<path d="M205.404 227.426V235.783L189.068 259.122C188.71 259.646 188.253 260.095 187.721 260.441C187.19 260.787 186.594 261.024 185.97 261.138C185.347 261.252 184.706 261.242 184.086 261.107C183.467 260.971 182.88 260.715 182.36 260.351C181.84 259.988 181.398 259.524 181.058 258.988C180.719 258.453 180.489 257.855 180.382 257.229C180.276 256.604 180.294 255.964 180.437 255.346C180.58 254.728 180.844 254.144 181.214 253.629L198.095 229.517L205.404 227.426Z" fill="#03816B"/>
<path d="M171.857 281.372V289.728L164.548 287.638L138.309 250.16V241.803L145.618 243.894L171.857 281.372Z" fill="#03816B"/>
<path d="M171.857 313.691C170.586 313.691 169.367 313.186 168.468 312.287C167.569 311.388 167.064 310.169 167.064 308.898V275.351C167.064 274.08 167.569 272.861 168.468 271.962C169.367 271.063 170.586 270.558 171.857 270.558C173.128 270.558 174.347 271.063 175.246 271.962C176.144 272.861 176.649 274.08 176.649 275.351V308.898C176.649 310.169 176.144 311.388 175.246 312.287C174.347 313.186 173.128 313.691 171.857 313.691Z" fill="#03816B"/>
<path d="M205.404 227.426L191.843 231.301C186.085 232.946 181.019 236.422 177.413 241.203C173.807 245.984 171.856 251.81 171.857 257.798V275.351L185.418 271.476C191.176 269.831 196.241 266.355 199.848 261.574C203.454 256.793 205.404 250.967 205.404 244.978V227.426Z" fill="#04957C"/>
<path d="M138.309 241.803L151.87 245.678C157.628 247.323 162.694 250.8 166.3 255.581C169.906 260.362 171.857 266.187 171.857 272.176V281.372L166.985 288.336L158.299 285.854C152.54 284.209 147.474 280.733 143.867 275.952C140.26 271.171 138.309 265.345 138.309 259.356V241.803Z" fill="#04957C"/>
<path d="M171.857 281.372V289.728L164.548 287.638L138.309 250.16V241.803L145.618 243.894L171.857 281.372Z" fill="#03816B"/>
<path d="M205.325 227.426V236.771L186.757 262.869C186.351 263.456 185.831 263.957 185.226 264.344C184.622 264.731 183.946 264.996 183.236 265.124C182.527 265.251 181.799 265.239 181.095 265.088C180.39 264.937 179.723 264.65 179.133 264.244C178.542 263.837 178.039 263.319 177.653 262.72C177.267 262.121 177.006 261.452 176.885 260.753C176.764 260.054 176.785 259.338 176.947 258.646C177.109 257.955 177.41 257.303 177.83 256.727L197.018 229.764L205.325 227.426Z" fill="#03816B"/>
<rect width="37.0726" height="37.0726" rx="10" fill="#DDBE6E"/>
</svg>
