<svg width="296" height="464" fill="none" xmlns="http://www.w3.org/2000/svg"><path d="M80 88v376H48V88l-4.36-8L0 0h32l43.64 80L80 88z" fill="#E6CEB3"/><path d="M80 88v8H48v-8l-4.36-8h32L80 88zm-32 16h32v16H48v-16zm0 24h32v16H48v-16z" fill="#C5B099"/><path d="M152 464h-32V0h32v464z" fill="#EBEBEB"/><path d="M128 464h-8V0h8v464z" fill="#E4E4E2"/><path d="M184 424c61.856 0 112-50.144 112-112s-50.144-112-112-112S72 250.144 72 312s50.144 112 112 112z" fill="#BAF6E4"/><path d="M184 416c57.438 0 104-46.562 104-104s-46.562-104-104-104S80 254.562 80 312s46.562 104 104 104z" fill="#AAE5C8"/><path d="M240 256v13.95l-27.27 38.96a8 8 0 11-13.11-9.17l28.18-40.25L240 256zm-56 90.05V360l-12.2-3.49-43.8-62.56V280l12.2 3.49 43.8 62.56z" fill="#03816B"/><path d="M184 400a8 8 0 01-8-8v-56a8 8 0 1116 0v56a8 8 0 01-8 8z" fill="#03816B"/><path d="M240 256l-22.637 6.468A46 46 0 00184 306.7V336l22.637-6.468A46 46 0 00240 285.3V256z" fill="#04957C"/><path d="M128 280l22.637 6.468A46 46 0 01184 330.7v15.35l-8.132 11.626-14.5-4.144A46 46 0 01128 309.3V280z" fill="#04957C"/><path d="M184 346.05V360l-12.2-3.49-43.8-62.56V280l12.2 3.49 43.8 62.56zM240 256v13.95l-27.27 38.96a8 8 0 11-13.11-9.17l28.18-40.25L240 256z" fill="#03816B"/></svg>