<svg width="360" height="360" fill="none" xmlns="http://www.w3.org/2000/svg"><path d="M129.375 78.75v264.375h-22.5V78.75l-3.066-5.625-30.684-56.25h22.5l30.684 56.25 3.066 5.625z" fill="#E6CEB3"/><path d="M129.375 78.75v5.625h-22.5V78.75l-3.066-5.625h22.5l3.066 5.625zM106.875 90h22.5v11.25h-22.5V90zm0 16.875h22.5v11.25h-22.5v-11.25z" fill="#C5B099"/><path d="M180 343.125h-22.5V16.875H180v326.25z" fill="#EBEBEB"/><path d="M163.125 343.125H157.5V16.875h5.625v326.25z" fill="#E4E4E2"/><path d="M202.5 315c43.492 0 78.75-35.258 78.75-78.75s-35.258-78.75-78.75-78.75-78.75 35.258-78.75 78.75S159.008 315 202.5 315z" fill="#BAF6E4"/><path d="M202.5 309.375c40.386 0 73.125-32.739 73.125-73.125s-32.739-73.125-73.125-73.125-73.125 32.739-73.125 73.125 32.739 73.125 73.125 73.125z" fill="#AAE5C8"/><path d="M241.875 196.875v9.809l-19.174 27.393a5.616 5.616 0 01-3.635 2.366 5.622 5.622 0 01-5.766-2.523 5.626 5.626 0 01.183-6.29l19.814-28.301 8.578-2.454zM202.5 260.191V270l-8.578-2.454-30.797-43.987v-9.809l8.578 2.454 30.797 43.987z" fill="#03816B"/><path d="M202.5 298.125a5.622 5.622 0 01-3.977-1.648 5.622 5.622 0 01-1.648-3.977v-39.375c0-1.492.593-2.923 1.648-3.977a5.622 5.622 0 017.954 0 5.622 5.622 0 011.648 3.977V292.5a5.622 5.622 0 01-1.648 3.977 5.622 5.622 0 01-3.977 1.648z" fill="#03816B"/><path d="M241.875 196.875l-15.917 4.548a32.344 32.344 0 00-23.458 31.1v20.602l15.917-4.548a32.344 32.344 0 0023.458-31.1v-20.602z" fill="#04957C"/><path d="M163.125 213.75l15.917 4.548a32.344 32.344 0 0123.458 31.1v10.793l-5.718 8.175-10.195-2.914a32.348 32.348 0 01-16.939-11.621 32.348 32.348 0 01-6.523-19.479V213.75z" fill="#04957C"/><path d="M202.5 260.191V270l-8.578-2.454-30.797-43.987v-9.809l8.578 2.454 30.797 43.987zm39.375-63.316v9.809l-19.174 27.393a5.616 5.616 0 01-3.635 2.366 5.622 5.622 0 01-5.766-2.523 5.626 5.626 0 01.183-6.29l19.814-28.301 8.578-2.454z" fill="#03816B"/></svg>