<svg width="139" height="139" fill="none" xmlns="http://www.w3.org/2000/svg"><g clip-path="url(#clip0)"><path d="M33.993 126.799s-5.079 9.804-11.851 9.804c-5.079 0-10.16-8.169-10.16-17.974 0-4.901-.208-15.577 6.773-15.577 6.773 0 14.797 9.586 14.797 9.586l.44 14.161zM31.155 62.31s-7.19 14.38-16.776 14.38C7.19 76.69 0 64.707 0 50.328c0-7.19-.295-26.363 9.586-26.363 9.586 0 21.57 14.38 21.57 14.38V62.31zm42.731-42.275c-4.027-3.978-6.303-9.226-2.253-14.763 7.549-10.4 21.785-3.259 29.454 3.116a38.641 38.641 0 018.675 10.713l-35.876.934zM45.503 38.386c-5.15-3.809-9.84-10.04-5.36-16.745 7.544-11.403 23.006.029 27.778 5.991L45.503 38.385zm5.304 24.21c-5.069 3.038-10.377 8.699-6.12 14.837 5.583 8.004 16.056 2.492 21.712-2.397A9.378 9.378 0 0069.67 69.5l-18.863-6.904zM63.269 97.9a7.086 7.086 0 01.48-7.838c5.104-7.477 14.738-2.348 19.915 2.23 1.54 1.39 2.9 2.969 4.05 4.696l-24.445.911zM45.88 114.368c-4.377-2.274-10.114-7.266-6.265-12.826 3.882-5.608 10.689-3.044 15.41.311h.024l-9.17 12.515zm2.873 11.691c-3.61 2.053-7.57 5.972-4.513 10.199 4.444 6.102 13.534.82 18.183-4.357l-13.67-5.842z" fill="#E57E25"/><path d="M31.155 52.724H9.586a2.396 2.396 0 110-4.793h21.57a2.397 2.397 0 010 4.793z" fill="#D25627"/><path d="M31.155 47.955c-.474 0-.936-.142-1.33-.405-6.741-4.506-18.195-6.833-18.31-6.857a2.397 2.397 0 11.947-4.697c.508.1 12.51 2.543 20.035 7.569a2.396 2.396 0 01-1.342 4.39zM11.983 64.707a2.397 2.397 0 01-.48-4.745c.115-.024 11.585-2.363 18.31-6.857a2.397 2.397 0 112.665 3.986c-7.525 5.032-19.527 7.467-20.035 7.568a2.288 2.288 0 01-.46.048z" fill="#D25627"/><path d="M131.81 93.466a7.19 7.19 0 100-14.38 7.19 7.19 0 000 14.38zm-4.793 19.172a4.793 4.793 0 100-9.586 4.793 4.793 0 000 9.586zM124.621 9.586a4.793 4.793 0 100-9.586 4.793 4.793 0 000 9.586z" fill="#3B97D3"/><path d="M117.431 98.259a2.397 2.397 0 100-4.794 2.397 2.397 0 000 4.794zm16.776-81.483a2.396 2.396 0 100-4.793 2.396 2.396 0 000 4.793z" fill="#2980BA"/><path d="M21.569 127.017a2.396 2.396 0 01-.463-4.747l11.983-2.38a2.397 2.397 0 01.93 4.702l-11.983 2.38a2.44 2.44 0 01-.467.045z" fill="#D25627"/><path d="M33.552 119.828c-.161 0-.322-.015-.48-.046l-11.982-2.408a2.397 2.397 0 11.944-4.698l11.983 2.397a2.396 2.396 0 01-.465 4.755z" fill="#D25627"/><path d="M31.155 38.345a18.336 18.336 0 00-4.793 11.983 18.336 18.336 0 004.793 11.982 55.428 55.428 0 0121.57 4.793c9.585 4.794 21.568 11.983 40.74 11.983 19.173 0 45.535-14.38 45.535-33.551a39.921 39.921 0 000-4.794c-2.397-9.586-24.783-23.965-43.138-23.965-15.158 0-23.965 2.396-38.345 11.983-17.154 11.436-19.172 9.586-26.362 9.586z" fill="#F29C1F"/><path d="M122.224 45.535a4.793 4.793 0 100-9.587 4.793 4.793 0 000 9.587z" fill="#35495E"/><path d="M71.897 55.12c-2.253 6.735-6.591 7.166-9.083 17.016-3.715-1.725-7.022-3.499-10.09-5.032a24.872 24.872 0 00-2.3-1.031c.503-6.902 2.3-9.802 2.3-18.142a33.024 33.024 0 00-3.331-14.068c2.277-1.318 4.937-2.971 8.124-5.104a118.246 118.246 0 013.212-2.085 31.908 31.908 0 006.374 11.67c4.794 4.794 7.19 9.587 4.794 16.777zm25.427 13.134a52.301 52.301 0 002.828 10.305 46.174 46.174 0 01-6.686.527A68.444 68.444 0 0177.12 77.17c4.266-3.763 5.848-9.994 6.423-15.673l.623-12.606a54.899 54.899 0 002.109-15.338 29.278 29.278 0 00-4.53-15.674 74.194 74.194 0 0113.66-1.102 29.534 29.534 0 015.249 16.776 39.68 39.68 0 01-3.499 16.704l.168 17.998z" fill="#ECF0F1"/><path d="M105.448 47.931a10.496 10.496 0 01-7.19 2.397c-4.792 0-16.775-5.182-16.775 2.396 0 7.19 4.793 16.776 11.983 16.776 4.793 0 7.189-4.793 9.586-9.586l2.396-11.983zm-71.896 64.707a11.982 11.982 0 000 14.379 33.494 33.494 0 0115.678 2.255C56.003 132.515 63.144 139 76.69 139c13.545 0 33.492-11.35 33.492-24.32.067-1.08.067-2.163 0-3.243-1.692-6.485-18.128-15.575-31.096-15.575-10.707 0-16.31.985-26.47 7.47-12.114 7.736-13.986 9.306-19.064 9.306z" fill="#F29C1F"/><path d="M98.259 115.034a2.396 2.396 0 100-4.793 2.396 2.396 0 000 4.793z" fill="#35495E"/><path d="M81.339 116.425l-2.133 12.845c.118 3.185.415 6.362.887 9.514a27.657 27.657 0 01-3.403.216 36.835 36.835 0 01-7.765-.791 47.769 47.769 0 011.606-14.235v-.024l2.396-7.837h.024c1.294-7.621-1.965-15.482-4.122-19.628a62.97 62.97 0 0110.257-.623 26.085 26.085 0 013.02.168 16.384 16.384 0 011.773 9.418 48.214 48.214 0 01-2.54 10.977zm-26.985 15.673c-1.774-1.055-3.475-2.037-5.129-2.828-.906-.43-1.843-.79-2.804-1.078a47.244 47.244 0 001.51-10.761 17.404 17.404 0 00-2.804-9.323c1.99-1.222 4.41-2.804 7.501-4.769.288-.191.551-.359.84-.527a100.415 100.415 0 004.05 9.826c2.252 4.505 4.505 9.011-3.164 19.46z" fill="#ECF0F1"/><path d="M86.276 115.035a11.156 11.156 0 01-5.591 1.437c-3.356 0-11.185-1.958-11.185 2.589 0 5.176 3.355 10.353 8.388 10.353a8.09 8.09 0 005.591-2.588l2.797-11.791z" fill="#F29C1F"/><path d="M93.466 71.897c-8.91 0-14.38-11.168-14.38-19.173a6.102 6.102 0 012.13-4.987c3.023-2.466 8.089-1.438 12.563-.513 1.472.356 2.97.593 4.48.707a8.316 8.316 0 005.512-1.72 2.41 2.41 0 013.374.069 2.38 2.38 0 01-.014 3.355 12.73 12.73 0 01-8.872 3.09 30.046 30.046 0 01-5.443-.806c-2.732-.558-7.302-1.498-8.57-.48a1.649 1.649 0 00-.367 1.285c0 6.514 4.276 14.38 9.587 14.38 3.089 0 4.872-3.116 7.429-8.261a2.396 2.396 0 014.145-.251 2.4 2.4 0 01.145 2.393c-2.548 5.114-5.445 10.912-11.72 10.912zM77.888 131.81c-6.66 0-10.785-6.617-10.785-12.749a4.893 4.893 0 011.58-3.749c2.317-2.106 6.37-1.718 9.639-1.406.898.086 1.718.17 2.363.17a8.982 8.982 0 004.294-1.057 2.396 2.396 0 112.593 4.031 13.42 13.42 0 01-6.887 1.819c-.767 0-1.75-.089-2.821-.192-1.438-.139-5.287-.508-5.96.185 0 4.04 2.396 8.148 5.991 8.148a5.736 5.736 0 003.791-1.773 2.396 2.396 0 013.614 3.146 10.364 10.364 0 01-7.412 3.427z" fill="#E57E25"/></g><defs><clipPath id="clip0"><path fill="#fff" d="M0 0h139v139H0z"/></clipPath></defs></svg>