<svg width="219" height="219" fill="none" xmlns="http://www.w3.org/2000/svg"><path d="M84.022 33.067h14.559v181.981H84.022V33.067z" fill="#DBDBDB"/><path d="M84.022 33.067h3.64v181.981h-3.64V33.067z" fill="#CBCBCB"/><path d="M156.815 33.067l-19.854 36.396-1.984 3.64v141.945h-14.558V73.103l1.984-3.64 19.854-36.396h14.558z" fill="#04957C"/><path d="M136.961 69.463l-1.983 3.64v3.64h-14.559v-3.64l1.984-3.64h14.558zm-16.542 10.919h14.558v7.28h-14.558v-7.28zm0 10.918h14.558v7.28h-14.558V91.3z" fill="#03816B"/><path d="M186.708 32.293A109.185 109.185 0 0067.507 8.27a109.188 109.188 0 00-35.215 178.438A109.181 109.181 0 00109.59 219 109.187 109.187 0 00219 109.592a109.181 109.181 0 00-32.292-77.299zm-5.147 5.145a101.9 101.9 0 012.524 141.498L40.063 34.915a101.898 101.898 0 01141.498 2.523zM37.439 181.56a101.899 101.899 0 01-2.524-141.499l144.022 144.022a101.895 101.895 0 01-141.498-2.523z" fill="#E13029"/></svg>