<svg width="437" height="437" fill="none" xmlns="http://www.w3.org/2000/svg"><path d="M167.661 65.982h29.051v363.132h-29.051V65.982z" fill="#DBDBDB"/><path d="M167.661 65.982h7.263v363.132h-7.263V65.982z" fill="#CBCBCB"/><path d="M312.914 65.982l-39.618 72.627-3.958 7.262v283.243h-29.05V145.871l3.958-7.262 39.617-72.627h29.051z" fill="#04957C"/><path d="M273.296 138.609l-3.958 7.262v7.263h-29.05v-7.263l3.958-7.262h29.05zm-33.008 21.788h29.05v14.525h-29.05v-14.525zm0 21.788h29.05v14.525h-29.05v-14.525z" fill="#03816B"/><path d="M372.564 64.439A217.88 217.88 0 1064.436 372.56 217.88 217.88 0 10372.564 64.439zm-10.271 10.266a203.335 203.335 0 015.036 282.35L79.942 69.67a203.332 203.332 0 01282.351 5.035zM74.707 362.29a203.333 203.333 0 01-5.036-282.35l287.387 287.385a203.333 203.333 0 01-282.351-5.035z" fill="#E13029"/></svg>