<svg width="98" height="124" fill="none" xmlns="http://www.w3.org/2000/svg"><path d="M46.594 6.262l-1.182 18.933L55.96 41.33l-23.294 6.263-10.51-15.968L23.3 12.531 0 18.793l.416 24.94 4.685 17.535 17.892 20.245 5.1 42.475 17.476-4.695 24.783-12.93 27.636-1.162-.416-24.947-16.335-14.4-1.978-30.785-10.505-15.967L69.894 0l-23.3 6.262z" fill="#57B7EB"/><path d="M82.412 88.211l-19.175 7.993a19.84 19.84 0 01-17.252-.977 19.922 19.922 0 01-6.603-5.93 20.003 20.003 0 01-3.383-8.22 19.995 19.995 0 00-4.727-9.922l-14.11-15.968-4.686-17.546-.368-22.146L0 18.793l.416 24.94L5.101 61.28l17.892 20.245 5.1 42.475 17.488-4.695 24.783-12.93L98 105.213l-.314-17.643-15.274.641z" fill="#57B7EB"/></svg>