<svg width="145" height="133" fill="none" xmlns="http://www.w3.org/2000/svg"><g clip-path="url(#clip0)"><path d="M31.112 80.147c-2.429 2.767-4.034 4.598-4.214 8.912-.18 4.316 1.268 6.27 3.458 9.233 2.678 3.62 6.013 8.128 5.667 16.433-.345 8.305-4.044 12.521-7.013 15.905-2.43 2.771-4.035 4.598-4.214 8.915l-11.307-.471c.345-8.305 4.044-12.52 7.013-15.905 2.43-2.77 4.034-4.598 4.214-8.914.18-4.317-1.268-6.271-3.458-9.234-2.678-3.62-6.013-8.128-5.667-16.433.346-8.305 4.044-12.52 7.014-15.905 2.428-2.77 4.034-4.598 4.213-8.914.18-4.314-1.268-6.269-3.458-9.231-2.678-3.62-6.013-8.128-5.667-16.433.346-8.305 4.044-12.521 7.014-15.906 2.429-2.768 4.034-4.598 4.213-8.912a5.659 5.659 0 0111.308.471c-.346 8.305-4.044 12.518-7.014 15.905-2.429 2.768-4.034 4.598-4.214 8.912-.18 4.316 1.268 6.271 3.458 9.23 2.678 3.624 6.013 8.129 5.668 16.434-.346 8.308-4.044 12.52-7.014 15.908z" fill="#7CD3CD"/><path d="M59.85 96.579c-1.803 2.056-2.797 3.186-2.917 6.069-.12 2.883.776 4.094 2.403 6.294 2.013 2.722 4.772 6.451 4.495 13.111-.278 6.659-3.338 10.146-5.57 12.691-1.804 2.057-2.798 3.19-2.918 6.072l-10.706-.445c.277-6.66 3.334-10.147 5.569-12.692 1.804-2.057 2.798-3.189 2.918-6.072.12-2.883-.776-4.095-2.403-6.294-2.016-2.722-4.772-6.451-4.495-13.111.278-6.66 3.335-10.146 5.57-12.692 1.804-2.056 2.797-3.189 2.917-6.072.12-2.88-.776-4.092-2.403-6.29-2.016-2.723-4.772-6.452-4.495-13.112.278-6.659 3.335-10.146 5.57-12.691 1.804-2.057 2.798-3.19 2.918-6.073a5.358 5.358 0 0110.706.446c-.277 6.66-3.337 10.146-5.569 12.692-1.804 2.056-2.798 3.19-2.918 6.072-.12 2.88.776 4.092 2.403 6.291 2.013 2.722 4.772 6.451 4.495 13.111-.277 6.662-3.337 10.147-5.57 12.695z" fill="#56BCC7"/><path d="M90.981 93.917c3.058 4.132 6.865 9.275 6.473 18.675-.391 9.399-4.612 14.208-8.003 18.071-2.947 3.36-5.078 5.788-5.31 11.353l-10.864-.453c.392-9.399 4.613-14.208 8-18.071 2.951-3.36 5.081-5.788 5.313-11.353.232-5.565-1.69-8.162-4.35-11.755-3.055-4.132-6.862-9.274-6.47-18.674.391-9.397 4.612-14.209 8-18.072 2.95-3.36 5.08-5.787 5.313-11.352.231-5.563-1.69-8.16-4.351-11.753-3.055-4.132-6.861-9.274-6.47-18.674.332-7.98 3.371-12.625 6.606-16.457a5.436 5.436 0 118.308 7.012c-2.092 2.481-3.844 4.938-4.05 9.898-.232 5.564 1.69 8.161 4.348 11.754 3.057 4.133 6.864 9.275 6.473 18.672-.391 9.4-4.613 14.208-8.003 18.072-2.948 3.36-5.079 5.787-5.31 11.352-.232 5.565 1.69 8.162 4.347 11.755z" fill="#7CD3CD"/><path d="M113.503 98.813c1.627 2.199 2.524 3.408 2.404 6.291-.12 2.883-1.114 4.016-2.918 6.072-2.233 2.545-5.292 6.032-5.57 12.692-.277 6.659 2.483 10.388 4.495 13.11 1.627 2.2 2.523 3.411 2.403 6.294l10.707.446c.277-6.659-2.479-10.389-4.495-13.111-1.627-2.199-2.523-3.411-2.403-6.293.12-2.883 1.114-4.016 2.918-6.073 2.235-2.545 5.292-6.032 5.569-12.692.278-6.659-2.479-10.388-4.494-13.11-1.628-2.2-2.524-3.411-2.404-6.294.12-2.88 1.114-4.013 2.918-6.07 2.235-2.545 5.292-6.032 5.57-12.691.277-6.66-2.48-10.389-4.495-13.111-1.627-2.2-2.523-3.411-2.403-6.294a5.358 5.358 0 00-10.707-.446c-.277 6.66 2.482 10.389 4.495 13.111 1.627 2.2 2.523 3.411 2.403 6.294-.12 2.88-1.113 4.013-2.918 6.07-2.232 2.544-5.292 6.032-5.569 12.691-.278 6.663 2.482 10.39 4.494 13.114z" fill="#56BCC7"/></g><defs><clipPath id="clip0"><path fill="#fff" transform="rotate(2.384 2.884 138.573)" d="M0 0h138.632v138.632H0z"/></clipPath></defs></svg>