<svg width="415" height="312" fill="none" xmlns="http://www.w3.org/2000/svg"><g clip-path="url(#clip0)"><path d="M89.41 230.33c-6.98 7.953-11.593 13.213-12.109 25.61-.517 12.405 3.644 18.022 9.938 26.536 7.697 10.403 17.28 23.359 16.286 47.226-.994 23.867-11.622 35.982-20.156 45.709-6.98 7.961-11.594 13.213-12.11 25.618l-32.495-1.353c.993-23.867 11.622-35.981 20.156-45.708 6.98-7.961 11.593-13.214 12.11-25.618.516-12.406-3.644-18.023-9.938-26.536-7.697-10.403-17.28-23.359-16.287-47.227.994-23.867 11.622-35.981 20.157-45.708 6.98-7.961 11.593-13.214 12.11-25.618.515-12.397-3.645-18.015-9.939-26.529-7.697-10.403-17.28-23.358-16.286-47.226.993-23.867 11.622-35.983 20.156-45.71 6.98-7.953 11.593-13.214 12.11-25.61.373-8.977 7.954-15.945 16.923-15.571 8.977.374 15.945 7.947 15.571 16.924-.994 23.867-11.622 35.974-20.156 45.709-6.98 7.953-11.593 13.213-12.11 25.61-.516 12.405 3.644 18.022 9.939 26.528 7.696 10.412 17.28 23.359 16.286 47.226-.993 23.876-11.621 35.982-20.156 45.718z" fill="#7CD3CD"/><path d="M172.001 277.551c-5.184 5.91-8.041 9.158-8.386 17.443-.345 8.285 2.231 11.766 6.907 18.087 5.784 7.823 13.713 18.54 12.917 37.678-.797 19.138-9.591 29.159-16.005 36.474-5.185 5.91-8.041 9.166-8.386 17.45l-30.769-1.281c.797-19.138 9.582-29.159 16.004-36.473 5.186-5.911 8.042-9.166 8.387-17.451.345-8.285-2.23-11.766-6.907-18.087-5.792-7.823-13.714-18.54-12.917-37.679.797-19.138 9.583-29.159 16.005-36.474 5.186-5.91 8.041-9.166 8.386-17.45.345-8.276-2.23-11.76-6.907-18.08-5.792-7.823-13.713-18.54-12.917-37.678.797-19.138 9.583-29.159 16.005-36.474 5.186-5.91 8.042-9.166 8.386-17.451.354-8.492 7.526-15.097 16.026-14.744 8.5.354 15.097 7.533 14.743 16.026-.796 19.138-9.59 29.159-16.004 36.473-5.185 5.91-8.042 9.166-8.387 17.451-.344 8.276 2.231 11.759 6.907 18.079 5.785 7.823 13.714 18.54 12.917 37.679-.797 19.147-9.589 29.16-16.005 36.482z" fill="#56BCC7"/><path d="M261.466 269.902c8.786 11.874 19.727 26.654 18.602 53.668s-13.256 40.832-23 51.935c-8.47 9.655-14.594 16.632-15.26 32.625l-31.221-1.3c1.125-27.013 13.257-40.831 22.991-51.935 8.48-9.655 14.602-16.632 15.268-32.625.666-15.993-4.856-23.456-12.502-33.782-8.779-11.875-19.719-26.653-18.594-53.667 1.124-27.006 13.256-40.833 22.991-51.936 8.479-9.655 14.601-16.632 15.267-32.625.666-15.985-4.856-23.447-12.502-33.773-8.779-11.875-19.719-26.654-18.594-53.668.955-22.931 9.689-36.282 18.983-47.294 5.569-6.595 15.423-7.426 22.018-1.867 6.595 5.569 7.426 15.423 1.859 22.018-6.012 7.13-11.045 14.191-11.638 28.444-.666 15.992 4.855 23.455 12.495 33.781 8.786 11.875 19.727 26.654 18.602 53.66-1.124 27.014-13.256 40.832-22.999 51.935-8.471 9.655-14.595 16.633-15.261 32.626-.666 15.992 4.855 23.454 12.495 33.78z" fill="#7CD3CD"/><path d="M326.19 283.972c4.676 6.321 7.252 9.795 6.907 18.079-.345 8.285-3.2 11.541-8.386 17.451-6.415 7.315-15.208 17.336-16.005 36.474-.797 19.138 7.133 29.855 12.917 37.678 4.675 6.32 7.252 9.802 6.907 18.087l30.769 1.281c.797-19.138-7.126-29.855-12.917-37.678-4.677-6.321-7.252-9.802-6.907-18.087.345-8.285 3.2-11.54 8.386-17.451 6.423-7.314 15.208-17.335 16.005-36.474.797-19.138-7.125-29.855-12.917-37.678-4.677-6.321-7.251-9.803-6.906-18.087.344-8.276 3.2-11.534 8.386-17.443 6.423-7.314 15.208-17.336 16.004-36.474.797-19.138-7.125-29.855-12.917-37.678-4.676-6.321-7.251-9.803-6.906-18.088.354-8.492-6.245-15.671-14.744-16.025-8.499-.354-15.671 6.252-16.025 14.744-.797 19.138 7.133 29.855 12.917 37.678 4.675 6.321 7.251 9.803 6.907 18.087-.345 8.276-3.2 11.534-8.386 17.443-6.416 7.315-15.208 17.336-16.005 36.474-.798 19.147 7.132 29.856 12.916 37.687z" fill="#56BCC7"/></g><defs><clipPath id="clip0"><path fill="#fff" transform="rotate(2.384 8.288 398.235)" d="M0 0h398.407v398.407H0z"/></clipPath></defs></svg>