<svg width="352" height="333" fill="none" xmlns="http://www.w3.org/2000/svg"><path d="M168.949 266h-7.009c-35.341 0-63.99 28.246-63.99 63.089V336h7.009c35.341 0 63.99-28.246 63.99-63.089V266z" fill="#7CD3CD"/><path d="M351.949 278h-7.009c-35.341 0-63.991 28.65-63.991 63.99V349h7.01c35.341 0 63.99-28.65 63.99-63.99V278z" fill="#B0EBE1"/><path d="M351.949 137h-7.009c-35.341 0-63.991 28.65-63.991 63.99V208h7.01c35.341 0 63.99-28.65 63.99-63.99V137z" fill="#7CD3CD"/><path d="M168.477 100.625h-6.986c-35.223 0-63.777 28.554-63.777 63.777v6.986h6.986c35.223 0 63.777-28.554 63.777-63.777v-6.986zM0 183.16h6.986c35.223 0 63.778 28.555 63.778 63.778v6.986h-6.987C28.554 253.924 0 225.37 0 190.147v-6.987z" fill="#B0EBE1"/><path d="M183.172 207.422h6.986c35.224 0 63.778 28.554 63.778 63.777v6.986h-6.987c-35.223 0-63.777-28.554-63.777-63.777v-6.986zM0 18.09h6.986c35.223 0 63.778 28.555 63.778 63.778v6.986h-6.987C28.554 88.854 0 60.3 0 25.077V18.09z" fill="#7CD3CD"/><path d="M89.526 216.113c-6.678 10.225-12.448 19.06-12.448 37.807 0 18.756 5.77 27.591 12.448 37.816 6.797 10.418 14.503 22.209 14.503 44.73 0 22.512-7.706 34.311-14.503 44.721-6.678 10.225-12.448 19.06-12.448 37.816H64.445c0-22.512 7.707-34.311 14.503-44.722 6.679-10.233 12.448-19.059 12.448-37.815 0-18.756-5.77-27.591-12.448-37.816-6.796-10.41-14.503-22.209-14.503-44.73 0-22.512 7.707-34.311 14.503-44.722 6.679-10.224 12.448-19.059 12.448-37.815 0-18.748-5.77-27.583-12.448-37.807-6.796-10.409-14.503-22.209-14.503-44.722 0-22.512 7.707-34.311 14.503-44.721 6.679-10.225 12.448-19.06 12.448-37.816A6.32 6.32 0 0197.713 0a6.32 6.32 0 016.317 6.317c0 22.512-7.707 34.311-14.503 44.722-6.679 10.224-12.448 19.06-12.448 37.815 0 18.756 5.77 27.583 12.448 37.816 6.796 10.401 14.503 22.2 14.503 44.713-.002 22.521-7.707 34.321-14.504 44.73zm182.903 30.707c-6.535 8.531-12.178 15.901-12.178 31.364 0 15.463 5.643 22.832 12.178 31.363 6.923 9.046 14.772 19.304 14.772 39.045 0 19.741-7.85 30-14.772 39.045-6.535 8.531-12.178 15.901-12.178 31.364h-12.633c0-19.742 7.85-30 14.78-39.045 6.528-8.532 12.17-15.901 12.17-31.364 0-15.463-5.642-22.832-12.17-31.364-6.931-9.045-14.78-19.303-14.78-39.044 0-19.742 7.85-29.992 14.78-39.045 6.528-8.532 12.17-15.901 12.17-31.364 0-15.455-5.642-22.824-12.17-31.355-6.931-9.046-14.78-19.304-14.78-39.045 0-19.741 7.85-29.991 14.78-39.045 6.528-8.531 12.17-15.9 12.17-31.355a6.314 6.314 0 016.317-6.317 6.314 6.314 0 016.317 6.317c0 19.74-7.85 29.99-14.772 39.036-6.536 8.532-12.178 15.901-12.178 31.364 0 15.463 5.642 22.832 12.178 31.364 6.923 9.045 14.772 19.295 14.772 39.036-.001 19.75-7.85 30-14.773 39.045z" fill="#56BCC7"/></svg>