<svg width="130" height="155" fill="none" xmlns="http://www.w3.org/2000/svg"><path d="M62 98h-2.567C46.491 98 36 108.491 36 121.433V124h2.567C51.509 124 62 113.509 62 100.567V98z" fill="#7CD3CD"/><path d="M130 103h-2.567C114.491 103 104 113.491 104 126.433V129h2.567C119.509 129 130 118.509 130 105.567V103z" fill="#B0EBE1"/><path d="M130 51h-2.567C114.491 51 104 61.491 104 74.433V77h2.567C119.509 77 130 66.509 130 53.567V51z" fill="#7CD3CD"/><path d="M62.325 37.224h-2.584c-13.03 0-23.593 10.564-23.593 23.594v2.584h2.584c13.03 0 23.593-10.563 23.593-23.593v-2.585zM0 67.757h2.584c13.03 0 23.594 10.563 23.594 23.593v2.585h-2.585C10.563 93.935 0 83.372 0 70.342v-2.585z" fill="#B0EBE1"/><path d="M67.761 76.732h2.585c13.03 0 23.593 10.563 23.593 23.593v2.585h-2.584c-13.03 0-23.594-10.563-23.594-23.593v-2.585zM0 6.692h2.584c13.03 0 23.594 10.563 23.594 23.594v2.584h-2.585C10.563 32.87 0 22.307 0 9.277V6.692z" fill="#7CD3CD"/><path d="M33.119 79.948c-2.471 3.782-4.605 7.05-4.605 13.985 0 6.939 2.134 10.207 4.605 13.99 2.514 3.854 5.365 8.216 5.365 16.547 0 8.328-2.851 12.693-5.365 16.544-2.471 3.782-4.605 7.051-4.605 13.989H23.84c0-8.328 2.851-12.693 5.366-16.544 2.47-3.785 4.604-7.051 4.604-13.989 0-6.939-2.134-10.207-4.605-13.99-2.514-3.85-5.365-8.216-5.365-16.547 0-8.328 2.851-12.693 5.366-16.544 2.47-3.782 4.604-7.05 4.604-13.989 0-6.935-2.134-10.204-4.605-13.986-2.514-3.85-5.365-8.216-5.365-16.544 0-8.328 2.851-12.693 5.366-16.544 2.47-3.782 4.604-7.05 4.604-13.99a2.338 2.338 0 014.674 0c0 8.329-2.85 12.694-5.365 16.545-2.47 3.782-4.605 7.05-4.605 13.99 0 6.938 2.134 10.203 4.605 13.988 2.514 3.848 5.365 8.213 5.365 16.541 0 8.331-2.851 12.697-5.365 16.548zm67.661 11.359c-2.417 3.156-4.505 5.882-4.505 11.602 0 5.721 2.088 8.447 4.505 11.603 2.562 3.346 5.465 7.141 5.465 14.444 0 7.303-2.904 11.098-5.465 14.444-2.417 3.156-4.505 5.882-4.505 11.602h-4.673c0-7.303 2.904-11.098 5.468-14.444 2.415-3.156 4.502-5.882 4.502-11.602 0-5.721-2.088-8.447-4.502-11.603-2.564-3.346-5.468-7.141-5.468-14.444 0-7.303 2.904-11.094 5.468-14.444 2.415-3.156 4.502-5.882 4.502-11.602 0-5.717-2.088-8.444-4.502-11.6-2.564-3.346-5.468-7.14-5.468-14.444 0-7.302 2.904-11.094 5.468-14.443 2.415-3.157 4.502-5.883 4.502-11.6a2.336 2.336 0 012.337-2.337 2.336 2.336 0 012.337 2.337c0 7.303-2.904 11.095-5.465 14.441-2.418 3.156-4.505 5.882-4.505 11.602 0 5.72 2.087 8.447 4.505 11.603 2.561 3.346 5.465 7.138 5.465 14.44-.001 7.307-2.904 11.099-5.466 14.445z" fill="#56BCC7"/></svg>