<svg width="83" height="102" fill="none" xmlns="http://www.w3.org/2000/svg"><path d="M76.947 97.8a4.366 4.366 0 00.816-6.12L11.35 4.815c-1.464-1.916-8.4 3.388-6.937 5.304l66.414 86.865a4.366 4.366 0 006.12.817z" fill="#7AD0DF"/><path d="M4.413 10.119a4.366 4.366 0 106.937-5.304 4.366 4.366 0 00-6.937 5.304z" fill="#6BBCD5"/><path d="M28.141 33.965a6.59 6.59 0 01-9.228-1.231 1.782 1.782 0 112.83-2.165 3.023 3.023 0 004.234.565 3.023 3.023 0 00.564-4.233 1.782 1.782 0 112.831-2.164 6.59 6.59 0 01-1.23 9.228z" fill="#93D8E4"/><path d="M24.509 29.214a6.59 6.59 0 01-9.229-1.231 1.782 1.782 0 112.83-2.165 3.023 3.023 0 004.234.565 3.023 3.023 0 00.565-4.233 1.782 1.782 0 112.83-2.165 6.59 6.59 0 01-1.23 9.229z" fill="#93D8E4"/></svg>