<svg width="131" height="79" fill="none" xmlns="http://www.w3.org/2000/svg"><path d="M117.403 1.841a4.806 4.806 0 00-6.275 2.613l-9.306 22.59a.764.764 0 01-.413.415l-89.702 37.36a4.807 4.807 0 003.696 8.874l90.369-37.637a8.637 8.637 0 004.664-4.682l9.58-23.258a4.806 4.806 0 00-2.613-6.275z" fill="#DA387D"/><path d="M111.128 4.454l-9.306 22.59a.763.763 0 01-.412.415l-89.703 37.36a4.807 4.807 0 103.696 8.874l90.369-37.637a8.634 8.634 0 004.664-4.682l9.581-23.258c1.011-2.455-7.878-6.116-8.889-3.662z" fill="#DA387D"/><path d="M111.128 4.454a4.807 4.807 0 108.889 3.661 4.807 4.807 0 00-8.889-3.66z" fill="#C10A54"/><path d="M92.43 31.704c-.202-.484-.382-.98-.54-1.489a1.961 1.961 0 113.747-1.163c1.18 3.794 3.99 6.735 7.713 8.069a1.962 1.962 0 01-1.323 3.693c-4.395-1.574-7.823-4.85-9.597-9.11zm11.352 2.781l4.935 2.033a1.961 1.961 0 101.495-3.628l-4.935-2.033a5.843 5.843 0 01-3.19-3.176l-.539-1.296a1.962 1.962 0 00-3.622 1.508l.54 1.296a9.739 9.739 0 005.316 5.296z" fill="#DD5790"/></svg>