<svg width="124" height="79" fill="none" xmlns="http://www.w3.org/2000/svg"><path d="M120.638 25.42l-18.201-13.824a8.606 8.606 0 00-8.539-1.082L5.536 47.622a4.655 4.655 0 103.605 8.585L96.57 19.49a1.049 1.049 0 011.04.132l17.395 13.213c2.048 1.555 7.679-5.859 5.632-7.414z" fill="#F4DD45"/><path d="M120.638 25.421a4.656 4.656 0 10-5.632 7.415 4.656 4.656 0 005.632-7.415z" fill="#ECC32E"/><path d="M94.355 21.68l-.511-1.215a10.904 10.904 0 01-.041-8.4l1.58-3.87a1.9 1.9 0 013.519 1.437l-1.581 3.87a7.127 7.127 0 00.026 5.492l.511 1.216a1.9 1.9 0 11-3.503 1.47zm-6.358 1.22a17.113 17.113 0 01-.298-12.606 1.9 1.9 0 113.57 1.303c-1.31 3.586-1.055 7.448.717 10.87a1.9 1.9 0 11-3.375 1.746c-.223-.433-.428-.87-.614-1.313z" fill="#F6E266"/></svg>