<svg width="42" height="42" fill="none" xmlns="http://www.w3.org/2000/svg"><path d="M21 42c11.598 0 21-9.402 21-21S32.598 0 21 0 0 9.402 0 21s9.402 21 21 21z" fill="#4D76A1"/><path fill-rule="evenodd" clip-rule="evenodd" d="M20.207 30.21h1.648s.498-.054.752-.328c.234-.252.227-.724.227-.724s-.033-2.212.994-2.538c1.012-.32 2.311 2.138 3.688 3.083 1.042.716 1.833.559 1.833.559l3.683-.052s1.926-.118 1.012-1.633c-.074-.124-.531-1.12-2.737-3.168-2.31-2.143-2-1.796.781-5.503 1.694-2.258 2.371-3.636 2.16-4.227-.202-.562-1.448-.414-1.448-.414l-4.146.026s-.308-.042-.535.095c-.223.133-.367.445-.367.445s-.656 1.747-1.531 3.233c-1.846 3.135-2.584 3.3-2.886 3.105-.702-.453-.527-1.822-.527-2.795 0-3.038.46-4.305-.897-4.633-.45-.108-.783-.18-1.935-.192-1.48-.015-2.732.005-3.44.352-.473.23-.836.746-.615.775.274.037.895.168 1.224.616.425.577.41 1.876.41 1.876s.244 3.576-.57 4.02c-.56.305-1.326-.317-2.972-3.161-.843-1.457-1.48-3.068-1.48-3.068s-.123-.3-.342-.461c-.266-.195-.637-.258-.637-.258l-3.94.026s-.591.017-.808.274c-.194.229-.016.702-.016.702s3.085 7.216 6.577 10.853c3.203 3.334 6.84 3.116 6.84 3.116z" fill="#fff"/></svg>