<svg width="755" height="100" fill="none" xmlns="http://www.w3.org/2000/svg"><path d="M239.53 99.957c19.167 0 38.319-7.556 57.723-22.66 32.65-25.423 73.862-25.415 107.543.033 1.664 1.249 3.893.718 4.98-1.2 1.089-1.917.624-4.49-1.038-5.748-36.151-27.304-80.411-27.292-115.512.033-36.102 28.107-71.267 28.111-107.499-.004-1.65-1.281-3.884-.77-4.994 1.131-1.109 1.9-.67 4.479.978 5.76 19.47 15.103 38.651 22.655 57.819 22.655zm344.635-24.548c19.166 0 38.319-7.556 57.722-22.66 32.651-25.423 73.863-25.415 107.544.033 1.663 1.249 3.893.718 4.98-1.2 1.089-1.917.624-4.49-1.038-5.747-36.151-27.305-80.411-27.292-115.512.032-36.102 28.107-71.268 28.111-107.5-.004-1.649-1.281-3.883-.77-4.994 1.131-1.108 1.9-.669 4.479.979 5.76 19.47 15.103 38.651 22.655 57.819 22.655z" fill="#72ADE2"/><path d="M601.863 20.565c-36.154-27.305-80.414-27.292-115.511.032-36.106 28.115-71.272 28.111-107.5-.004-1.65-1.28-3.884-.774-4.992 1.131-1.111 1.901-.671 4.48.976 5.76 19.469 15.103 38.648 22.66 57.816 22.66 19.166-.005 38.319-7.557 57.726-22.664 32.647-25.427 73.859-25.411 107.544.032 1.663 1.249 3.894.718 4.981-1.2 1.088-1.917.622-4.49-1.04-5.747zM228.617 45.828c-36.155-27.296-80.413-27.283-115.512.033-36.098 28.115-71.26 28.123-107.5-.004-1.649-1.28-3.883-.77-4.992 1.13-1.11 1.902-.67 4.48.977 5.761 19.47 15.107 38.653 22.663 57.82 22.659 19.166 0 38.318-7.556 57.72-22.663 32.652-25.42 73.861-25.412 107.545.032 1.664 1.248 3.895.718 4.982-1.2 1.087-1.917.622-4.49-1.04-5.748z" fill="#4891D3"/></svg>