<svg width="1162" height="139" fill="none" xmlns="http://www.w3.org/2000/svg"><path d="M368.364 138.314c29.475 0 58.928-10.466 88.769-31.385 50.211-35.213 113.589-35.201 165.386.045 2.559 1.73 5.987.994 7.659-1.662 1.675-2.655.959-6.22-1.597-7.96-55.595-37.819-123.66-37.801-177.64.044-55.52 38.93-109.6 38.936-165.32-.005-2.536-1.774-5.973-1.067-7.68 1.566-1.705 2.633-1.029 6.204 1.505 7.978 29.943 20.919 59.439 31.379 88.918 31.379zm530-34c29.475 0 58.928-10.466 88.769-31.385 50.207-35.212 113.587-35.201 165.387.045 2.56 1.73 5.99.994 7.66-1.662 1.67-2.655.96-6.22-1.6-7.96-55.59-37.818-123.66-37.801-177.639.045-55.52 38.929-109.6 38.935-165.32-.006-2.536-1.774-5.973-1.067-7.68 1.566-1.705 2.633-1.029 6.204 1.505 7.978 29.943 20.92 59.439 31.379 88.918 31.379z" fill="#72ADE2"/><path d="M925.581 28.351c-55.601-37.818-123.666-37.8-177.641.046-55.525 38.94-109.605 38.935-165.319-.006-2.537-1.774-5.973-1.072-7.678 1.567-1.707 2.633-1.032 6.203 1.502 7.977 29.94 20.919 59.435 31.384 88.912 31.384 29.476-.005 58.93-10.465 88.775-31.39 50.206-35.218 113.584-35.195 165.387.045 2.558 1.73 5.989.994 7.661-1.662 1.672-2.655.957-6.22-1.599-7.96zm-574 34.992c-55.601-37.807-123.663-37.79-177.641.045-55.514 38.941-109.589 38.952-165.32-.006C6.085 61.61 2.649 62.316.944 64.95c-1.707 2.633-1.032 6.204 1.502 7.978 29.943 20.924 59.442 31.389 88.918 31.384 29.475 0 58.929-10.466 88.766-31.39 50.215-35.207 113.587-35.196 165.39.045 2.558 1.729 5.989.994 7.661-1.661 1.672-2.657.957-6.222-1.599-7.962z" fill="#4891D3"/></svg>