<svg width="42" height="42" fill="none" xmlns="http://www.w3.org/2000/svg"><g clip-path="url(#clip0)"><path d="M2.625 2.858C-.675 6.286 0 9.928 0 20.99c0 9.19-1.603 18.4 6.786 20.567 2.62.674 25.832.674 28.448-.003 3.493-.901 6.335-3.735 6.724-8.675.054-.69.054-23.074-.002-23.777-.413-5.262-3.652-8.295-7.92-8.91C33.057.052 32.86.01 27.842 0 10.04.009 6.138-.784 2.626 2.858z" fill="url(#paint0_linear)"/><path d="M20.996 5.493c-6.354 0-12.388-.565-14.693 5.35-.952 2.443-.813 5.616-.813 10.159 0 3.986-.128 7.733.813 10.157 2.3 5.918 8.383 5.351 14.69 5.351 6.085 0 12.358.634 14.691-5.351.954-2.468.814-5.593.814-10.157 0-6.059.334-9.97-2.604-12.907-2.975-2.975-6.998-2.602-12.905-2.602h.007zm-1.39 2.795c13.255-.021 14.942-1.495 14.011 18.975-.33 7.24-5.843 6.445-12.619 6.445-12.355 0-12.71-.353-12.71-12.713 0-12.504.98-12.7 11.319-12.71v.003zm9.668 2.574a1.86 1.86 0 100 3.721 1.86 1.86 0 000-3.72zm-8.278 2.175a7.964 7.964 0 000 15.927 7.96 7.96 0 007.961-7.962 7.962 7.962 0 00-7.96-7.964zm0 2.795c6.834 0 6.843 10.34 0 10.34-6.832 0-6.842-10.34 0-10.34z" fill="#fff"/></g><defs><linearGradient id="paint0_linear" x1="2.706" y1="39.317" x2="41.74" y2="5.533" gradientUnits="userSpaceOnUse"><stop stop-color="#FD5"/><stop offset=".5" stop-color="#FF543E"/><stop offset="1" stop-color="#C837AB"/></linearGradient><clipPath id="clip0"><path fill="#fff" d="M0 0h42v42H0z"/></clipPath></defs></svg>