<svg width="437" height="437" viewBox="0 0 437 437" fill="none" xmlns="http://www.w3.org/2000/svg">
<rect x="273.526" y="83.0811" width="28.1511" height="295.947" rx="14.0755" transform="rotate(23.5931 273.526 83.0811)" fill="#E57BFF"/>
<rect x="264.382" y="104.018" width="28.1511" height="120.264" rx="14.0755" transform="rotate(-58.74 264.382 104.018)" fill="#E57BFF"/>
<ellipse rx="14.5739" ry="14.1247" transform="matrix(-0.916411 -0.400238 -0.400238 0.916411 362.765 147.775)" fill="#D961F7"/>
<path d="M268.47 97.317C268.388 100.543 269.227 108.424 273.238 114.144C277.249 119.863 285.669 121.617 289.378 121.78" stroke="#EB9DFF" stroke-width="12" stroke-linecap="round"/>
<path d="M256.021 122.317C256.494 125.315 258.631 132.581 263.4 137.664C268.169 142.747 276.433 143.904 279.968 143.848" stroke="#EB9DFF" stroke-width="12" stroke-linecap="round"/>
<path d="M242.943 148.317C243.467 151.331 245.735 158.604 250.614 163.587C255.492 168.569 263.821 169.473 267.376 169.301" stroke="#EB9DFF" stroke-width="12" stroke-linecap="round"/>
<rect x="97.812" y="98.858" width="28.1511" height="320.089" rx="14.0755" transform="rotate(-31.8882 97.812 98.858)" fill="#F98261"/>
<path d="M130.371 158.292C133.402 159.539 141.217 161.611 148.231 159.924C155.244 158.236 160.234 150.974 161.852 147.554" stroke="#FF9578" stroke-width="12" stroke-linecap="round"/>
<path d="M141.371 177.292C144.401 178.539 152.216 180.611 159.23 178.924C166.244 177.237 171.233 169.975 172.852 166.555" stroke="#FF9578" stroke-width="12" stroke-linecap="round"/>
<path d="M154.371 197.292C157.401 198.539 165.216 200.612 172.23 198.924C179.244 197.237 184.233 189.975 185.852 186.555" stroke="#FF9578" stroke-width="12" stroke-linecap="round"/>
<circle cx="118" cy="104" r="15" fill="#EC643E"/>
<line x1="23.8785" y1="137.603" x2="406.666" y2="320.33" stroke="#E13029" stroke-width="17"/>
<circle cx="218.5" cy="218.5" r="210" stroke="#E13029" stroke-width="17"/>
</svg>
